{
copyright = "Copyright (c) 2015, Cadson Demak (info@cadsondemak.com)";
customParameters = (
{
name = vendorID;
value = CDK;
},
{
name = description;
value = "Copyright (c) 2015, Cadson Demak (info@cadsondemak.com)";
},
{
name = license;

glyphs = (
{
glyphname = A;
lastChange = "2015-10-27 15:19:12 +0000";
layers = (
{
layerId = "0FC58CF8-AD3A-4320-9E57-2D2B1849830B";
name = Bold;
paths = (
{
closed = 1;
nodes = (
"256 0 LINE",
"256 18 LINE",
"227 28 OFFCURVE",
"202 38 OFFCURVE",
"174 42 CURVE",
"356 548 LINE",
"533 44 LINE",
"518 42 OFFCURVE",
"492 35 OFFCURVE",
"454 22 CURVE",
"454 0 LINE",
"788 0 LINE",
"788 20 LINE",
"761 29 OFFCURVE",
"734 37 OFFCURVE",
"710 43 CURVE",
"461 704 LINE",
"333 704 LINE",
"85 45 LINE",
"79 44 OFFCURVE",
"33 32 OFFCURVE",
"6 23 CURVE",
"6 0 LINE"
);
},
{
closed = 1;
nodes = (
"535 177 LINE",
"535 231 LINE",
"195 231 LINE",
"195 177 LINE"
);
}
);
width = 795;
}
);
leftKerningGroup = A;
note = A;
rightKerningGroup = A;
unicode = 0041;
},
{
glyphname = Aacute;
lastChange = "2015-10-27 15:19:12 +0000";
layers = (
{
layerId = "0FC58CF8-AD3A-4320-9E57-2D2B1849830B";
name = Bold;
paths = (
{
closed = 1;
nodes = (
"256 0 LINE",
"256 18 LINE",
"227 28 OFFCURVE",
"202 38 OFFCURVE",
"174 42 CURVE",
"356 548 LINE",
"533 44 LINE",
"518 42 OFFCURVE",
"492 35 OFFCURVE",
"454 22 CURVE",
"454 0 LINE",
"788 0 LINE",
"788 20 LINE",
"761 29 OFFCURVE",
"734 37 OFFCURVE",
"710 43 CURVE",
"461 704 LINE",
"333 704 LINE",
"85 45 LINE",
"79 44 OFFCURVE",
"33 32 OFFCURVE",
"6 23 CURVE",
"6 0 LINE"
);
},
{
closed = 1;
nodes = (
"535 177 LINE",
"535 231 LINE",
"195 231 LINE",
"195 177 LINE"
);
},
{
closed = 1;
nodes = (
"474 882 LINE SMOOTH",
"509 903 OFFCURVE",
"529 923 OFFCURVE",
"529 950 CURVE SMOOTH",
"529 970 OFFCURVE",
"514 996 OFFCURVE",
"475 996 CURVE SMOOTH",
"441 996 OFFCURVE",
"410 964 OFFCURVE",
"404 958 CURVE",
"280 825 LINE",
"308 786 LINE"
);
}
);
width = 795;
}
);
leftKerningGroup = A;
note = Aacute;
rightKerningGroup = A;
unicode = 00C1;
},
{
glyphname = Abreve;
lastChange = "2015-10-27 15:19:12 +0000";
layers = (
{
layerId = "0FC58CF8-AD3A-4320-9E57-2D2B1849830B";
name = Bold;
paths = (
{
closed = 1;
nodes = (
"256 0 LINE",
"256 18 LINE",
"227 28 OFFCURVE",
"202 38 OFFCURVE",
"174 42 CURVE",
"356 548 LINE",
"533 44 LINE",
"518 42 OFFCURVE",
"492 35 OFFCURVE",
"454 22 CURVE",
"454 0 LINE",
"788 0 LINE",
"788 20 LINE",
"761 29 OFFCURVE",
"734 37 OFFCURVE",
"710 43 CURVE",
"461 704 LINE",
"333 704 LINE",
"85 45 LINE",
"79 44 OFFCURVE",
"33 32 OFFCURVE",
"6 23 CURVE",
"6 0 LINE"
);
},
{
closed = 1;
nodes = (
"535 177 LINE",
"535 231 LINE",
"195 231 LINE",
"195 177 LINE"
);
},
{
closed = 1;
nodes = (
"499 783 OFFCURVE",
"570 827 OFFCURVE",
"586 920 CURVE",
"490 920 LINE",
"483 848 OFFCURVE",
"438 839 OFFCURVE",
"397 839 CURVE SMOOTH",
"356 839 OFFCURVE",
"310 848 OFFCURVE",
"303 920 CURVE",
"207 920 LINE",
"224 827 OFFCURVE",
"294 783 OFFCURVE",
"397 783 CURVE SMOOTH"
);
}
);
width = 795;
}
);
leftKerningGroup = A;
note = Abreve;
rightKerningGroup = A;
unicode = 0102;
},
{
glyphname = Abreveacute;
lastChange = "2015-10-27 15:19:11 +0000";
layers = (
{
layerId = "0FC58CF8-AD3A-4320-9E57-2D2B1849830B";
name = Bold;
paths = (
{
closed = 1;
nodes = (
"256 0 LINE",
"256 18 LINE",
"227 28 OFFCURVE",
"202 38 OFFCURVE",
"174 42 CURVE",
"356 548 LINE",
"533 44 LINE",
"518 42 OFFCURVE",
"492 35 OFFCURVE",
"454 22 CURVE",
"454 0 LINE",
"788 0 LINE",
"788 20 LINE",
"761 29 OFFCURVE",
"734 37 OFFCURVE",
"710 43 CURVE",
"461 704 LINE",
"333 704 LINE",
"85 45 LINE",
"79 44 OFFCURVE",
"33 32 OFFCURVE",
"6 23 CURVE",
"6 0 LINE"
);
},
{
closed = 1;
nodes = (
"535 177 LINE",
"535 231 LINE",
"195 231 LINE",
"195 177 LINE"
);
},
{
closed = 1;
nodes = (
"500 789 OFFCURVE",
"570 833 OFFCURVE",
"587 926 CURVE",
"491 926 LINE",
"483 854 OFFCURVE",
"438 845 OFFCURVE",
"397 845 CURVE SMOOTH",
"356 845 OFFCURVE",
"311 854 OFFCURVE",
"304 926 CURVE",
"208 926 LINE",
"224 833 OFFCURVE",
"295 789 OFFCURVE",
"397 789 CURVE SMOOTH"
);
},
{
closed = 1;
nodes = (
"492 990 LINE SMOOTH",
"532 1010 OFFCURVE",
"557 1035 OFFCURVE",
"557 1061 CURVE SMOOTH",
"557 1082 OFFCURVE",
"541 1109 OFFCURVE",
"504 1109 CURVE SMOOTH",
"474 1109 OFFCURVE",
"448 1084 OFFCURVE",
"429 1062 CURVE SMOOTH",
"353 969 LINE",
"380 934 LINE"
);
}
);
width = 795;
}
);
leftKerningGroup = A;
note = Abreveacute;
rightKerningGroup = A;
unicode = 1EAE;
},
{
glyphname = Abrevedotbelow;
lastChange = "2015-10-27 15:19:11 +0000";
layers = (
{
layerId = "0FC58CF8-AD3A-4320-9E57-2D2B1849830B";
name = Bold;
paths = (
{
closed = 1;
nodes = (
"256 0 LINE",
"256 18 LINE",
"227 28 OFFCURVE",
"202 38 OFFCURVE",
"174 42 CURVE",
"356 548 LINE",
"533 44 LINE",
"518 42 OFFCURVE",
"492 35 OFFCURVE",
"454 22 CURVE",
"454 0 LINE",
"788 0 LINE",
"788 20 LINE",
"761 29 OFFCURVE",
"734 37 OFFCURVE",
"710 43 CURVE",
"461 704 LINE",
"333 704 LINE",
"85 45 LINE",
"79 44 OFFCURVE",
"33 32 OFFCURVE",
"6 23 CURVE",
"6 0 LINE"
);
},
{
closed = 1;
nodes = (
"432 -187 OFFCURVE",
"458 -157 OFFCURVE",
"458 -120 CURVE SMOOTH",
"458 -82 OFFCURVE",
"432 -52 OFFCURVE",
"390 -52 CURVE SMOOTH",
"349 -52 OFFCURVE",
"324 -82 OFFCURVE",
"324 -120 CURVE SMOOTH",
"324 -157 OFFCURVE",
"349 -187 OFFCURVE",
"390 -187 CURVE SMOOTH"
);
},
{
closed = 1;
nodes = (
"535 177 LINE",
"535 231 LINE",
"195 231 LINE",
"195 177 LINE"
);
},
{
closed = 1;
nodes = (
"492 782 OFFCURVE",
"563 826 OFFCURVE",
"579 919 CURVE",
"483 919 LINE",
"476 847 OFFCURVE",
"431 838 OFFCURVE",
"390 838 CURVE SMOOTH",
"349 838 OFFCURVE",
"303 847 OFFCURVE",
"296 919 CURVE",
"200 919 LINE",
"217 826 OFFCURVE",
"287 782 OFFCURVE",
"390 782 CURVE SMOOTH"
);
}
);
width = 795;
}
);
leftKerningGroup = A;
note = Abrevedotbelow;
rightKerningGroup = A;
unicode = 1EB6;
},
{
glyphname = Abrevegrave;
lastChange = "2015-10-27 15:19:12 +0000";
layers = (
{
layerId = "0FC58CF8-AD3A-4320-9E57-2D2B1849830B";
name = Bold;
paths = (
{
closed = 1;
nodes = (
"256 0 LINE",
"256 18 LINE",
"227 28 OFFCURVE",
"202 38 OFFCURVE",
"174 42 CURVE",
"356 548 LINE",
"533 44 LINE",
"518 42 OFFCURVE",
"492 35 OFFCURVE",
"454 22 CURVE",
"454 0 LINE",
"788 0 LINE",
"788 20 LINE",
"761 29 OFFCURVE",
"734 37 OFFCURVE",
"710 43 CURVE",
"461 704 LINE",
"333 704 LINE",
"85 45 LINE",
"79 44 OFFCURVE",
"33 32 OFFCURVE",
"6 23 CURVE",
"6 0 LINE"
);
},
{
closed = 1;
nodes = (
"535 177 LINE",
"535 231 LINE",
"195 231 LINE",
"195 177 LINE"
);
},
{
closed = 1;
nodes = (
"500 789 OFFCURVE",
"570 833 OFFCURVE",
"587 926 CURVE",
"491 926 LINE",
"483 854 OFFCURVE",
"438 845 OFFCURVE",
"397 845 CURVE SMOOTH",
"356 845 OFFCURVE",
"311 854 OFFCURVE",
"304 926 CURVE",
"208 926 LINE",
"224 833 OFFCURVE",
"295 789 OFFCURVE",
"397 789 CURVE SMOOTH"
);
},
{
closed = 1;
nodes = (
"441 969 LINE",
"365 1062 LINE SMOOTH",
"346 1084 OFFCURVE",
"320 1109 OFFCURVE",
"290 1109 CURVE SMOOTH",
"253 1109 OFFCURVE",
"237 1082 OFFCURVE",
"237 1061 CURVE SMOOTH",
"237 1035 OFFCURVE",
"262 1010 OFFCURVE",
"302 990 CURVE SMOOTH",
"414 934 LINE"
);
}
);
width = 795;
}
);
leftKerningGroup = A;
note = Abrevegrave;
rightKerningGroup = A;
unicode = 1EB0;
},
{
glyphname = Abrevehookabove;
lastChange = "2015-10-27 15:19:11 +0000";
layers = (
{
layerId = "0FC58CF8-AD3A-4320-9E57-2D2B1849830B";
name = Bold;
paths = (
{
closed = 1;
nodes = (
"256 0 LINE",
"256 18 LINE",
"227 28 OFFCURVE",
"202 38 OFFCURVE",
"174 42 CURVE",
"356 548 LINE",
"533 44 LINE",
"518 42 OFFCURVE",
"492 35 OFFCURVE",
"454 22 CURVE",
"454 0 LINE",
"788 0 LINE",
"788 20 LINE",
"761 29 OFFCURVE",
"734 37 OFFCURVE",
"710 43 CURVE",
"461 704 LINE",
"333 704 LINE",
"85 45 LINE",
"79 44 OFFCURVE",
"33 32 OFFCURVE",
"6 23 CURVE",
"6 0 LINE"
);
},
{
closed = 1;
nodes = (
"535 177 LINE",
"535 231 LINE",
"195 231 LINE",
"195 177 LINE"
);
},
{
closed = 1;
nodes = (
"500 789 OFFCURVE",
"570 833 OFFCURVE",
"587 926 CURVE",
"491 926 LINE",
"483 854 OFFCURVE",
"438 845 OFFCURVE",
"397 845 CURVE SMOOTH",
"356 845 OFFCURVE",
"311 854 OFFCURVE",
"304 926 CURVE",
"208 926 LINE",
"224 833 OFFCURVE",
"295 789 OFFCURVE",
"397 789 CURVE SMOOTH"
);
},
{
closed = 1;
nodes = (
"428 953 LINE",
"437 997 LINE",
"484 1002 OFFCURVE",
"523 1019 OFFCURVE",
"523 1077 CURVE SMOOTH",
"523 1140 OFFCURVE",
"466 1163 OFFCURVE",
"410 1163 CURVE SMOOTH",
"381 1163 OFFCURVE",
"352 1156 OFFCURVE",
"333 1147 CURVE",
"339 1108 LINE",
"356 1117 OFFCURVE",
"378 1121 OFFCURVE",
"394 1121 CURVE SMOOTH",
"431 1121 OFFCURVE",
"449 1101 OFFCURVE",
"449 1078 CURVE SMOOTH",
"449 1042 OFFCURVE",
"421 1032 OFFCURVE",
"399 1032 CURVE SMOOTH",
"362 1032 LINE",
"366 953 LINE"
);
}
);
width = 795;
}
);
leftKerningGroup = A;
note = Abrevehookabove;
rightKerningGroup = A;
unicode = 1EB2;
},
{
glyphname = Abrevetilde;
lastChange = "2015-10-27 15:19:12 +0000";
layers = (
{
layerId = "0FC58CF8-AD3A-4320-9E57-2D2B1849830B";
name = Bold;
paths = (
{
closed = 1;
nodes = (
"256 0 LINE",
"256 18 LINE",
"227 28 OFFCURVE",
"202 38 OFFCURVE",
"174 42 CURVE",
"356 548 LINE",
"533 44 LINE",
"518 42 OFFCURVE",
"492 35 OFFCURVE",
"454 22 CURVE",
"454 0 LINE",
"788 0 LINE",
"788 20 LINE",
"761 29 OFFCURVE",
"734 37 OFFCURVE",
"710 43 CURVE",
"461 704 LINE",
"333 704 LINE",
"85 45 LINE",
"79 44 OFFCURVE",
"33 32 OFFCURVE",
"6 23 CURVE",
"6 0 LINE"
);
},
{
closed = 1;
nodes = (
"535 177 LINE",
"535 231 LINE",
"195 231 LINE",
"195 177 LINE"
);
},
{
closed = 1;
nodes = (
"500 789 OFFCURVE",
"570 833 OFFCURVE",
"587 926 CURVE",
"491 926 LINE",
"483 854 OFFCURVE",
"438 845 OFFCURVE",
"397 845 CURVE SMOOTH",
"356 845 OFFCURVE",
"311 854 OFFCURVE",
"304 926 CURVE",
"208 926 LINE",
"224 833 OFFCURVE",
"295 789 OFFCURVE",
"397 789 CURVE SMOOTH"
);
},
{
closed = 1;
nodes = (
"258 988 LINE",
"264 1018 OFFCURVE",
"288 1038 OFFCURVE",
"321 1038 CURVE SMOOTH",
"369 1038 OFFCURVE",
"407 988 OFFCURVE",
"467 988 CURVE SMOOTH",
"547 988 OFFCURVE",
"585 1036 OFFCURVE",
"592 1108 CURVE",
"535 1108 LINE",
"524 1062 OFFCURVE",
"487 1056 OFFCURVE",
"465 1056 CURVE SMOOTH",
"425 1056 OFFCURVE",
"400 1106 OFFCURVE",
"326 1106 CURVE SMOOTH",
"255 1106 OFFCURVE",
"211 1065 OFFCURVE",
"200 988 CURVE"
);
}
);
width = 795;
}
);
leftKerningGroup = A;
note = Abrevetilde;
rightKerningGroup = A;
unicode = 1EB4;
},
{
glyphname = Acaron;
lastChange = "2015-10-27 15:19:12 +0000";
layers = (
{
layerId = "0FC58CF8-AD3A-4320-9E57-2D2B1849830B";
name = Bold;
paths = (
{
closed = 1;
nodes = (
"256 0 LINE",
"256 18 LINE",
"227 28 OFFCURVE",
"202 38 OFFCURVE",
"174 42 CURVE",
"356 548 LINE",
"533 44 LINE",
"518 42 OFFCURVE",
"492 35 OFFCURVE",
"454 22 CURVE",
"454 0 LINE",
"788 0 LINE",
"788 20 LINE",
"761 29 OFFCURVE",
"734 37 OFFCURVE",
"710 43 CURVE",
"461 704 LINE",
"333 704 LINE",
"85 45 LINE",
"79 44 OFFCURVE",
"33 32 OFFCURVE",
"6 23 CURVE",
"6 0 LINE"
);
},
{
closed = 1;
nodes = (
"535 177 LINE",
"535 231 LINE",
"195 231 LINE",
"195 177 LINE"
);
},
{
closed = 1;
nodes = (
"438 786 LINE",
"460 820 OFFCURVE",
"555 906 OFFCURVE",
"601 935 CURVE",
"530 985 LINE",
"487 952 OFFCURVE",
"422 887 OFFCURVE",
"399 850 CURVE",
"395 850 LINE",
"373 887 OFFCURVE",
"307 952 OFFCURVE",
"264 985 CURVE",
"193 935 LINE",
"239 906 OFFCURVE",
"334 820 OFFCURVE",
"356 786 CURVE"
);
}
);
width = 795;
}
);
leftKerningGroup = A;
note = Acaron;
rightKerningGroup = A;
unicode = 01CD;
},
{
glyphname = Acircumflex;
lastChange = "2015-10-27 15:19:11 +0000";
layers = (
{
layerId = "0FC58CF8-AD3A-4320-9E57-2D2B1849830B";
name = Bold;
paths = (
{
closed = 1;
nodes = (
"256 0 LINE",
"256 18 LINE",
"227 28 OFFCURVE",
"202 38 OFFCURVE",
"174 42 CURVE",
"356 548 LINE",
"533 44 LINE",
"518 42 OFFCURVE",
"492 35 OFFCURVE",
"454 22 CURVE",
"454 0 LINE",
"788 0 LINE",
"788 20 LINE",
"761 29 OFFCURVE",
"734 37 OFFCURVE",
"710 43 CURVE",
"461 704 LINE",
"333 704 LINE",
"85 45 LINE",
"79 44 OFFCURVE",
"33 32 OFFCURVE",
"6 23 CURVE",
"6 0 LINE"
);
},
{
closed = 1;
nodes = (
"535 177 LINE",
"535 231 LINE",
"195 231 LINE",
"195 177 LINE"
);
},
{
closed = 1;
nodes = (
"307 818 OFFCURVE",
"373 883 OFFCURVE",
"395 920 CURVE",
"399 920 LINE",
"422 883 OFFCURVE",
"487 818 OFFCURVE",
"530 784 CURVE",
"601 835 LINE",
"555 863 OFFCURVE",
"460 950 OFFCURVE",
"438 984 CURVE",
"356 984 LINE",
"334 950 OFFCURVE",
"239 863 OFFCURVE",
"193 835 CURVE",
"264 784 LINE"
);
}
);
width = 795;
}
);
leftKerningGroup = A;
note = Acircumflex;
rightKerningGroup = A;
unicode = 00C2;
},
{
glyphname = Acircumflexacute;
lastChange = "2015-10-27 15:19:12 +0000";
layers = (
{
layerId = "0FC58CF8-AD3A-4320-9E57-2D2B1849830B";
name = Bold;
paths = (
{
closed = 1;
nodes = (
"256 0 LINE",
"256 18 LINE",
"227 28 OFFCURVE",
"202 38 OFFCURVE",
"174 42 CURVE",
"356 548 LINE",
"533 44 LINE",
"518 42 OFFCURVE",
"492 35 OFFCURVE",
"454 22 CURVE",
"454 0 LINE",
"788 0 LINE",
"788 20 LINE",
"761 29 OFFCURVE",
"734 37 OFFCURVE",
"710 43 CURVE",
"461 704 LINE",
"333 704 LINE",
"85 45 LINE",
"79 44 OFFCURVE",
"33 32 OFFCURVE",
"6 23 CURVE",
"6 0 LINE"
);
},
{
closed = 1;
nodes = (
"535 177 LINE",
"535 231 LINE",
"195 231 LINE",
"195 177 LINE"
);
},
{
closed = 1;
nodes = (
"308 818 OFFCURVE",
"374 883 OFFCURVE",
"397 920 CURVE",
"397 920 OFFCURVE",
"400 920 OFFCURVE",
"400 920 CURVE",
"423 883 OFFCURVE",
"489 818 OFFCURVE",
"531 784 CURVE",
"602 835 LINE",
"557 863 OFFCURVE",
"462 950 OFFCURVE",
"439 984 CURVE",
"358 984 LINE",
"335 950 OFFCURVE",
"240 863 OFFCURVE",
"195 835 CURVE",
"266 784 LINE"
);
},
{
closed = 1;
nodes = (
"661 985 LINE SMOOTH",
"702 1005 OFFCURVE",
"726 1022 OFFCURVE",
"726 1048 CURVE SMOOTH",
"726 1078 OFFCURVE",
"701 1097 OFFCURVE",
"670 1097 CURVE SMOOTH",
"639 1097 OFFCURVE",
"616 1077 OFFCURVE",
"599 1057 CURVE SMOOTH",
"522 964 LINE",
"549 929 LINE"
);
}
);
width = 795;
}
);
leftKerningGroup = A;
note = Acircumflexacute;
rightKerningGroup = A;
unicode = 1EA4;
},
{
glyphname = Acircumflexdotbelow;
lastChange = "2015-10-27 15:19:12 +0000";
layers = (
{
layerId = "0FC58CF8-AD3A-4320-9E57-2D2B1849830B";
name = Bold;
paths = (
{
closed = 1;
nodes = (
"256 0 LINE",
"256 18 LINE",
"227 28 OFFCURVE",
"202 38 OFFCURVE",
"174 42 CURVE",
"356 548 LINE",
"533 44 LINE",
"518 42 OFFCURVE",
"492 35 OFFCURVE",
"454 22 CURVE",
"454 0 LINE",
"788 0 LINE",
"788 20 LINE",
"761 29 OFFCURVE",
"734 37 OFFCURVE",
"710 43 CURVE",
"461 704 LINE",
"333 704 LINE",
"85 45 LINE",
"79 44 OFFCURVE",
"33 32 OFFCURVE",
"6 23 CURVE",
"6 0 LINE"
);
},
{
closed = 1;
nodes = (
"440 -187 OFFCURVE",
"466 -157 OFFCURVE",
"466 -120 CURVE SMOOTH",
"466 -82 OFFCURVE",
"440 -52 OFFCURVE",
"398 -52 CURVE SMOOTH",
"357 -52 OFFCURVE",
"332 -82 OFFCURVE",
"332 -120 CURVE SMOOTH",
"332 -157 OFFCURVE",
"357 -187 OFFCURVE",
"398 -187 CURVE SMOOTH"
);
},
{
closed = 1;
nodes = (
"535 177 LINE",
"535 231 LINE",
"195 231 LINE",
"195 177 LINE"
);
},
{
closed = 1;
nodes = (
"308 817 OFFCURVE",
"374 882 OFFCURVE",
"396 919 CURVE",
"400 919 LINE",
"423 882 OFFCURVE",
"488 817 OFFCURVE",
"531 783 CURVE",
"602 834 LINE",
"556 862 OFFCURVE",
"461 949 OFFCURVE",
"439 983 CURVE",
"357 983 LINE",
"335 949 OFFCURVE",
"240 862 OFFCURVE",
"194 834 CURVE",
"265 783 LINE"
);
}
);
width = 795;
}
);
leftKerningGroup = A;
note = Acircumflexdotbelow;
rightKerningGroup = A;
unicode = 1EAC;
},
{
glyphname = Acircumflexgrave;
lastChange = "2015-10-27 15:19:11 +0000";
layers = (
{
layerId = "0FC58CF8-AD3A-4320-9E57-2D2B1849830B";
name = Bold;
paths = (
{
closed = 1;
nodes = (
"256 0 LINE",
"256 18 LINE",
"227 28 OFFCURVE",
"202 38 OFFCURVE",
"174 42 CURVE",
"356 548 LINE",
"533 44 LINE",
"518 42 OFFCURVE",
"492 35 OFFCURVE",
"454 22 CURVE",
"454 0 LINE",
"788 0 LINE",
"788 20 LINE",
"761 29 OFFCURVE",
"734 37 OFFCURVE",
"710 43 CURVE",
"461 704 LINE",
"333 704 LINE",
"85 45 LINE",
"79 44 OFFCURVE",
"33 32 OFFCURVE",
"6 23 CURVE",
"6 0 LINE"
);
},
{
closed = 1;
nodes = (
"535 177 LINE",
"535 231 LINE",
"195 231 LINE",
"195 177 LINE"
);
},
{
closed = 1;
nodes = (
"272 964 LINE",
"195 1057 LINE SMOOTH",
"178 1077 OFFCURVE",
"155 1097 OFFCURVE",
"124 1097 CURVE SMOOTH",
"93 1097 OFFCURVE",
"68 1078 OFFCURVE",
"68 1048 CURVE SMOOTH",
"68 1022 OFFCURVE",
"92 1005 OFFCURVE",
"133 985 CURVE SMOOTH",
"245 929 LINE"
);
},
{
closed = 1;
nodes = (
"308 818 OFFCURVE",
"374 883 OFFCURVE",
"397 920 CURVE",
"397 920 OFFCURVE",
"400 920 OFFCURVE",
"400 920 CURVE",
"423 883 OFFCURVE",
"489 818 OFFCURVE",
"531 784 CURVE",
"602 835 LINE",
"557 863 OFFCURVE",
"462 950 OFFCURVE",
"439 984 CURVE",
"358 984 LINE",
"335 950 OFFCURVE",
"240 863 OFFCURVE",
"195 835 CURVE",
"266 784 LINE"
);
}
);
width = 795;
}
);
leftKerningGroup = A;
note = Acircumflexgrave;
rightKerningGroup = A;
unicode = 1EA6;
},
{
glyphname = Acircumflexhookabove;
lastChange = "2015-10-27 15:19:11 +0000";
layers = (
{
layerId = "0FC58CF8-AD3A-4320-9E57-2D2B1849830B";
name = Bold;
paths = (
{
closed = 1;
nodes = (
"256 0 LINE",
"256 18 LINE",
"227 28 OFFCURVE",
"202 38 OFFCURVE",
"174 42 CURVE",
"356 548 LINE",
"533 44 LINE",
"518 42 OFFCURVE",
"492 35 OFFCURVE",
"454 22 CURVE",
"454 0 LINE",
"788 0 LINE",
"788 20 LINE",
"761 29 OFFCURVE",
"734 37 OFFCURVE",
"710 43 CURVE",
"461 704 LINE",
"333 704 LINE",
"85 45 LINE",
"79 44 OFFCURVE",
"33 32 OFFCURVE",
"6 23 CURVE",
"6 0 LINE"
);
},
{
closed = 1;
nodes = (
"535 177 LINE",
"535 231 LINE",
"195 231 LINE",
"195 177 LINE"
);
},
{
closed = 1;
nodes = (
"308 818 OFFCURVE",
"374 883 OFFCURVE",
"397 920 CURVE",
"397 920 OFFCURVE",
"400 920 OFFCURVE",
"400 920 CURVE",
"423 883 OFFCURVE",
"489 818 OFFCURVE",
"531 784 CURVE",
"602 835 LINE",
"557 863 OFFCURVE",
"462 950 OFFCURVE",
"439 984 CURVE",
"358 984 LINE",
"335 950 OFFCURVE",
"240 863 OFFCURVE",
"195 835 CURVE",
"266 784 LINE"
);
},
{
closed = 1;
nodes = (
"587 948 LINE",
"596 992 LINE",
"643 997 OFFCURVE",
"682 1014 OFFCURVE",
"682 1072 CURVE SMOOTH",
"682 1135 OFFCURVE",
"625 1158 OFFCURVE",
"569 1158 CURVE SMOOTH",
"540 1158 OFFCURVE",
"511 1151 OFFCURVE",
"492 1142 CURVE",
"498 1103 LINE",
"515 1112 OFFCURVE",
"537 1116 OFFCURVE",
"553 1116 CURVE SMOOTH",
"590 1116 OFFCURVE",
"608 1096 OFFCURVE",
"608 1073 CURVE SMOOTH",
"608 1037 OFFCURVE",
"580 1027 OFFCURVE",
"558 1027 CURVE SMOOTH",
"521 1027 LINE",
"525 948 LINE"
);
}
);
width = 795;
}
);
leftKerningGroup = A;
note = Acircumflexhookabove;
rightKerningGroup = A;
unicode = 1EA8;
},
{
glyphname = Acircumflextilde;
lastChange = "2015-10-27 15:19:11 +0000";
layers = (
{
layerId = "0FC58CF8-AD3A-4320-9E57-2D2B1849830B";
name = Bold;
paths = (
{
closed = 1;
nodes = (
"256 0 LINE",
"256 18 LINE",
"227 28 OFFCURVE",
"202 38 OFFCURVE",
"174 42 CURVE",
"356 548 LINE",
"533 44 LINE",
"518 42 OFFCURVE",
"492 35 OFFCURVE",
"454 22 CURVE",
"454 0 LINE",
"788 0 LINE",
"788 20 LINE",
"761 29 OFFCURVE",
"734 37 OFFCURVE",
"710 43 CURVE",
"461 704 LINE",
"333 704 LINE",
"85 45 LINE",
"79 44 OFFCURVE",
"33 32 OFFCURVE",
"6 23 CURVE",
"6 0 LINE"
);
},
{
closed = 1;
nodes = (
"535 177 LINE",
"535 231 LINE",
"195 231 LINE",
"195 177 LINE"
);
},
{
closed = 1;
nodes = (
"308 818 OFFCURVE",
"374 883 OFFCURVE",
"397 920 CURVE",
"397 920 OFFCURVE",
"400 920 OFFCURVE",
"400 920 CURVE",
"423 883 OFFCURVE",
"489 818 OFFCURVE",
"531 784 CURVE",
"602 835 LINE",
"557 863 OFFCURVE",
"462 950 OFFCURVE",
"439 984 CURVE",
"358 984 LINE",
"335 950 OFFCURVE",
"240 863 OFFCURVE",
"195 835 CURVE",
"266 784 LINE"
);
},
{
closed = 1;
nodes = (
"271 1022 LINE",
"277 1052 OFFCURVE",
"301 1072 OFFCURVE",
"334 1072 CURVE SMOOTH",
"382 1072 OFFCURVE",
"420 1022 OFFCURVE",
"480 1022 CURVE SMOOTH",
"560 1022 OFFCURVE",
"598 1070 OFFCURVE",
"605 1142 CURVE",
"548 1142 LINE",
"537 1096 OFFCURVE",
"500 1090 OFFCURVE",
"478 1090 CURVE SMOOTH",
"438 1090 OFFCURVE",
"413 1140 OFFCURVE",
"339 1140 CURVE SMOOTH",
"268 1140 OFFCURVE",
"224 1099 OFFCURVE",
"213 1022 CURVE"
);
}
);
width = 795;
}
);
leftKerningGroup = A;
note = Acircumflextilde;
rightKerningGroup = A;
unicode = 1EAA;
},
{
glyphname = Adieresis;
lastChange = "2015-10-27 15:19:11 +0000";
layers = (
{
layerId = "0FC58CF8-AD3A-4320-9E57-2D2B1849830B";
name = Bold;
paths = (
{
closed = 1;
nodes = (
"256 0 LINE",
"256 18 LINE",
"227 28 OFFCURVE",
"202 38 OFFCURVE",
"174 42 CURVE",
"356 548 LINE",
"533 44 LINE",
"518 42 OFFCURVE",
"492 35 OFFCURVE",
"454 22 CURVE",
"454 0 LINE",
"788 0 LINE",
"788 20 LINE",
"761 29 OFFCURVE",
"734 37 OFFCURVE",
"710 43 CURVE",
"461 704 LINE",
"333 704 LINE",
"85 45 LINE",
"79 44 OFFCURVE",
"33 32 OFFCURVE",
"6 23 CURVE",
"6 0 LINE"
);
},
{
closed = 1;
nodes = (
"535 177 LINE",
"535 231 LINE",
"195 231 LINE",
"195 177 LINE"
);
},
{
closed = 1;
nodes = (
"296 785 OFFCURVE",
"322 815 OFFCURVE",
"322 852 CURVE SMOOTH",
"322 890 OFFCURVE",
"296 920 OFFCURVE",
"255 920 CURVE SMOOTH",
"214 920 OFFCURVE",
"188 890 OFFCURVE",
"188 852 CURVE SMOOTH",
"188 815 OFFCURVE",
"214 785 OFFCURVE",
"255 785 CURVE SMOOTH"
);
},
{
closed = 1;
nodes = (
"543 785 OFFCURVE",
"569 815 OFFCURVE",
"569 852 CURVE SMOOTH",
"569 890 OFFCURVE",
"543 920 OFFCURVE",
"501 920 CURVE SMOOTH",
"460 920 OFFCURVE",
"435 890 OFFCURVE",
"435 852 CURVE SMOOTH",
"435 815 OFFCURVE",
"460 785 OFFCURVE",
"501 785 CURVE SMOOTH"
);
}
);
width = 795;
}
);
leftKerningGroup = A;
note = Adieresis;
rightKerningGroup = A;
unicode = 00C4;
},
{
glyphname = Adotbelow;
lastChange = "2015-10-27 15:19:11 +0000";
layers = (
{
layerId = "0FC58CF8-AD3A-4320-9E57-2D2B1849830B";
name = Bold;
paths = (
{
closed = 1;
nodes = (
"256 0 LINE",
"256 18 LINE",
"227 28 OFFCURVE",
"202 38 OFFCURVE",
"174 42 CURVE",
"356 548 LINE",
"533 44 LINE",
"518 42 OFFCURVE",
"492 35 OFFCURVE",
"454 22 CURVE",
"454 0 LINE",
"788 0 LINE",
"788 20 LINE",
"761 29 OFFCURVE",
"734 37 OFFCURVE",
"710 43 CURVE",
"461 704 LINE",
"333 704 LINE",
"85 45 LINE",
"79 44 OFFCURVE",
"33 32 OFFCURVE",
"6 23 CURVE",
"6 0 LINE"
);
},
{
closed = 1;
nodes = (
"438 -187 OFFCURVE",
"464 -157 OFFCURVE",
"464 -120 CURVE SMOOTH",
"464 -82 OFFCURVE",
"438 -52 OFFCURVE",
"396 -52 CURVE SMOOTH",
"355 -52 OFFCURVE",
"330 -82 OFFCURVE",
"330 -120 CURVE SMOOTH",
"330 -157 OFFCURVE",
"355 -187 OFFCURVE",
"396 -187 CURVE SMOOTH"
);
},
{
closed = 1;
nodes = (
"535 177 LINE",
"535 231 LINE",
"195 231 LINE",
"195 177 LINE"
);
}
);
width = 795;
}
);
leftKerningGroup = A;
note = Adotbelow;
rightKerningGroup = A;
unicode = 1EA0;
},
{
glyphname = Agrave;
lastChange = "2015-10-27 15:19:11 +0000";
layers = (
{
layerId = "0FC58CF8-AD3A-4320-9E57-2D2B1849830B";
name = Bold;
paths = (
{
closed = 1;
nodes = (
"256 0 LINE",
"256 18 LINE",
"227 28 OFFCURVE",
"202 38 OFFCURVE",
"174 42 CURVE",
"356 548 LINE",
"533 44 LINE",
"518 42 OFFCURVE",
"492 35 OFFCURVE",
"454 22 CURVE",
"454 0 LINE",
"788 0 LINE",
"788 20 LINE",
"761 29 OFFCURVE",
"734 37 OFFCURVE",
"710 43 CURVE",
"461 704 LINE",
"333 704 LINE",
"85 45 LINE",
"79 44 OFFCURVE",
"33 32 OFFCURVE",
"6 23 CURVE",
"6 0 LINE"
);
},
{
closed = 1;
nodes = (
"535 177 LINE",
"535 231 LINE",
"195 231 LINE",
"195 177 LINE"
);
},
{
closed = 1;
nodes = (
"515 825 LINE",
"390 958 LINE",
"384 965 OFFCURVE",
"357 996 OFFCURVE",
"320 996 CURVE SMOOTH",
"281 996 OFFCURVE",
"265 970 OFFCURVE",
"265 950 CURVE SMOOTH",
"265 923 OFFCURVE",
"285 903 OFFCURVE",
"321 882 CURVE SMOOTH",
"487 786 LINE"
);
}
);
width = 795;
}
);
leftKerningGroup = A;
note = Agrave;
rightKerningGroup = A;
unicode = 00C0;
},
{
glyphname = Ahookabove;
lastChange = "2015-10-27 15:19:12 +0000";
layers = (
{
layerId = "0FC58CF8-AD3A-4320-9E57-2D2B1849830B";
name = Bold;
paths = (
{
closed = 1;
nodes = (
"256 0 LINE",
"256 18 LINE",
"227 28 OFFCURVE",
"202 38 OFFCURVE",
"174 42 CURVE",
"356 548 LINE",
"533 44 LINE",
"518 42 OFFCURVE",
"492 35 OFFCURVE",
"454 22 CURVE",
"454 0 LINE",
"788 0 LINE",
"788 20 LINE",
"761 29 OFFCURVE",
"734 37 OFFCURVE",
"710 43 CURVE",
"461 704 LINE",
"333 704 LINE",
"85 45 LINE",
"79 44 OFFCURVE",
"33 32 OFFCURVE",
"6 23 CURVE",
"6 0 LINE"
);
},
{
closed = 1;
nodes = (
"535 177 LINE",
"535 231 LINE",
"195 231 LINE",
"195 177 LINE"
);
},
{
closed = 1;
nodes = (
"443 784 LINE",
"453 855 LINE",
"507 860 OFFCURVE",
"552 880 OFFCURVE",
"552 944 CURVE SMOOTH",
"552 1014 OFFCURVE",
"486 1040 OFFCURVE",
"423 1040 CURVE SMOOTH",
"389 1040 OFFCURVE",
"356 1032 OFFCURVE",
"334 1021 CURVE",
"341 979 LINE",
"362 991 OFFCURVE",
"386 995 OFFCURVE",
"404 995 CURVE SMOOTH",
"446 995 OFFCURVE",
"467 971 OFFCURVE",
"467 945 CURVE SMOOTH",
"467 905 OFFCURVE",
"435 893 OFFCURVE",
"410 893 CURVE SMOOTH",
"368 893 LINE",
"373 784 LINE"
);
}
);
width = 795;
}
);
leftKerningGroup = A;
note = Ahookabove;
rightKerningGroup = A;
unicode = 1EA2;
},
{
glyphname = Amacron;
lastChange = "2015-10-27 15:19:11 +0000";
layers = (
{
layerId = "0FC58CF8-AD3A-4320-9E57-2D2B1849830B";
name = Bold;
paths = (
{
closed = 1;
nodes = (
"256 0 LINE",
"256 18 LINE",
"227 28 OFFCURVE",
"202 38 OFFCURVE",
"174 42 CURVE",
"356 548 LINE",
"533 44 LINE",
"518 42 OFFCURVE",
"492 35 OFFCURVE",
"454 22 CURVE",
"454 0 LINE",
"788 0 LINE",
"788 20 LINE",
"761 29 OFFCURVE",
"734 37 OFFCURVE",
"710 43 CURVE",
"461 704 LINE",
"333 704 LINE",
"85 45 LINE",
"79 44 OFFCURVE",
"33 32 OFFCURVE",
"6 23 CURVE",
"6 0 LINE"
);
},
{
closed = 1;
nodes = (
"535 177 LINE",
"535 231 LINE",
"195 231 LINE",
"195 177 LINE"
);
},
{
closed = 1;
nodes = (
"605 785 LINE",
"605 837 LINE",
"196 837 LINE",
"196 785 LINE"
);
}
);
width = 795;
}
);
leftKerningGroup = A;
note = Amacron;
rightKerningGroup = A;
unicode = 0100;
},
{
glyphname = Aogonek;
lastChange = "2015-10-27 15:19:12 +0000";
layers = (
{
layerId = "0FC58CF8-AD3A-4320-9E57-2D2B1849830B";
name = Bold;
paths = (
{
closed = 1;
nodes = (
"256 0 LINE",
"256 18 LINE",
"227 28 OFFCURVE",
"202 38 OFFCURVE",
"174 42 CURVE",
"356 548 LINE",
"533 44 LINE",
"518 42 OFFCURVE",
"492 35 OFFCURVE",
"454 22 CURVE",
"454 0 LINE",
"788 0 LINE",
"788 20 LINE",
"761 29 OFFCURVE",
"734 37 OFFCURVE",
"710 43 CURVE",
"461 704 LINE",
"333 704 LINE",
"85 45 LINE",
"79 44 OFFCURVE",
"33 32 OFFCURVE",
"6 23 CURVE",
"6 0 LINE"
);
},
{
closed = 1;
nodes = (
"535 177 LINE",
"535 231 LINE",
"195 231 LINE",
"195 177 LINE"
);
},
{
closed = 1;
nodes = (
"790 -212 OFFCURVE",
"837 -201 OFFCURVE",
"864 -183 CURVE",
"864 -113 LINE",
"837 -130 OFFCURVE",
"812 -136 OFFCURVE",
"793 -136 CURVE SMOOTH",
"755 -136 OFFCURVE",
"731 -114 OFFCURVE",
"731 -84 CURVE SMOOTH",
"731 -53 OFFCURVE",
"757 -18 OFFCURVE",
"779 0 CURVE",
"698 0 LINE",
"635 -18 OFFCURVE",
"600 -74 OFFCURVE",
"600 -119 CURVE SMOOTH",
"600 -177 OFFCURVE",
"653 -212 OFFCURVE",
"742 -212 CURVE SMOOTH"
);
}
);
width = 795;
}
);
leftKerningGroup = A;
note = Aogonek;
rightKerningGroup = A;
unicode = 0104;
},
{
glyphname = Aring;
lastChange = "2015-10-27 15:19:12 +0000";
layers = (
{
layerId = "0FC58CF8-AD3A-4320-9E57-2D2B1849830B";
name = Bold;
paths = (
{
closed = 1;
nodes = (
"256 0 LINE",
"256 18 LINE",
"227 28 OFFCURVE",
"202 38 OFFCURVE",
"174 42 CURVE",
"356 548 LINE",
"533 44 LINE",
"518 42 OFFCURVE",
"492 35 OFFCURVE",
"454 22 CURVE",
"454 0 LINE",
"788 0 LINE",
"788 20 LINE",
"761 29 OFFCURVE",
"734 37 OFFCURVE",
"710 43 CURVE",
"461 704 LINE",
"333 704 LINE",
"85 45 LINE",
"79 44 OFFCURVE",
"33 32 OFFCURVE",
"6 23 CURVE",
"6 0 LINE"
);
},
{
closed = 1;
nodes = (
"535 177 LINE",
"535 231 LINE",
"195 231 LINE",
"195 177 LINE"
);
},
{
closed = 1;
nodes = (
"464 747 OFFCURVE",
"509 790 OFFCURVE",
"509 853 CURVE SMOOTH",
"509 916 OFFCURVE",
"464 960 OFFCURVE",
"396 960 CURVE SMOOTH",
"327 960 OFFCURVE",
"282 916 OFFCURVE",
"282 853 CURVE SMOOTH",
"282 790 OFFCURVE",
"327 747 OFFCURVE",
"396 747 CURVE SMOOTH"
);
},
{
closed = 1;
nodes = (
"363 796 OFFCURVE",
"337 819 OFFCURVE",
"337 853 CURVE SMOOTH",
"337 887 OFFCURVE",
"363 910 OFFCURVE",
"396 910 CURVE SMOOTH",
"429 910 OFFCURVE",
"454 887 OFFCURVE",
"454 853 CURVE SMOOTH",
"454 819 OFFCURVE",
"429 796 OFFCURVE",
"396 796 CURVE SMOOTH"
);
}
);
width = 795;
}
);
leftKerningGroup = A;
note = Aring;
rightKerningGroup = A;
unicode = 00C5;
},
{
glyphname = Aringacute;
lastChange = "2015-10-27 15:19:12 +0000";
layers = (
{
layerId = "0FC58CF8-AD3A-4320-9E57-2D2B1849830B";
name = Bold;
paths = (
{
closed = 1;
nodes = (
"256 0 LINE",
"256 18 LINE",
"227 28 OFFCURVE",
"202 38 OFFCURVE",
"174 42 CURVE",
"356 548 LINE",
"533 44 LINE",
"518 42 OFFCURVE",
"492 35 OFFCURVE",
"454 22 CURVE",
"454 0 LINE",
"788 0 LINE",
"788 20 LINE",
"761 29 OFFCURVE",
"734 37 OFFCURVE",
"710 43 CURVE",
"461 704 LINE",
"333 704 LINE",
"85 45 LINE",
"79 44 OFFCURVE",
"33 32 OFFCURVE",
"6 23 CURVE",
"6 0 LINE"
);
},
{
closed = 1;
nodes = (
"535 177 LINE",
"535 231 LINE",
"195 231 LINE",
"195 177 LINE"
);
},
{
closed = 1;
nodes = (
"464 747 OFFCURVE",
"509 790 OFFCURVE",
"509 853 CURVE SMOOTH",
"509 916 OFFCURVE",
"464 960 OFFCURVE",
"396 960 CURVE SMOOTH",
"327 960 OFFCURVE",
"282 916 OFFCURVE",
"282 853 CURVE SMOOTH",
"282 790 OFFCURVE",
"327 747 OFFCURVE",
"396 747 CURVE SMOOTH"
);
},
{
closed = 1;
nodes = (
"363 796 OFFCURVE",
"337 819 OFFCURVE",
"337 853 CURVE SMOOTH",
"337 887 OFFCURVE",
"363 910 OFFCURVE",
"396 910 CURVE SMOOTH",
"429 910 OFFCURVE",
"454 887 OFFCURVE",
"454 853 CURVE SMOOTH",
"454 819 OFFCURVE",
"429 796 OFFCURVE",
"396 796 CURVE SMOOTH"
);
},
{
closed = 1;
nodes = (
"473 1078 LINE SMOOTH",
"508 1099 OFFCURVE",
"528 1119 OFFCURVE",
"528 1146 CURVE SMOOTH",
"528 1166 OFFCURVE",
"513 1192 OFFCURVE",
"474 1192 CURVE SMOOTH",
"440 1192 OFFCURVE",
"409 1160 OFFCURVE",
"403 1154 CURVE",
"279 1021 LINE",
"307 982 LINE"
);
}
);
width = 795;
}
);
leftKerningGroup = A;
note = Aringacute;
rightKerningGroup = A;
unicode = 01FA;
},
{
glyphname = Atilde;
lastChange = "2015-10-27 15:19:12 +0000";
layers = (
{
layerId = "0FC58CF8-AD3A-4320-9E57-2D2B1849830B";
name = Bold;
paths = (
{
closed = 1;
nodes = (
"256 0 LINE",
"256 18 LINE",
"227 28 OFFCURVE",
"202 38 OFFCURVE",
"174 42 CURVE",
"356 548 LINE",
"533 44 LINE",
"518 42 OFFCURVE",
"492 35 OFFCURVE",
"454 22 CURVE",
"454 0 LINE",
"788 0 LINE",
"788 20 LINE",
"761 29 OFFCURVE",
"734 37 OFFCURVE",
"710 43 CURVE",
"461 704 LINE",
"333 704 LINE",
"85 45 LINE",
"79 44 OFFCURVE",
"33 32 OFFCURVE",
"6 23 CURVE",
"6 0 LINE"
);
},
{
closed = 1;
nodes = (
"535 177 LINE",
"535 231 LINE",
"195 231 LINE",
"195 177 LINE"
);
},
{
closed = 1;
nodes = (
"261 786 LINE",
"267 817 OFFCURVE",
"286 837 OFFCURVE",
"315 837 CURVE SMOOTH",
"350 837 OFFCURVE",
"415 786 OFFCURVE",
"476 786 CURVE SMOOTH",
"560 786 OFFCURVE",
"598 836 OFFCURVE",
"605 910 CURVE",
"526 910 LINE",
"515 863 OFFCURVE",
"492 857 OFFCURVE",
"468 857 CURVE SMOOTH",
"427 857 OFFCURVE",
"388 908 OFFCURVE",
"311 908 CURVE SMOOTH",
"238 908 OFFCURVE",
"193 866 OFFCURVE",
"181 786 CURVE"
);
}
);
width = 795;
}
);
leftKerningGroup = A;
note = Atilde;
rightKerningGroup = A;
unicode = 00C3;
},
{
glyphname = AE;
lastChange = "2015-10-27 15:19:11 +0000";
layers = (
{
layerId = "0FC58CF8-AD3A-4320-9E57-2D2B1849830B";
name = Bold;
paths = (
{
closed = 1;
nodes = (
"265 0 LINE",
"265 18 LINE",
"237 28 OFFCURVE",
"206 38 OFFCURVE",
"178 42 CURVE",
"254 177 LINE",
"484 177 LINE",
"484 42 LINE",
"458 38 OFFCURVE",
"426 30 OFFCURVE",
"397 20 CURVE",
"397 0 LINE",
"989 0 LINE",
"1009 185 LINE",
"971 185 LINE",
"952 164 OFFCURVE",
"919 92 OFFCURVE",
"916 54 CURVE",
"660 54 LINE",
"660 332 LINE",
"823 332 LINE",
"825 315 OFFCURVE",
"834 276 OFFCURVE",
"844 244 CURVE",
"872 244 LINE",
"872 473 LINE",
"844 473 LINE",
"833 444 OFFCURVE",
"826 404 OFFCURVE",
"823 386 CURVE",
"660 386 LINE",
"660 645 LINE",
"909 645 LINE",
"911 613 OFFCURVE",
"937 536 OFFCURVE",
"952 513 CURVE",
"990 513 LINE",
"990 700 LINE",
"396 700 LINE",
"396 680 LINE",
"413 673 OFFCURVE",
"432 668 OFFCURVE",
"449 664 CURVE",
"84 44 LINE",
"59 38 OFFCURVE",
"35 30 OFFCURVE",
"6 20 CURVE",
"6 0 LINE"
);
},
{
closed = 1;
nodes = (
"484 576 LINE",
"484 231 LINE",
"286 231 LINE"
);
}
);
width = 1046;
}
);
leftKerningGroup = A;
note = AE;
unicode = 00C6;
},
{
glyphname = AEacute;
lastChange = "2015-10-27 15:19:12 +0000";
layers = (
{
layerId = "0FC58CF8-AD3A-4320-9E57-2D2B1849830B";
name = Bold;
paths = (
{
closed = 1;
nodes = (
"265 0 LINE",
"265 18 LINE",
"237 28 OFFCURVE",
"206 38 OFFCURVE",
"178 42 CURVE",
"254 177 LINE",
"484 177 LINE",
"484 42 LINE",
"458 38 OFFCURVE",
"426 30 OFFCURVE",
"397 20 CURVE",
"397 0 LINE",
"989 0 LINE",
"1009 185 LINE",
"971 185 LINE",
"952 164 OFFCURVE",
"919 92 OFFCURVE",
"916 54 CURVE",
"660 54 LINE",
"660 332 LINE",
"823 332 LINE",
"825 315 OFFCURVE",
"834 276 OFFCURVE",
"844 244 CURVE",
"872 244 LINE",
"872 473 LINE",
"844 473 LINE",
"833 444 OFFCURVE",
"826 404 OFFCURVE",
"823 386 CURVE",
"660 386 LINE",
"660 645 LINE",
"909 645 LINE",
"911 613 OFFCURVE",
"937 536 OFFCURVE",
"952 513 CURVE",
"990 513 LINE",
"990 700 LINE",
"396 700 LINE",
"396 680 LINE",
"413 673 OFFCURVE",
"432 668 OFFCURVE",
"449 664 CURVE",
"84 44 LINE",
"59 38 OFFCURVE",
"35 30 OFFCURVE",
"6 20 CURVE",
"6 0 LINE"
);
},
{
closed = 1;
nodes = (
"484 576 LINE",
"484 231 LINE",
"286 231 LINE"
);
},
{
closed = 1;
nodes = (
"780 882 LINE SMOOTH",
"815 903 OFFCURVE",
"835 923 OFFCURVE",
"835 950 CURVE SMOOTH",
"835 970 OFFCURVE",
"820 996 OFFCURVE",
"781 996 CURVE SMOOTH",
"747 996 OFFCURVE",
"716 964 OFFCURVE",
"710 958 CURVE",
"586 825 LINE",
"614 786 LINE"
);
}
);
width = 1046;
}
);
leftKerningGroup = A;
note = AEacute;
unicode = 01FC;
},
{
glyphname = B;
lastChange = "2015-10-27 15:19:11 +0000";
layers = (
{
layerId = "0FC58CF8-AD3A-4320-9E57-2D2B1849830B";
name = Bold;
paths = (
{
closed = 1;
nodes = (
"389 0 LINE SMOOTH",
"572 0 OFFCURVE",
"637 69 OFFCURVE",
"637 195 CURVE SMOOTH",
"637 260 OFFCURVE",
"596 340 OFFCURVE",
"481 367 CURVE",
"481 373 LINE",
"568 400 OFFCURVE",
"608 465 OFFCURVE",
"608 537 CURVE SMOOTH",
"608 642 OFFCURVE",
"543 700 OFFCURVE",
"358 700 CURVE SMOOTH",
"18 700 LINE",
"18 679 LINE",
"50 668 OFFCURVE",
"75 661 OFFCURVE",
"98 657 CURVE",
"98 45 LINE",
"84 43 OFFCURVE",
"67 38 OFFCURVE",
"18 19 CURVE",
"18 0 LINE"
);
},
{
closed = 1;
nodes = (
"276 341 LINE",
"351 341 LINE SMOOTH",
"420 341 OFFCURVE",
"459 294 OFFCURVE",
"459 202 CURVE SMOOTH",
"459 107 OFFCURVE",
"430 54 OFFCURVE",
"364 54 CURVE SMOOTH",
"276 54 LINE"
);
},
{
closed = 1;
nodes = (
"276 645 LINE",
"333 645 LINE SMOOTH",
"401 645 OFFCURVE",
"429 608 OFFCURVE",
"429 527 CURVE SMOOTH",
"429 447 OFFCURVE",
"396 394 OFFCURVE",
"329 394 CURVE SMOOTH",
"276 394 LINE"
);
}
);
width = 656;
}
);
note = B;
unicode = 0042;
},
{
glyphname = C;
lastChange = "2015-10-27 15:19:12 +0000";
layers = (
{
layerId = "0FC58CF8-AD3A-4320-9E57-2D2B1849830B";
name = Bold;
paths = (
{
closed = 1;
nodes = (
"492 -10 OFFCURVE",
"580 17 OFFCURVE",
"635 64 CURVE",
"610 112 LINE",
"545 64 OFFCURVE",
"472 47 OFFCURVE",
"418 47 CURVE SMOOTH",
"289 47 OFFCURVE",
"218 159 OFFCURVE",
"218 350 CURVE SMOOTH",
"218 539 OFFCURVE",
"303 653 OFFCURVE",
"435 653 CURVE SMOOTH",
"478 653 OFFCURVE",
"518 643 OFFCURVE",
"557 614 CURVE",
"561 565 OFFCURVE",
"571 512 OFFCURVE",
"583 474 CURVE",
"625 474 LINE",
"640 628 LINE",
"586 679 OFFCURVE",
"514 710 OFFCURVE",
"390 710 CURVE SMOOTH",
"158 710 OFFCURVE",
"36 572 OFFCURVE",
"36 350 CURVE SMOOTH",
"36 127 OFFCURVE",
"156 -10 OFFCURVE",
"395 -10 CURVE SMOOTH"
);
}
);
width = 679;
}
);
leftKerningGroup = C;
note = C;
unicode = 0043;
},
{
glyphname = Cacute;
lastChange = "2015-10-27 15:19:11 +0000";
layers = (
{
layerId = "0FC58CF8-AD3A-4320-9E57-2D2B1849830B";
name = Bold;
paths = (
{
closed = 1;
nodes = (
"492 -10 OFFCURVE",
"580 17 OFFCURVE",
"635 64 CURVE",
"610 112 LINE",
"545 64 OFFCURVE",
"472 47 OFFCURVE",
"418 47 CURVE SMOOTH",
"289 47 OFFCURVE",
"218 159 OFFCURVE",
"218 350 CURVE SMOOTH",
"218 539 OFFCURVE",
"303 653 OFFCURVE",
"435 653 CURVE SMOOTH",
"478 653 OFFCURVE",
"518 643 OFFCURVE",
"557 614 CURVE",
"561 565 OFFCURVE",
"571 512 OFFCURVE",
"583 474 CURVE",
"625 474 LINE",
"640 628 LINE",
"586 679 OFFCURVE",
"514 710 OFFCURVE",
"390 710 CURVE SMOOTH",
"158 710 OFFCURVE",
"36 572 OFFCURVE",
"36 350 CURVE SMOOTH",
"36 127 OFFCURVE",
"156 -10 OFFCURVE",
"395 -10 CURVE SMOOTH"
);
},
{
closed = 1;
nodes = (
"515 882 LINE SMOOTH",
"550 903 OFFCURVE",
"570 923 OFFCURVE",
"570 950 CURVE SMOOTH",
"570 970 OFFCURVE",
"555 996 OFFCURVE",
"516 996 CURVE SMOOTH",
"482 996 OFFCURVE",
"451 964 OFFCURVE",
"445 958 CURVE",
"321 825 LINE",
"349 786 LINE"
);
}
);
width = 679;
}
);
leftKerningGroup = C;
note = Cacute;
unicode = 0106;
},
{
glyphname = Ccaron;
lastChange = "2015-10-27 15:19:12 +0000";
layers = (
{
layerId = "0FC58CF8-AD3A-4320-9E57-2D2B1849830B";
name = Bold;
paths = (
{
closed = 1;
nodes = (
"492 -10 OFFCURVE",
"580 17 OFFCURVE",
"635 64 CURVE",
"610 112 LINE",
"545 64 OFFCURVE",
"472 47 OFFCURVE",
"418 47 CURVE SMOOTH",
"289 47 OFFCURVE",
"218 159 OFFCURVE",
"218 350 CURVE SMOOTH",
"218 539 OFFCURVE",
"303 653 OFFCURVE",
"435 653 CURVE SMOOTH",
"478 653 OFFCURVE",
"518 643 OFFCURVE",
"557 614 CURVE",
"561 565 OFFCURVE",
"571 512 OFFCURVE",
"583 474 CURVE",
"625 474 LINE",
"640 628 LINE",
"586 679 OFFCURVE",
"514 710 OFFCURVE",
"390 710 CURVE SMOOTH",
"158 710 OFFCURVE",
"36 572 OFFCURVE",
"36 350 CURVE SMOOTH",
"36 127 OFFCURVE",
"156 -10 OFFCURVE",
"395 -10 CURVE SMOOTH"
);
},
{
closed = 1;
nodes = (
"459 786 LINE",
"481 820 OFFCURVE",
"576 906 OFFCURVE",
"622 935 CURVE",
"551 985 LINE",
"508 952 OFFCURVE",
"443 887 OFFCURVE",
"420 850 CURVE",
"416 850 LINE",
"394 887 OFFCURVE",
"328 952 OFFCURVE",
"285 985 CURVE",
"214 935 LINE",
"260 906 OFFCURVE",
"355 820 OFFCURVE",
"377 786 CURVE"
);
}
);
width = 679;
}
);
leftKerningGroup = C;
note = Ccaron;
unicode = 010C;
},
{
glyphname = Ccedilla;
lastChange = "2015-10-27 15:19:12 +0000";
layers = (
{
layerId = "0FC58CF8-AD3A-4320-9E57-2D2B1849830B";
name = Bold;
paths = (
{
closed = 1;
nodes = (
"492 -10 OFFCURVE",
"580 17 OFFCURVE",
"635 64 CURVE",
"610 112 LINE",
"545 64 OFFCURVE",
"472 47 OFFCURVE",
"418 47 CURVE SMOOTH",
"289 47 OFFCURVE",
"218 159 OFFCURVE",
"218 350 CURVE SMOOTH",
"218 539 OFFCURVE",
"303 653 OFFCURVE",
"435 653 CURVE SMOOTH",
"478 653 OFFCURVE",
"518 643 OFFCURVE",
"557 614 CURVE",
"561 565 OFFCURVE",
"571 512 OFFCURVE",
"583 474 CURVE",
"625 474 LINE",
"640 628 LINE",
"586 679 OFFCURVE",
"514 710 OFFCURVE",
"390 710 CURVE SMOOTH",
"158 710 OFFCURVE",
"36 572 OFFCURVE",
"36 350 CURVE SMOOTH",
"36 127 OFFCURVE",
"156 -10 OFFCURVE",
"395 -10 CURVE SMOOTH"
);
},
{
closed = 1;
nodes = (
"433 -270 OFFCURVE",
"503 -232 OFFCURVE",
"503 -157 CURVE SMOOTH",
"503 -114 OFFCURVE",
"469 -66 OFFCURVE",
"379 -66 CURVE",
"422 21 LINE",
"349 21 LINE",
"298 -78 LINE",
"325 -113 LINE",
"332 -112 OFFCURVE",
"340 -112 OFFCURVE",
"348 -112 CURVE SMOOTH",
"380 -112 OFFCURVE",
"419 -121 OFFCURVE",
"419 -157 CURVE SMOOTH",
"419 -200 OFFCURVE",
"379 -213 OFFCURVE",
"335 -213 CURVE SMOOTH",
"304 -213 OFFCURVE",
"272 -205 OFFCURVE",
"251 -192 CURVE",
"225 -235 LINE",
"257 -257 OFFCURVE",
"308 -270 OFFCURVE",
"349 -270 CURVE SMOOTH"
);
}
);
width = 679;
}
);
leftKerningGroup = C;
note = Ccedilla;
unicode = 00C7;
},
{
glyphname = Ccircumflex;
lastChange = "2015-10-27 15:19:12 +0000";
layers = (
{
layerId = "0FC58CF8-AD3A-4320-9E57-2D2B1849830B";
name = Bold;
paths = (
{
closed = 1;
nodes = (
"492 -10 OFFCURVE",
"580 17 OFFCURVE",
"635 64 CURVE",
"610 112 LINE",
"545 64 OFFCURVE",
"472 47 OFFCURVE",
"418 47 CURVE SMOOTH",
"289 47 OFFCURVE",
"218 159 OFFCURVE",
"218 350 CURVE SMOOTH",
"218 539 OFFCURVE",
"303 653 OFFCURVE",
"435 653 CURVE SMOOTH",
"478 653 OFFCURVE",
"518 643 OFFCURVE",
"557 614 CURVE",
"561 565 OFFCURVE",
"571 512 OFFCURVE",
"583 474 CURVE",
"625 474 LINE",
"640 628 LINE",
"586 679 OFFCURVE",
"514 710 OFFCURVE",
"390 710 CURVE SMOOTH",
"158 710 OFFCURVE",
"36 572 OFFCURVE",
"36 350 CURVE SMOOTH",
"36 127 OFFCURVE",
"156 -10 OFFCURVE",
"395 -10 CURVE SMOOTH"
);
},
{
closed = 1;
nodes = (
"316 818 OFFCURVE",
"382 883 OFFCURVE",
"404 920 CURVE",
"408 920 LINE",
"431 883 OFFCURVE",
"496 818 OFFCURVE",
"539 784 CURVE",
"610 835 LINE",
"564 863 OFFCURVE",
"469 950 OFFCURVE",
"447 984 CURVE",
"365 984 LINE",
"343 950 OFFCURVE",
"248 863 OFFCURVE",
"202 835 CURVE",
"273 784 LINE"
);
}
);
width = 679;
}
);
leftKerningGroup = C;
note = Ccircumflex;
unicode = 0108;
},
{
glyphname = Cdotaccent;
lastChange = "2015-10-27 15:19:12 +0000";
layers = (
{
layerId = "0FC58CF8-AD3A-4320-9E57-2D2B1849830B";
name = Bold;
paths = (
{
closed = 1;
nodes = (
"492 -10 OFFCURVE",
"580 17 OFFCURVE",
"635 64 CURVE",
"610 112 LINE",
"545 64 OFFCURVE",
"472 47 OFFCURVE",
"418 47 CURVE SMOOTH",
"289 47 OFFCURVE",
"218 159 OFFCURVE",
"218 350 CURVE SMOOTH",
"218 539 OFFCURVE",
"303 653 OFFCURVE",
"435 653 CURVE SMOOTH",
"478 653 OFFCURVE",
"518 643 OFFCURVE",
"557 614 CURVE",
"561 565 OFFCURVE",
"571 512 OFFCURVE",
"583 474 CURVE",
"625 474 LINE",
"640 628 LINE",
"586 679 OFFCURVE",
"514 710 OFFCURVE",
"390 710 CURVE SMOOTH",
"158 710 OFFCURVE",
"36 572 OFFCURVE",
"36 350 CURVE SMOOTH",
"36 127 OFFCURVE",
"156 -10 OFFCURVE",
"395 -10 CURVE SMOOTH"
);
},
{
closed = 1;
nodes = (
"464 785 OFFCURVE",
"490 815 OFFCURVE",
"490 852 CURVE SMOOTH",
"490 890 OFFCURVE",
"464 920 OFFCURVE",
"423 920 CURVE SMOOTH",
"381 920 OFFCURVE",
"356 890 OFFCURVE",
"356 852 CURVE SMOOTH",
"356 815 OFFCURVE",
"381 785 OFFCURVE",
"423 785 CURVE SMOOTH"
);
}
);
width = 679;
}
);
leftKerningGroup = C;
note = Cdotaccent;
unicode = 010A;
},
{
glyphname = D;
lastChange = "2015-10-27 15:19:12 +0000";
layers = (
{
layerId = "0FC58CF8-AD3A-4320-9E57-2D2B1849830B";
name = Bold;
paths = (
{
closed = 1;
nodes = (
"369 0 LINE SMOOTH",
"604 0 OFFCURVE",
"698 127 OFFCURVE",
"698 350 CURVE SMOOTH",
"698 573 OFFCURVE",
"605 700 OFFCURVE",
"370 700 CURVE SMOOTH",
"27 700 LINE",
"27 680 LINE",
"55 671 OFFCURVE",
"81 662 OFFCURVE",
"105 657 CURVE",
"105 44 LINE",
"90 42 OFFCURVE",
"57 31 OFFCURVE",
"27 21 CURVE",
"27 0 LINE"
);
},
{
closed = 1;
nodes = (
"283 645 LINE",
"369 645 LINE SMOOTH",
"480 645 OFFCURVE",
"516 526 OFFCURVE",
"516 350 CURVE SMOOTH",
"516 173 OFFCURVE",
"480 54 OFFCURVE",
"367 54 CURVE SMOOTH",
"283 54 LINE"
);
}
);
width = 734;
}
);
note = D;
rightKerningGroup = D;
unicode = 0044;
},
{
glyphname = Eth;
lastChange = "2015-10-27 15:19:12 +0000";
layers = (
{
layerId = "0FC58CF8-AD3A-4320-9E57-2D2B1849830B";
name = Bold;
paths = (
{
closed = 1;
nodes = (
"367 0 LINE SMOOTH",
"602 0 OFFCURVE",
"696 127 OFFCURVE",
"696 350 CURVE SMOOTH",
"696 573 OFFCURVE",
"603 700 OFFCURVE",
"368 700 CURVE SMOOTH",
"27 700 LINE",
"27 680 LINE",
"55 671 OFFCURVE",
"81 662 OFFCURVE",
"105 657 CURVE",
"105 44 LINE",
"90 42 OFFCURVE",
"57 31 OFFCURVE",
"27 21 CURVE",
"27 0 LINE"
);
},
{
closed = 1;
nodes = (
"418 307 LINE",
"418 360 LINE",
"43 360 LINE",
"43 307 LINE"
);
},
{
closed = 1;
nodes = (
"281 645 LINE",
"367 645 LINE SMOOTH",
"478 645 OFFCURVE",
"514 526 OFFCURVE",
"514 350 CURVE SMOOTH",
"514 173 OFFCURVE",
"478 54 OFFCURVE",
"365 54 CURVE SMOOTH",
"281 54 LINE"
);
}
);
width = 732;
}
);
note = Eth;
rightKerningGroup = D;
unicode = 00D0;
},
{
glyphname = Dcaron;
lastChange = "2015-10-27 15:19:11 +0000";
layers = (
{
layerId = "0FC58CF8-AD3A-4320-9E57-2D2B1849830B";
name = Bold;
paths = (
{
closed = 1;
nodes = (
"369 0 LINE SMOOTH",
"604 0 OFFCURVE",
"698 127 OFFCURVE",
"698 350 CURVE SMOOTH",
"698 573 OFFCURVE",
"605 700 OFFCURVE",
"370 700 CURVE SMOOTH",
"27 700 LINE",
"27 680 LINE",
"55 671 OFFCURVE",
"81 662 OFFCURVE",
"105 657 CURVE",
"105 44 LINE",
"90 42 OFFCURVE",
"57 31 OFFCURVE",
"27 21 CURVE",
"27 0 LINE"
);
},
{
closed = 1;
nodes = (
"283 645 LINE",
"369 645 LINE SMOOTH",
"480 645 OFFCURVE",
"516 526 OFFCURVE",
"516 350 CURVE SMOOTH",
"516 173 OFFCURVE",
"480 54 OFFCURVE",
"367 54 CURVE SMOOTH",
"283 54 LINE"
);
},
{
closed = 1;
nodes = (
"391 786 LINE",
"413 820 OFFCURVE",
"508 906 OFFCURVE",
"554 935 CURVE",
"483 985 LINE",
"440 952 OFFCURVE",
"375 887 OFFCURVE",
"352 850 CURVE",
"348 850 LINE",
"326 887 OFFCURVE",
"260 952 OFFCURVE",
"217 985 CURVE",
"146 935 LINE",
"192 906 OFFCURVE",
"287 820 OFFCURVE",
"309 786 CURVE"
);
}
);
width = 734;
}
);
note = Dcaron;
rightKerningGroup = D;
unicode = 010E;
},
{
glyphname = Dcroat;
lastChange = "2015-10-27 15:19:12 +0000";
layers = (
{
layerId = "0FC58CF8-AD3A-4320-9E57-2D2B1849830B";
name = Bold;
paths = (
{
closed = 1;
nodes = (
"369 0 LINE SMOOTH",
"604 0 OFFCURVE",
"698 127 OFFCURVE",
"698 350 CURVE SMOOTH",
"698 573 OFFCURVE",
"605 700 OFFCURVE",
"370 700 CURVE SMOOTH",
"27 700 LINE",
"27 680 LINE",
"55 671 OFFCURVE",
"81 662 OFFCURVE",
"105 657 CURVE",
"105 44 LINE",
"90 42 OFFCURVE",
"57 31 OFFCURVE",
"27 21 CURVE",
"27 0 LINE"
);
},
{
closed = 1;
nodes = (
"420 307 LINE",
"420 360 LINE",
"43 360 LINE",
"43 307 LINE"
);
},
{
closed = 1;
nodes = (
"283 645 LINE",
"369 645 LINE SMOOTH",
"480 645 OFFCURVE",
"516 526 OFFCURVE",
"516 350 CURVE SMOOTH",
"516 173 OFFCURVE",
"480 54 OFFCURVE",
"367 54 CURVE SMOOTH",
"283 54 LINE"
);
}
);
width = 734;
}
);
note = Dcroat;
rightKerningGroup = D;
unicode = 0110;
},
{
glyphname = Ddotbelow;
lastChange = "2015-10-27 15:19:11 +0000";
layers = (
{
layerId = "0FC58CF8-AD3A-4320-9E57-2D2B1849830B";
name = Bold;
paths = (
{
closed = 1;
nodes = (
"369 0 LINE SMOOTH",
"604 0 OFFCURVE",
"698 127 OFFCURVE",
"698 350 CURVE SMOOTH",
"698 573 OFFCURVE",
"605 700 OFFCURVE",
"370 700 CURVE SMOOTH",
"27 700 LINE",
"27 680 LINE",
"55 671 OFFCURVE",
"81 662 OFFCURVE",
"105 657 CURVE",
"105 44 LINE",
"90 42 OFFCURVE",
"57 31 OFFCURVE",
"27 21 CURVE",
"27 0 LINE"
);
},
{
closed = 1;
nodes = (
"404 -187 OFFCURVE",
"430 -157 OFFCURVE",
"430 -120 CURVE SMOOTH",
"430 -82 OFFCURVE",
"404 -52 OFFCURVE",
"362 -52 CURVE SMOOTH",
"321 -52 OFFCURVE",
"296 -82 OFFCURVE",
"296 -120 CURVE SMOOTH",
"296 -157 OFFCURVE",
"321 -187 OFFCURVE",
"362 -187 CURVE SMOOTH"
);
},
{
closed = 1;
nodes = (
"283 645 LINE",
"369 645 LINE SMOOTH",
"480 645 OFFCURVE",
"516 526 OFFCURVE",
"516 350 CURVE SMOOTH",
"516 173 OFFCURVE",
"480 54 OFFCURVE",
"367 54 CURVE SMOOTH",
"283 54 LINE"
);
}
);
width = 734;
}
);
note = Ddotbelow;
rightKerningGroup = D;
unicode = 1E0C;
},
{
glyphname = Dlinebelow;
lastChange = "2015-10-27 15:19:12 +0000";
layers = (
{
layerId = "0FC58CF8-AD3A-4320-9E57-2D2B1849830B";
name = Bold;
paths = (
{
closed = 1;
nodes = (
"369 0 LINE SMOOTH",
"604 0 OFFCURVE",
"698 127 OFFCURVE",
"698 350 CURVE SMOOTH",
"698 573 OFFCURVE",
"605 700 OFFCURVE",
"370 700 CURVE SMOOTH",
"27 700 LINE",
"27 680 LINE",
"55 671 OFFCURVE",
"81 662 OFFCURVE",
"105 657 CURVE",
"105 44 LINE",
"90 42 OFFCURVE",
"57 31 OFFCURVE",
"27 21 CURVE",
"27 0 LINE"
);
},
{
closed = 1;
nodes = (
"564 -111 LINE",
"564 -58 LINE",
"155 -58 LINE",
"155 -111 LINE"
);
},
{
closed = 1;
nodes = (
"283 645 LINE",
"369 645 LINE SMOOTH",
"480 645 OFFCURVE",
"516 526 OFFCURVE",
"516 350 CURVE SMOOTH",
"516 173 OFFCURVE",
"480 54 OFFCURVE",
"367 54 CURVE SMOOTH",
"283 54 LINE"
);
}
);
width = 734;
}
);
note = Dlinebelow;
rightKerningGroup = D;
unicode = 1E0E;
},
{
glyphname = E;
lastChange = "2015-10-27 15:19:11 +0000";
layers = (
{
layerId = "0FC58CF8-AD3A-4320-9E57-2D2B1849830B";
name = Bold;
paths = (
{
closed = 1;
nodes = (
"619 0 LINE",
"639 185 LINE",
"601 185 LINE",
"583 164 OFFCURVE",
"549 92 OFFCURVE",
"546 54 CURVE",
"292 54 LINE",
"292 645 LINE",
"539 645 LINE",
"541 613 OFFCURVE",
"567 536 OFFCURVE",
"582 513 CURVE",
"620 513 LINE",
"620 700 LINE",
"27 700 LINE",
"27 680 LINE",
"57 669 OFFCURVE",
"90 661 OFFCURVE",
"114 657 CURVE",
"114 42 LINE",
"90 38 OFFCURVE",
"56 30 OFFCURVE",
"27 20 CURVE",
"27 0 LINE"
);
},
{
closed = 1;
nodes = (
"503 241 LINE",
"503 470 LINE",
"475 470 LINE",
"463 440 OFFCURVE",
"456 401 OFFCURVE",
"453 383 CURVE",
"214 383 LINE",
"214 328 LINE",
"453 328 LINE",
"455 311 OFFCURVE",
"464 272 OFFCURVE",
"475 241 CURVE"
);
}
);
width = 676;
}
);
note = E;
unicode = 0045;
},
{
glyphname = Eacute;
lastChange = "2015-10-27 15:19:12 +0000";
layers = (
{
layerId = "0FC58CF8-AD3A-4320-9E57-2D2B1849830B";
name = Bold;
paths = (
{
closed = 1;
nodes = (
"619 0 LINE",
"639 185 LINE",
"601 185 LINE",
"583 164 OFFCURVE",
"549 92 OFFCURVE",
"546 54 CURVE",
"292 54 LINE",
"292 645 LINE",
"539 645 LINE",
"541 613 OFFCURVE",
"567 536 OFFCURVE",
"582 513 CURVE",
"620 513 LINE",
"620 700 LINE",
"27 700 LINE",
"27 680 LINE",
"57 669 OFFCURVE",
"90 661 OFFCURVE",
"114 657 CURVE",
"114 42 LINE",
"90 38 OFFCURVE",
"56 30 OFFCURVE",
"27 20 CURVE",
"27 0 LINE"
);
},
{
closed = 1;
nodes = (
"503 241 LINE",
"503 470 LINE",
"475 470 LINE",
"463 440 OFFCURVE",
"456 401 OFFCURVE",
"453 383 CURVE",
"214 383 LINE",
"214 328 LINE",
"453 328 LINE",
"455 311 OFFCURVE",
"464 272 OFFCURVE",
"475 241 CURVE"
);
},
{
closed = 1;
nodes = (
"457 882 LINE SMOOTH",
"492 903 OFFCURVE",
"512 923 OFFCURVE",
"512 950 CURVE SMOOTH",
"512 970 OFFCURVE",
"497 996 OFFCURVE",
"458 996 CURVE SMOOTH",
"424 996 OFFCURVE",
"393 964 OFFCURVE",
"387 958 CURVE",
"263 825 LINE",
"291 786 LINE"
);
}
);
width = 676;
}
);
note = Eacute;
unicode = 00C9;
},
{
glyphname = Ebreve;
lastChange = "2015-10-27 15:19:12 +0000";
layers = (
{
layerId = "0FC58CF8-AD3A-4320-9E57-2D2B1849830B";
name = Bold;
paths = (
{
closed = 1;
nodes = (
"619 0 LINE",
"639 185 LINE",
"601 185 LINE",
"583 164 OFFCURVE",
"549 92 OFFCURVE",
"546 54 CURVE",
"292 54 LINE",
"292 645 LINE",
"539 645 LINE",
"541 613 OFFCURVE",
"567 536 OFFCURVE",
"582 513 CURVE",
"620 513 LINE",
"620 700 LINE",
"27 700 LINE",
"27 680 LINE",
"57 669 OFFCURVE",
"90 661 OFFCURVE",
"114 657 CURVE",
"114 42 LINE",
"90 38 OFFCURVE",
"56 30 OFFCURVE",
"27 20 CURVE",
"27 0 LINE"
);
},
{
closed = 1;
nodes = (
"503 241 LINE",
"503 470 LINE",
"475 470 LINE",
"463 440 OFFCURVE",
"456 401 OFFCURVE",
"453 383 CURVE",
"214 383 LINE",
"214 328 LINE",
"453 328 LINE",
"455 311 OFFCURVE",
"464 272 OFFCURVE",
"475 241 CURVE"
);
},
{
closed = 1;
nodes = (
"489 784 OFFCURVE",
"560 828 OFFCURVE",
"576 921 CURVE",
"480 921 LINE",
"473 849 OFFCURVE",
"428 840 OFFCURVE",
"387 840 CURVE SMOOTH",
"346 840 OFFCURVE",
"300 849 OFFCURVE",
"293 921 CURVE",
"197 921 LINE",
"214 828 OFFCURVE",
"284 784 OFFCURVE",
"387 784 CURVE SMOOTH"
);
}
);
width = 676;
}
);
note = Ebreve;
unicode = 0114;
},
{
glyphname = Ecaron;
lastChange = "2015-10-27 15:19:12 +0000";
layers = (
{
layerId = "0FC58CF8-AD3A-4320-9E57-2D2B1849830B";
name = Bold;
paths = (
{
closed = 1;
nodes = (
"619 0 LINE",
"639 185 LINE",
"601 185 LINE",
"583 164 OFFCURVE",
"549 92 OFFCURVE",
"546 54 CURVE",
"292 54 LINE",
"292 645 LINE",
"539 645 LINE",
"541 613 OFFCURVE",
"567 536 OFFCURVE",
"582 513 CURVE",
"620 513 LINE",
"620 700 LINE",
"27 700 LINE",
"27 680 LINE",
"57 669 OFFCURVE",
"90 661 OFFCURVE",
"114 657 CURVE",
"114 42 LINE",
"90 38 OFFCURVE",
"56 30 OFFCURVE",
"27 20 CURVE",
"27 0 LINE"
);
},
{
closed = 1;
nodes = (
"503 241 LINE",
"503 470 LINE",
"475 470 LINE",
"463 440 OFFCURVE",
"456 401 OFFCURVE",
"453 383 CURVE",
"214 383 LINE",
"214 328 LINE",
"453 328 LINE",
"455 311 OFFCURVE",
"464 272 OFFCURVE",
"475 241 CURVE"
);
},
{
closed = 1;
nodes = (
"424 786 LINE",
"446 820 OFFCURVE",
"541 906 OFFCURVE",
"587 935 CURVE",
"516 985 LINE",
"473 952 OFFCURVE",
"408 887 OFFCURVE",
"385 850 CURVE",
"381 850 LINE",
"359 887 OFFCURVE",
"293 952 OFFCURVE",
"250 985 CURVE",
"179 935 LINE",
"225 906 OFFCURVE",
"320 820 OFFCURVE",
"342 786 CURVE"
);
}
);
width = 676;
}
);
note = Ecaron;
unicode = 011A;
},
{
glyphname = Ecircumflex;
lastChange = "2015-10-27 15:19:12 +0000";
layers = (
{
layerId = "0FC58CF8-AD3A-4320-9E57-2D2B1849830B";
name = Bold;
paths = (
{
closed = 1;
nodes = (
"619 0 LINE",
"639 185 LINE",
"601 185 LINE",
"583 164 OFFCURVE",
"549 92 OFFCURVE",
"546 54 CURVE",
"292 54 LINE",
"292 645 LINE",
"539 645 LINE",
"541 613 OFFCURVE",
"567 536 OFFCURVE",
"582 513 CURVE",
"620 513 LINE",
"620 700 LINE",
"27 700 LINE",
"27 680 LINE",
"57 669 OFFCURVE",
"90 661 OFFCURVE",
"114 657 CURVE",
"114 42 LINE",
"90 38 OFFCURVE",
"56 30 OFFCURVE",
"27 20 CURVE",
"27 0 LINE"
);
},
{
closed = 1;
nodes = (
"503 241 LINE",
"503 470 LINE",
"475 470 LINE",
"463 440 OFFCURVE",
"456 401 OFFCURVE",
"453 383 CURVE",
"214 383 LINE",
"214 328 LINE",
"453 328 LINE",
"455 311 OFFCURVE",
"464 272 OFFCURVE",
"475 241 CURVE"
);
},
{
closed = 1;
nodes = (
"287 818 OFFCURVE",
"353 883 OFFCURVE",
"375 920 CURVE",
"379 920 LINE",
"402 883 OFFCURVE",
"467 818 OFFCURVE",
"510 784 CURVE",
"581 835 LINE",
"535 863 OFFCURVE",
"440 950 OFFCURVE",
"418 984 CURVE",
"336 984 LINE",
"314 950 OFFCURVE",
"219 863 OFFCURVE",
"173 835 CURVE",
"244 784 LINE"
);
}
);
width = 676;
}
);
note = Ecircumflex;
unicode = 00CA;
},
{
glyphname = Ecircumflexacute;
lastChange = "2015-10-27 15:19:11 +0000";
layers = (
{
layerId = "0FC58CF8-AD3A-4320-9E57-2D2B1849830B";
name = Bold;
paths = (
{
closed = 1;
nodes = (
"619 0 LINE",
"639 185 LINE",
"601 185 LINE",
"583 164 OFFCURVE",
"549 92 OFFCURVE",
"546 54 CURVE",
"292 54 LINE",
"292 645 LINE",
"539 645 LINE",
"541 613 OFFCURVE",
"567 536 OFFCURVE",
"582 513 CURVE",
"620 513 LINE",
"620 700 LINE",
"27 700 LINE",
"27 680 LINE",
"57 669 OFFCURVE",
"90 661 OFFCURVE",
"114 657 CURVE",
"114 42 LINE",
"90 38 OFFCURVE",
"56 30 OFFCURVE",
"27 20 CURVE",
"27 0 LINE"
);
},
{
closed = 1;
nodes = (
"503 241 LINE",
"503 470 LINE",
"475 470 LINE",
"463 440 OFFCURVE",
"456 401 OFFCURVE",
"453 383 CURVE",
"214 383 LINE",
"214 328 LINE",
"453 328 LINE",
"455 311 OFFCURVE",
"464 272 OFFCURVE",
"475 241 CURVE"
);
},
{
closed = 1;
nodes = (
"262 818 OFFCURVE",
"328 883 OFFCURVE",
"351 920 CURVE",
"351 920 OFFCURVE",
"354 920 OFFCURVE",
"354 920 CURVE",
"377 883 OFFCURVE",
"443 818 OFFCURVE",
"485 784 CURVE",
"556 835 LINE",
"511 863 OFFCURVE",
"416 950 OFFCURVE",
"393 984 CURVE",
"312 984 LINE",
"289 950 OFFCURVE",
"194 863 OFFCURVE",
"149 835 CURVE",
"220 784 LINE"
);
},
{
closed = 1;
nodes = (
"615 985 LINE SMOOTH",
"656 1005 OFFCURVE",
"680 1022 OFFCURVE",
"680 1048 CURVE SMOOTH",
"680 1078 OFFCURVE",
"655 1097 OFFCURVE",
"624 1097 CURVE SMOOTH",
"593 1097 OFFCURVE",
"570 1077 OFFCURVE",
"553 1057 CURVE SMOOTH",
"476 964 LINE",
"503 929 LINE"
);
}
);
width = 676;
}
);
note = Ecircumflexacute;
unicode = 1EBE;
},
{
glyphname = Ecircumflexdotbelow;
lastChange = "2015-10-27 15:19:12 +0000";
layers = (
{
layerId = "0FC58CF8-AD3A-4320-9E57-2D2B1849830B";
name = Bold;
paths = (
{
closed = 1;
nodes = (
"619 0 LINE",
"639 185 LINE",
"601 185 LINE",
"583 164 OFFCURVE",
"549 92 OFFCURVE",
"546 54 CURVE",
"292 54 LINE",
"292 645 LINE",
"539 645 LINE",
"541 613 OFFCURVE",
"567 536 OFFCURVE",
"582 513 CURVE",
"620 513 LINE",
"620 700 LINE",
"27 700 LINE",
"27 680 LINE",
"57 669 OFFCURVE",
"90 661 OFFCURVE",
"114 657 CURVE",
"114 42 LINE",
"90 38 OFFCURVE",
"56 30 OFFCURVE",
"27 20 CURVE",
"27 0 LINE"
);
},
{
closed = 1;
nodes = (
"397 -187 OFFCURVE",
"423 -157 OFFCURVE",
"423 -120 CURVE SMOOTH",
"423 -82 OFFCURVE",
"397 -52 OFFCURVE",
"355 -52 CURVE SMOOTH",
"314 -52 OFFCURVE",
"289 -82 OFFCURVE",
"289 -120 CURVE SMOOTH",
"289 -157 OFFCURVE",
"314 -187 OFFCURVE",
"355 -187 CURVE SMOOTH"
);
},
{
closed = 1;
nodes = (
"503 241 LINE",
"503 470 LINE",
"475 470 LINE",
"463 440 OFFCURVE",
"456 401 OFFCURVE",
"453 383 CURVE",
"214 383 LINE",
"214 328 LINE",
"453 328 LINE",
"455 311 OFFCURVE",
"464 272 OFFCURVE",
"475 241 CURVE"
);
},
{
closed = 1;
nodes = (
"263 818 OFFCURVE",
"329 883 OFFCURVE",
"351 920 CURVE",
"355 920 LINE",
"378 883 OFFCURVE",
"443 818 OFFCURVE",
"486 784 CURVE",
"557 835 LINE",
"511 863 OFFCURVE",
"416 950 OFFCURVE",
"394 984 CURVE",
"312 984 LINE",
"290 950 OFFCURVE",
"195 863 OFFCURVE",
"149 835 CURVE",
"220 784 LINE"
);
}
);
width = 676;
}
);
note = Ecircumflexdotbelow;
unicode = 1EC6;
},
{
glyphname = Ecircumflexgrave;
lastChange = "2015-10-27 15:19:12 +0000";
layers = (
{
layerId = "0FC58CF8-AD3A-4320-9E57-2D2B1849830B";
name = Bold;
paths = (
{
closed = 1;
nodes = (
"619 0 LINE",
"639 185 LINE",
"601 185 LINE",
"583 164 OFFCURVE",
"549 92 OFFCURVE",
"546 54 CURVE",
"292 54 LINE",
"292 645 LINE",
"539 645 LINE",
"541 613 OFFCURVE",
"567 536 OFFCURVE",
"582 513 CURVE",
"620 513 LINE",
"620 700 LINE",
"27 700 LINE",
"27 680 LINE",
"57 669 OFFCURVE",
"90 661 OFFCURVE",
"114 657 CURVE",
"114 42 LINE",
"90 38 OFFCURVE",
"56 30 OFFCURVE",
"27 20 CURVE",
"27 0 LINE"
);
},
{
closed = 1;
nodes = (
"503 241 LINE",
"503 470 LINE",
"475 470 LINE",
"463 440 OFFCURVE",
"456 401 OFFCURVE",
"453 383 CURVE",
"214 383 LINE",
"214 328 LINE",
"453 328 LINE",
"455 311 OFFCURVE",
"464 272 OFFCURVE",
"475 241 CURVE"
);
},
{
closed = 1;
nodes = (
"226 964 LINE",
"149 1057 LINE SMOOTH",
"132 1077 OFFCURVE",
"109 1097 OFFCURVE",
"78 1097 CURVE SMOOTH",
"47 1097 OFFCURVE",
"22 1078 OFFCURVE",
"22 1048 CURVE SMOOTH",
"22 1022 OFFCURVE",
"46 1005 OFFCURVE",
"87 985 CURVE SMOOTH",
"199 929 LINE"
);
},
{
closed = 1;
nodes = (
"262 818 OFFCURVE",
"328 883 OFFCURVE",
"351 920 CURVE",
"351 920 OFFCURVE",
"354 920 OFFCURVE",
"354 920 CURVE",
"377 883 OFFCURVE",
"443 818 OFFCURVE",
"485 784 CURVE",
"556 835 LINE",
"511 863 OFFCURVE",
"416 950 OFFCURVE",
"393 984 CURVE",
"312 984 LINE",
"289 950 OFFCURVE",
"194 863 OFFCURVE",
"149 835 CURVE",
"220 784 LINE"
);
}
);
width = 676;
}
);
note = Ecircumflexgrave;
unicode = 1EC0;
},
{
glyphname = Ecircumflexhookabove;
lastChange = "2015-10-27 15:19:12 +0000";
layers = (
{
layerId = "0FC58CF8-AD3A-4320-9E57-2D2B1849830B";
name = Bold;
paths = (
{
closed = 1;
nodes = (
"619 0 LINE",
"639 185 LINE",
"601 185 LINE",
"583 164 OFFCURVE",
"549 92 OFFCURVE",
"546 54 CURVE",
"292 54 LINE",
"292 645 LINE",
"539 645 LINE",
"541 613 OFFCURVE",
"567 536 OFFCURVE",
"582 513 CURVE",
"620 513 LINE",
"620 700 LINE",
"27 700 LINE",
"27 680 LINE",
"57 669 OFFCURVE",
"90 661 OFFCURVE",
"114 657 CURVE",
"114 42 LINE",
"90 38 OFFCURVE",
"56 30 OFFCURVE",
"27 20 CURVE",
"27 0 LINE"
);
},
{
closed = 1;
nodes = (
"503 241 LINE",
"503 470 LINE",
"475 470 LINE",
"463 440 OFFCURVE",
"456 401 OFFCURVE",
"453 383 CURVE",
"214 383 LINE",
"214 328 LINE",
"453 328 LINE",
"455 311 OFFCURVE",
"464 272 OFFCURVE",
"475 241 CURVE"
);
},
{
closed = 1;
nodes = (
"262 818 OFFCURVE",
"328 883 OFFCURVE",
"351 920 CURVE",
"351 920 OFFCURVE",
"354 920 OFFCURVE",
"354 920 CURVE",
"377 883 OFFCURVE",
"443 818 OFFCURVE",
"485 784 CURVE",
"556 835 LINE",
"511 863 OFFCURVE",
"416 950 OFFCURVE",
"393 984 CURVE",
"312 984 LINE",
"289 950 OFFCURVE",
"194 863 OFFCURVE",
"149 835 CURVE",
"220 784 LINE"
);
},
{
closed = 1;
nodes = (
"541 948 LINE",
"550 992 LINE",
"597 997 OFFCURVE",
"636 1014 OFFCURVE",
"636 1072 CURVE SMOOTH",
"636 1135 OFFCURVE",
"579 1158 OFFCURVE",
"523 1158 CURVE SMOOTH",
"494 1158 OFFCURVE",
"465 1151 OFFCURVE",
"446 1142 CURVE",
"452 1103 LINE",
"469 1112 OFFCURVE",
"491 1116 OFFCURVE",
"507 1116 CURVE SMOOTH",
"544 1116 OFFCURVE",
"562 1096 OFFCURVE",
"562 1073 CURVE SMOOTH",
"562 1037 OFFCURVE",
"534 1027 OFFCURVE",
"512 1027 CURVE SMOOTH",
"475 1027 LINE",
"479 948 LINE"
);
}
);
width = 676;
}
);
note = Ecircumflexhookabove;
unicode = 1EC2;
},
{
glyphname = Ecircumflextilde;
lastChange = "2015-10-27 15:19:12 +0000";
layers = (
{
layerId = "0FC58CF8-AD3A-4320-9E57-2D2B1849830B";
name = Bold;
paths = (
{
closed = 1;
nodes = (
"619 0 LINE",
"639 185 LINE",
"601 185 LINE",
"583 164 OFFCURVE",
"549 92 OFFCURVE",
"546 54 CURVE",
"292 54 LINE",
"292 645 LINE",
"539 645 LINE",
"541 613 OFFCURVE",
"567 536 OFFCURVE",
"582 513 CURVE",
"620 513 LINE",
"620 700 LINE",
"27 700 LINE",
"27 680 LINE",
"57 669 OFFCURVE",
"90 661 OFFCURVE",
"114 657 CURVE",
"114 42 LINE",
"90 38 OFFCURVE",
"56 30 OFFCURVE",
"27 20 CURVE",
"27 0 LINE"
);
},
{
closed = 1;
nodes = (
"503 241 LINE",
"503 470 LINE",
"475 470 LINE",
"463 440 OFFCURVE",
"456 401 OFFCURVE",
"453 383 CURVE",
"214 383 LINE",
"214 328 LINE",
"453 328 LINE",
"455 311 OFFCURVE",
"464 272 OFFCURVE",
"475 241 CURVE"
);
},
{
closed = 1;
nodes = (
"262 818 OFFCURVE",
"328 883 OFFCURVE",
"351 920 CURVE",
"351 920 OFFCURVE",
"354 920 OFFCURVE",
"354 920 CURVE",
"377 883 OFFCURVE",
"443 818 OFFCURVE",
"485 784 CURVE",
"556 835 LINE",
"511 863 OFFCURVE",
"416 950 OFFCURVE",
"393 984 CURVE",
"312 984 LINE",
"289 950 OFFCURVE",
"194 863 OFFCURVE",
"149 835 CURVE",
"220 784 LINE"
);
},
{
closed = 1;
nodes = (
"225 1022 LINE",
"231 1052 OFFCURVE",
"255 1072 OFFCURVE",
"288 1072 CURVE SMOOTH",
"336 1072 OFFCURVE",
"374 1022 OFFCURVE",
"434 1022 CURVE SMOOTH",
"514 1022 OFFCURVE",
"552 1070 OFFCURVE",
"559 1142 CURVE",
"502 1142 LINE",
"491 1096 OFFCURVE",
"454 1090 OFFCURVE",
"432 1090 CURVE SMOOTH",
"392 1090 OFFCURVE",
"367 1140 OFFCURVE",
"293 1140 CURVE SMOOTH",
"222 1140 OFFCURVE",
"178 1099 OFFCURVE",
"167 1022 CURVE"
);
}
);
width = 676;
}
);
note = Ecircumflextilde;
unicode = 1EC4;
},
{
glyphname = Edieresis;
lastChange = "2015-10-27 15:19:11 +0000";
layers = (
{
layerId = "0FC58CF8-AD3A-4320-9E57-2D2B1849830B";
name = Bold;
paths = (
{
closed = 1;
nodes = (
"619 0 LINE",
"639 185 LINE",
"601 185 LINE",
"583 164 OFFCURVE",
"549 92 OFFCURVE",
"546 54 CURVE",
"292 54 LINE",
"292 645 LINE",
"539 645 LINE",
"541 613 OFFCURVE",
"567 536 OFFCURVE",
"582 513 CURVE",
"620 513 LINE",
"620 700 LINE",
"27 700 LINE",
"27 680 LINE",
"57 669 OFFCURVE",
"90 661 OFFCURVE",
"114 657 CURVE",
"114 42 LINE",
"90 38 OFFCURVE",
"56 30 OFFCURVE",
"27 20 CURVE",
"27 0 LINE"
);
},
{
closed = 1;
nodes = (
"503 241 LINE",
"503 470 LINE",
"475 470 LINE",
"463 440 OFFCURVE",
"456 401 OFFCURVE",
"453 383 CURVE",
"214 383 LINE",
"214 328 LINE",
"453 328 LINE",
"455 311 OFFCURVE",
"464 272 OFFCURVE",
"475 241 CURVE"
);
},
{
closed = 1;
nodes = (
"308 785 OFFCURVE",
"334 815 OFFCURVE",
"334 852 CURVE SMOOTH",
"334 890 OFFCURVE",
"308 920 OFFCURVE",
"267 920 CURVE SMOOTH",
"226 920 OFFCURVE",
"200 890 OFFCURVE",
"200 852 CURVE SMOOTH",
"200 815 OFFCURVE",
"226 785 OFFCURVE",
"267 785 CURVE SMOOTH"
);
},
{
closed = 1;
nodes = (
"555 785 OFFCURVE",
"581 815 OFFCURVE",
"581 852 CURVE SMOOTH",
"581 890 OFFCURVE",
"555 920 OFFCURVE",
"513 920 CURVE SMOOTH",
"472 920 OFFCURVE",
"447 890 OFFCURVE",
"447 852 CURVE SMOOTH",
"447 815 OFFCURVE",
"472 785 OFFCURVE",
"513 785 CURVE SMOOTH"
);
}
);
width = 676;
}
);
note = Edieresis;
unicode = 00CB;
},
{
glyphname = Edotaccent;
lastChange = "2015-10-27 15:19:12 +0000";
layers = (
{
layerId = "0FC58CF8-AD3A-4320-9E57-2D2B1849830B";
name = Bold;
paths = (
{
closed = 1;
nodes = (
"619 0 LINE",
"639 185 LINE",
"601 185 LINE",
"583 164 OFFCURVE",
"549 92 OFFCURVE",
"546 54 CURVE",
"292 54 LINE",
"292 645 LINE",
"539 645 LINE",
"541 613 OFFCURVE",
"567 536 OFFCURVE",
"582 513 CURVE",
"620 513 LINE",
"620 700 LINE",
"27 700 LINE",
"27 680 LINE",
"57 669 OFFCURVE",
"90 661 OFFCURVE",
"114 657 CURVE",
"114 42 LINE",
"90 38 OFFCURVE",
"56 30 OFFCURVE",
"27 20 CURVE",
"27 0 LINE"
);
},
{
closed = 1;
nodes = (
"503 241 LINE",
"503 470 LINE",
"475 470 LINE",
"463 440 OFFCURVE",
"456 401 OFFCURVE",
"453 383 CURVE",
"214 383 LINE",
"214 328 LINE",
"453 328 LINE",
"455 311 OFFCURVE",
"464 272 OFFCURVE",
"475 241 CURVE"
);
},
{
closed = 1;
nodes = (
"432 785 OFFCURVE",
"458 815 OFFCURVE",
"458 852 CURVE SMOOTH",
"458 890 OFFCURVE",
"432 920 OFFCURVE",
"391 920 CURVE SMOOTH",
"349 920 OFFCURVE",
"324 890 OFFCURVE",
"324 852 CURVE SMOOTH",
"324 815 OFFCURVE",
"349 785 OFFCURVE",
"391 785 CURVE SMOOTH"
);
}
);
width = 676;
}
);
note = Edotaccent;
unicode = 0116;
},
{
glyphname = Edotbelow;
lastChange = "2015-10-27 15:19:12 +0000";
layers = (
{
layerId = "0FC58CF8-AD3A-4320-9E57-2D2B1849830B";
name = Bold;
paths = (
{
closed = 1;
nodes = (
"619 0 LINE",
"639 185 LINE",
"601 185 LINE",
"583 164 OFFCURVE",
"549 92 OFFCURVE",
"546 54 CURVE",
"292 54 LINE",
"292 645 LINE",
"539 645 LINE",
"541 613 OFFCURVE",
"567 536 OFFCURVE",
"582 513 CURVE",
"620 513 LINE",
"620 700 LINE",
"27 700 LINE",
"27 680 LINE",
"57 669 OFFCURVE",
"90 661 OFFCURVE",
"114 657 CURVE",
"114 42 LINE",
"90 38 OFFCURVE",
"56 30 OFFCURVE",
"27 20 CURVE",
"27 0 LINE"
);
},
{
closed = 1;
nodes = (
"380 -187 OFFCURVE",
"406 -157 OFFCURVE",
"406 -120 CURVE SMOOTH",
"406 -82 OFFCURVE",
"380 -52 OFFCURVE",
"338 -52 CURVE SMOOTH",
"297 -52 OFFCURVE",
"272 -82 OFFCURVE",
"272 -120 CURVE SMOOTH",
"272 -157 OFFCURVE",
"297 -187 OFFCURVE",
"338 -187 CURVE SMOOTH"
);
},
{
closed = 1;
nodes = (
"503 241 LINE",
"503 470 LINE",
"475 470 LINE",
"463 440 OFFCURVE",
"456 401 OFFCURVE",
"453 383 CURVE",
"214 383 LINE",
"214 328 LINE",
"453 328 LINE",
"455 311 OFFCURVE",
"464 272 OFFCURVE",
"475 241 CURVE"
);
}
);
width = 676;
}
);
note = Edotbelow;
unicode = 1EB8;
},
{
glyphname = Egrave;
lastChange = "2015-10-27 15:19:12 +0000";
layers = (
{
layerId = "0FC58CF8-AD3A-4320-9E57-2D2B1849830B";
name = Bold;
paths = (
{
closed = 1;
nodes = (
"619 0 LINE",
"639 185 LINE",
"601 185 LINE",
"583 164 OFFCURVE",
"549 92 OFFCURVE",
"546 54 CURVE",
"292 54 LINE",
"292 645 LINE",
"539 645 LINE",
"541 613 OFFCURVE",
"567 536 OFFCURVE",
"582 513 CURVE",
"620 513 LINE",
"620 700 LINE",
"27 700 LINE",
"27 680 LINE",
"57 669 OFFCURVE",
"90 661 OFFCURVE",
"114 657 CURVE",
"114 42 LINE",
"90 38 OFFCURVE",
"56 30 OFFCURVE",
"27 20 CURVE",
"27 0 LINE"
);
},
{
closed = 1;
nodes = (
"503 241 LINE",
"503 470 LINE",
"475 470 LINE",
"463 440 OFFCURVE",
"456 401 OFFCURVE",
"453 383 CURVE",
"214 383 LINE",
"214 328 LINE",
"453 328 LINE",
"455 311 OFFCURVE",
"464 272 OFFCURVE",
"475 241 CURVE"
);
},
{
closed = 1;
nodes = (
"502 825 LINE",
"377 958 LINE",
"371 965 OFFCURVE",
"344 996 OFFCURVE",
"307 996 CURVE SMOOTH",
"268 996 OFFCURVE",
"252 970 OFFCURVE",
"252 950 CURVE SMOOTH",
"252 923 OFFCURVE",
"272 903 OFFCURVE",
"308 882 CURVE SMOOTH",
"474 786 LINE"
);
}
);
width = 676;
}
);
note = Egrave;
unicode = 00C8;
},
{
glyphname = Ehookabove;
lastChange = "2015-10-27 15:19:11 +0000";
layers = (
{
layerId = "0FC58CF8-AD3A-4320-9E57-2D2B1849830B";
name = Bold;
paths = (
{
closed = 1;
nodes = (
"619 0 LINE",
"639 185 LINE",
"601 185 LINE",
"583 164 OFFCURVE",
"549 92 OFFCURVE",
"546 54 CURVE",
"292 54 LINE",
"292 645 LINE",
"539 645 LINE",
"541 613 OFFCURVE",
"567 536 OFFCURVE",
"582 513 CURVE",
"620 513 LINE",
"620 700 LINE",
"27 700 LINE",
"27 680 LINE",
"57 669 OFFCURVE",
"90 661 OFFCURVE",
"114 657 CURVE",
"114 42 LINE",
"90 38 OFFCURVE",
"56 30 OFFCURVE",
"27 20 CURVE",
"27 0 LINE"
);
},
{
closed = 1;
nodes = (
"503 241 LINE",
"503 470 LINE",
"475 470 LINE",
"463 440 OFFCURVE",
"456 401 OFFCURVE",
"453 383 CURVE",
"214 383 LINE",
"214 328 LINE",
"453 328 LINE",
"455 311 OFFCURVE",
"464 272 OFFCURVE",
"475 241 CURVE"
);
},
{
closed = 1;
nodes = (
"406 784 LINE",
"416 855 LINE",
"470 860 OFFCURVE",
"515 880 OFFCURVE",
"515 944 CURVE SMOOTH",
"515 1014 OFFCURVE",
"449 1040 OFFCURVE",
"386 1040 CURVE SMOOTH",
"352 1040 OFFCURVE",
"319 1032 OFFCURVE",
"297 1021 CURVE",
"304 979 LINE",
"325 991 OFFCURVE",
"349 995 OFFCURVE",
"367 995 CURVE SMOOTH",
"409 995 OFFCURVE",
"430 971 OFFCURVE",
"430 945 CURVE SMOOTH",
"430 905 OFFCURVE",
"398 893 OFFCURVE",
"373 893 CURVE SMOOTH",
"331 893 LINE",
"336 784 LINE"
);
}
);
width = 676;
}
);
note = Ehookabove;
unicode = 1EBA;
},
{
glyphname = Emacron;
lastChange = "2015-10-27 15:19:12 +0000";
layers = (
{
layerId = "0FC58CF8-AD3A-4320-9E57-2D2B1849830B";
name = Bold;
paths = (
{
closed = 1;
nodes = (
"619 0 LINE",
"639 185 LINE",
"601 185 LINE",
"583 164 OFFCURVE",
"549 92 OFFCURVE",
"546 54 CURVE",
"292 54 LINE",
"292 645 LINE",
"539 645 LINE",
"541 613 OFFCURVE",
"567 536 OFFCURVE",
"582 513 CURVE",
"620 513 LINE",
"620 700 LINE",
"27 700 LINE",
"27 680 LINE",
"57 669 OFFCURVE",
"90 661 OFFCURVE",
"114 657 CURVE",
"114 42 LINE",
"90 38 OFFCURVE",
"56 30 OFFCURVE",
"27 20 CURVE",
"27 0 LINE"
);
},
{
closed = 1;
nodes = (
"503 241 LINE",
"503 470 LINE",
"475 470 LINE",
"463 440 OFFCURVE",
"456 401 OFFCURVE",
"453 383 CURVE",
"214 383 LINE",
"214 328 LINE",
"453 328 LINE",
"455 311 OFFCURVE",
"464 272 OFFCURVE",
"475 241 CURVE"
);
},
{
closed = 1;
nodes = (
"583 785 LINE",
"583 837 LINE",
"174 837 LINE",
"174 785 LINE"
);
}
);
width = 676;
}
);
note = Emacron;
unicode = 0112;
},
{
glyphname = Eogonek;
lastChange = "2015-10-27 15:19:12 +0000";
layers = (
{
layerId = "0FC58CF8-AD3A-4320-9E57-2D2B1849830B";
name = Bold;
paths = (
{
closed = 1;
nodes = (
"619 0 LINE",
"639 185 LINE",
"601 185 LINE",
"583 164 OFFCURVE",
"549 92 OFFCURVE",
"546 54 CURVE",
"292 54 LINE",
"292 645 LINE",
"539 645 LINE",
"541 613 OFFCURVE",
"567 536 OFFCURVE",
"582 513 CURVE",
"620 513 LINE",
"620 700 LINE",
"27 700 LINE",
"27 680 LINE",
"57 669 OFFCURVE",
"90 661 OFFCURVE",
"114 657 CURVE",
"114 42 LINE",
"90 38 OFFCURVE",
"56 30 OFFCURVE",
"27 20 CURVE",
"27 0 LINE"
);
},
{
closed = 1;
nodes = (
"595 -212 OFFCURVE",
"642 -201 OFFCURVE",
"669 -183 CURVE",
"669 -113 LINE",
"642 -130 OFFCURVE",
"617 -136 OFFCURVE",
"598 -136 CURVE SMOOTH",
"560 -136 OFFCURVE",
"536 -114 OFFCURVE",
"536 -84 CURVE SMOOTH",
"536 -53 OFFCURVE",
"562 -18 OFFCURVE",
"584 0 CURVE",
"503 0 LINE",
"440 -18 OFFCURVE",
"405 -74 OFFCURVE",
"405 -119 CURVE SMOOTH",
"405 -177 OFFCURVE",
"458 -212 OFFCURVE",
"547 -212 CURVE SMOOTH"
);
},
{
closed = 1;
nodes = (
"503 241 LINE",
"503 470 LINE",
"475 470 LINE",
"463 440 OFFCURVE",
"456 401 OFFCURVE",
"453 383 CURVE",
"214 383 LINE",
"214 328 LINE",
"453 328 LINE",
"455 311 OFFCURVE",
"464 272 OFFCURVE",
"475 241 CURVE"
);
}
);
width = 676;
}
);
note = Eogonek;
unicode = 0118;
},
{
glyphname = Etilde;
lastChange = "2015-10-27 15:19:12 +0000";
layers = (
{
layerId = "0FC58CF8-AD3A-4320-9E57-2D2B1849830B";
name = Bold;
paths = (
{
closed = 1;
nodes = (
"619 0 LINE",
"639 185 LINE",
"601 185 LINE",
"583 164 OFFCURVE",
"549 92 OFFCURVE",
"546 54 CURVE",
"292 54 LINE",
"292 645 LINE",
"539 645 LINE",
"541 613 OFFCURVE",
"567 536 OFFCURVE",
"582 513 CURVE",
"620 513 LINE",
"620 700 LINE",
"27 700 LINE",
"27 680 LINE",
"57 669 OFFCURVE",
"90 661 OFFCURVE",
"114 657 CURVE",
"114 42 LINE",
"90 38 OFFCURVE",
"56 30 OFFCURVE",
"27 20 CURVE",
"27 0 LINE"
);
},
{
closed = 1;
nodes = (
"503 241 LINE",
"503 470 LINE",
"475 470 LINE",
"463 440 OFFCURVE",
"456 401 OFFCURVE",
"453 383 CURVE",
"214 383 LINE",
"214 328 LINE",
"453 328 LINE",
"455 311 OFFCURVE",
"464 272 OFFCURVE",
"475 241 CURVE"
);
},
{
closed = 1;
nodes = (
"230 785 LINE",
"236 816 OFFCURVE",
"255 836 OFFCURVE",
"284 836 CURVE SMOOTH",
"319 836 OFFCURVE",
"384 785 OFFCURVE",
"445 785 CURVE SMOOTH",
"529 785 OFFCURVE",
"567 835 OFFCURVE",
"574 909 CURVE",
"495 909 LINE",
"484 862 OFFCURVE",
"461 856 OFFCURVE",
"437 856 CURVE SMOOTH",
"396 856 OFFCURVE",
"357 907 OFFCURVE",
"280 907 CURVE SMOOTH",
"207 907 OFFCURVE",
"162 865 OFFCURVE",
"150 785 CURVE"
);
}
);
width = 676;
}
);
note = Etilde;
unicode = 1EBC;
},
{
glyphname = F;
lastChange = "2015-10-27 15:19:11 +0000";
layers = (
{
layerId = "0FC58CF8-AD3A-4320-9E57-2D2B1849830B";
name = Bold;
paths = (
{
closed = 1;
nodes = (
"380 0 LINE",
"380 19 LINE",
"350 30 OFFCURVE",
"316 38 OFFCURVE",
"292 42 CURVE",
"292 645 LINE",
"522 645 LINE",
"524 613 OFFCURVE",
"550 536 OFFCURVE",
"565 513 CURVE",
"603 513 LINE",
"603 700 LINE",
"27 700 LINE",
"27 680 LINE",
"57 669 OFFCURVE",
"90 661 OFFCURVE",
"114 657 CURVE",
"114 42 LINE",
"88 38 OFFCURVE",
"56 30 OFFCURVE",
"27 20 CURVE",
"27 0 LINE"
);
},
{
closed = 1;
nodes = (
"503 209 LINE",
"503 438 LINE",
"475 438 LINE",
"463 409 OFFCURVE",
"456 369 OFFCURVE",
"453 351 CURVE",
"137 351 LINE",
"137 297 LINE",
"453 297 LINE",
"455 280 OFFCURVE",
"464 241 OFFCURVE",
"475 209 CURVE"
);
}
);
width = 627;
}
);
note = F;
unicode = 0046;
},
{
glyphname = G;
lastChange = "2015-10-27 15:19:11 +0000";
layers = (
{
layerId = "0FC58CF8-AD3A-4320-9E57-2D2B1849830B";
name = Bold;
paths = (
{
closed = 1;
nodes = (
"496 -10 OFFCURVE",
"608 10 OFFCURVE",
"660 48 CURVE",
"660 297 LINE",
"676 301 OFFCURVE",
"713 315 OFFCURVE",
"729 326 CURVE",
"729 342 LINE",
"409 342 LINE",
"409 320 LINE",
"434 312 OFFCURVE",
"462 306 OFFCURVE",
"487 300 CURVE",
"487 55 LINE",
"468 49 OFFCURVE",
"438 47 OFFCURVE",
"421 47 CURVE SMOOTH",
"293 47 OFFCURVE",
"216 159 OFFCURVE",
"216 350 CURVE SMOOTH",
"216 539 OFFCURVE",
"310 653 OFFCURVE",
"445 653 CURVE SMOOTH",
"489 653 OFFCURVE",
"550 643 OFFCURVE",
"589 614 CURVE",
"593 565 OFFCURVE",
"603 515 OFFCURVE",
"615 474 CURVE",
"657 474 LINE",
"672 628 LINE",
"618 679 OFFCURVE",
"524 710 OFFCURVE",
"400 710 CURVE SMOOTH",
"168 710 OFFCURVE",
"34 572 OFFCURVE",
"34 350 CURVE SMOOTH",
"34 127 OFFCURVE",
"159 -10 OFFCURVE",
"398 -10 CURVE SMOOTH"
);
}
);
width = 739;
}
);
leftKerningGroup = G;
note = G;
unicode = 0047;
},
{
glyphname = Gbreve;
lastChange = "2015-10-27 15:19:12 +0000";
layers = (
{
layerId = "0FC58CF8-AD3A-4320-9E57-2D2B1849830B";
name = Bold;
paths = (
{
closed = 1;
nodes = (
"496 -10 OFFCURVE",
"608 10 OFFCURVE",
"660 48 CURVE",
"660 297 LINE",
"676 301 OFFCURVE",
"713 315 OFFCURVE",
"729 326 CURVE",
"729 342 LINE",
"409 342 LINE",
"409 320 LINE",
"434 312 OFFCURVE",
"462 306 OFFCURVE",
"487 300 CURVE",
"487 55 LINE",
"468 49 OFFCURVE",
"438 47 OFFCURVE",
"421 47 CURVE SMOOTH",
"293 47 OFFCURVE",
"216 159 OFFCURVE",
"216 350 CURVE SMOOTH",
"216 539 OFFCURVE",
"310 653 OFFCURVE",
"445 653 CURVE SMOOTH",
"489 653 OFFCURVE",
"550 643 OFFCURVE",
"589 614 CURVE",
"593 565 OFFCURVE",
"603 515 OFFCURVE",
"615 474 CURVE",
"657 474 LINE",
"672 628 LINE",
"618 679 OFFCURVE",
"524 710 OFFCURVE",
"400 710 CURVE SMOOTH",
"168 710 OFFCURVE",
"34 572 OFFCURVE",
"34 350 CURVE SMOOTH",
"34 127 OFFCURVE",
"159 -10 OFFCURVE",
"398 -10 CURVE SMOOTH"
);
},
{
closed = 1;
nodes = (
"506 784 OFFCURVE",
"577 828 OFFCURVE",
"593 921 CURVE",
"497 921 LINE",
"490 849 OFFCURVE",
"445 840 OFFCURVE",
"404 840 CURVE SMOOTH",
"363 840 OFFCURVE",
"317 849 OFFCURVE",
"310 921 CURVE",
"214 921 LINE",
"231 828 OFFCURVE",
"301 784 OFFCURVE",
"404 784 CURVE SMOOTH"
);
}
);
width = 739;
}
);
leftKerningGroup = G;
note = Gbreve;
unicode = 011E;
},
{
glyphname = Gcaron;
lastChange = "2015-10-27 15:19:12 +0000";
layers = (
{
layerId = "0FC58CF8-AD3A-4320-9E57-2D2B1849830B";
name = Bold;
paths = (
{
closed = 1;
nodes = (
"496 -10 OFFCURVE",
"608 10 OFFCURVE",
"660 48 CURVE",
"660 297 LINE",
"676 301 OFFCURVE",
"713 315 OFFCURVE",
"729 326 CURVE",
"729 342 LINE",
"409 342 LINE",
"409 320 LINE",
"434 312 OFFCURVE",
"462 306 OFFCURVE",
"487 300 CURVE",
"487 55 LINE",
"468 49 OFFCURVE",
"438 47 OFFCURVE",
"421 47 CURVE SMOOTH",
"293 47 OFFCURVE",
"216 159 OFFCURVE",
"216 350 CURVE SMOOTH",
"216 539 OFFCURVE",
"310 653 OFFCURVE",
"445 653 CURVE SMOOTH",
"489 653 OFFCURVE",
"550 643 OFFCURVE",
"589 614 CURVE",
"593 565 OFFCURVE",
"603 515 OFFCURVE",
"615 474 CURVE",
"657 474 LINE",
"672 628 LINE",
"618 679 OFFCURVE",
"524 710 OFFCURVE",
"400 710 CURVE SMOOTH",
"168 710 OFFCURVE",
"34 572 OFFCURVE",
"34 350 CURVE SMOOTH",
"34 127 OFFCURVE",
"159 -10 OFFCURVE",
"398 -10 CURVE SMOOTH"
);
},
{
closed = 1;
nodes = (
"419 788 LINE",
"441 822 OFFCURVE",
"536 908 OFFCURVE",
"582 937 CURVE",
"511 987 LINE",
"468 954 OFFCURVE",
"403 889 OFFCURVE",
"380 852 CURVE",
"376 852 LINE",
"354 889 OFFCURVE",
"288 954 OFFCURVE",
"245 987 CURVE",
"174 937 LINE",
"220 908 OFFCURVE",
"315 822 OFFCURVE",
"337 788 CURVE"
);
}
);
width = 739;
}
);
leftKerningGroup = G;
note = Gcaron;
unicode = 01E6;
},
{
glyphname = Gcircumflex;
lastChange = "2015-10-27 15:19:12 +0000";
layers = (
{
layerId = "0FC58CF8-AD3A-4320-9E57-2D2B1849830B";
name = Bold;
paths = (
{
closed = 1;
nodes = (
"496 -10 OFFCURVE",
"608 10 OFFCURVE",
"660 48 CURVE",
"660 297 LINE",
"676 301 OFFCURVE",
"713 315 OFFCURVE",
"729 326 CURVE",
"729 342 LINE",
"409 342 LINE",
"409 320 LINE",
"434 312 OFFCURVE",
"462 306 OFFCURVE",
"487 300 CURVE",
"487 55 LINE",
"468 49 OFFCURVE",
"438 47 OFFCURVE",
"421 47 CURVE SMOOTH",
"293 47 OFFCURVE",
"216 159 OFFCURVE",
"216 350 CURVE SMOOTH",
"216 539 OFFCURVE",
"310 653 OFFCURVE",
"445 653 CURVE SMOOTH",
"489 653 OFFCURVE",
"550 643 OFFCURVE",
"589 614 CURVE",
"593 565 OFFCURVE",
"603 515 OFFCURVE",
"615 474 CURVE",
"657 474 LINE",
"672 628 LINE",
"618 679 OFFCURVE",
"524 710 OFFCURVE",
"400 710 CURVE SMOOTH",
"168 710 OFFCURVE",
"34 572 OFFCURVE",
"34 350 CURVE SMOOTH",
"34 127 OFFCURVE",
"159 -10 OFFCURVE",
"398 -10 CURVE SMOOTH"
);
},
{
closed = 1;
nodes = (
"327 818 OFFCURVE",
"393 883 OFFCURVE",
"415 920 CURVE",
"419 920 LINE",
"442 883 OFFCURVE",
"507 818 OFFCURVE",
"550 784 CURVE",
"621 835 LINE",
"575 863 OFFCURVE",
"480 950 OFFCURVE",
"458 984 CURVE",
"376 984 LINE",
"354 950 OFFCURVE",
"259 863 OFFCURVE",
"213 835 CURVE",
"284 784 LINE"
);
}
);
width = 739;
}
);
leftKerningGroup = G;
note = Gcircumflex;
unicode = 011C;
},
{
glyphname = Gcommaaccent;
lastChange = "2015-10-27 15:19:12 +0000";
layers = (
{
layerId = "0FC58CF8-AD3A-4320-9E57-2D2B1849830B";
name = Bold;
paths = (
{
closed = 1;
nodes = (
"496 -10 OFFCURVE",
"608 10 OFFCURVE",
"660 48 CURVE",
"660 297 LINE",
"676 301 OFFCURVE",
"713 315 OFFCURVE",
"729 326 CURVE",
"729 342 LINE",
"409 342 LINE",
"409 320 LINE",
"434 312 OFFCURVE",
"462 306 OFFCURVE",
"487 300 CURVE",
"487 55 LINE",
"468 49 OFFCURVE",
"438 47 OFFCURVE",
"421 47 CURVE SMOOTH",
"293 47 OFFCURVE",
"216 159 OFFCURVE",
"216 350 CURVE SMOOTH",
"216 539 OFFCURVE",
"310 653 OFFCURVE",
"445 653 CURVE SMOOTH",
"489 653 OFFCURVE",
"550 643 OFFCURVE",
"589 614 CURVE",
"593 565 OFFCURVE",
"603 515 OFFCURVE",
"615 474 CURVE",
"657 474 LINE",
"672 628 LINE",
"618 679 OFFCURVE",
"524 710 OFFCURVE",
"400 710 CURVE SMOOTH",
"168 710 OFFCURVE",
"34 572 OFFCURVE",
"34 350 CURVE SMOOTH",
"34 127 OFFCURVE",
"159 -10 OFFCURVE",
"398 -10 CURVE SMOOTH"
);
},
{
closed = 1;
nodes = (
"451 -338 OFFCURVE",
"498 -250 OFFCURVE",
"498 -167 CURVE SMOOTH",
"498 -124 OFFCURVE",
"471 -85 OFFCURVE",
"413 -85 CURVE SMOOTH",
"371 -85 OFFCURVE",
"333 -113 OFFCURVE",
"333 -158 CURVE SMOOTH",
"333 -199 OFFCURVE",
"367 -231 OFFCURVE",
"409 -234 CURVE",
"401 -279 OFFCURVE",
"362 -325 OFFCURVE",
"337 -350 CURVE",
"390 -390 LINE"
);
}
);
width = 739;
}
);
leftKerningGroup = G;
note = Gcommaaccent;
unicode = 0122;
},
{
glyphname = Gdotaccent;
lastChange = "2015-10-27 15:19:12 +0000";
layers = (
{
layerId = "0FC58CF8-AD3A-4320-9E57-2D2B1849830B";
name = Bold;
paths = (
{
closed = 1;
nodes = (
"496 -10 OFFCURVE",
"608 10 OFFCURVE",
"660 48 CURVE",
"660 297 LINE",
"676 301 OFFCURVE",
"713 315 OFFCURVE",
"729 326 CURVE",
"729 342 LINE",
"409 342 LINE",
"409 320 LINE",
"434 312 OFFCURVE",
"462 306 OFFCURVE",
"487 300 CURVE",
"487 55 LINE",
"468 49 OFFCURVE",
"438 47 OFFCURVE",
"421 47 CURVE SMOOTH",
"293 47 OFFCURVE",
"216 159 OFFCURVE",
"216 350 CURVE SMOOTH",
"216 539 OFFCURVE",
"310 653 OFFCURVE",
"445 653 CURVE SMOOTH",
"489 653 OFFCURVE",
"550 643 OFFCURVE",
"589 614 CURVE",
"593 565 OFFCURVE",
"603 515 OFFCURVE",
"615 474 CURVE",
"657 474 LINE",
"672 628 LINE",
"618 679 OFFCURVE",
"524 710 OFFCURVE",
"400 710 CURVE SMOOTH",
"168 710 OFFCURVE",
"34 572 OFFCURVE",
"34 350 CURVE SMOOTH",
"34 127 OFFCURVE",
"159 -10 OFFCURVE",
"398 -10 CURVE SMOOTH"
);
},
{
closed = 1;
nodes = (
"463 785 OFFCURVE",
"489 815 OFFCURVE",
"489 852 CURVE SMOOTH",
"489 890 OFFCURVE",
"463 920 OFFCURVE",
"422 920 CURVE SMOOTH",
"380 920 OFFCURVE",
"355 890 OFFCURVE",
"355 852 CURVE SMOOTH",
"355 815 OFFCURVE",
"380 785 OFFCURVE",
"422 785 CURVE SMOOTH"
);
}
);
width = 739;
}
);
leftKerningGroup = G;
note = Gdotaccent;
unicode = 0120;
},
{
glyphname = Gmacron;
lastChange = "2015-10-27 15:19:12 +0000";
layers = (
{
layerId = "0FC58CF8-AD3A-4320-9E57-2D2B1849830B";
name = Bold;
paths = (
{
closed = 1;
nodes = (
"496 -10 OFFCURVE",
"608 10 OFFCURVE",
"660 48 CURVE",
"660 297 LINE",
"676 301 OFFCURVE",
"713 315 OFFCURVE",
"729 326 CURVE",
"729 342 LINE",
"409 342 LINE",
"409 320 LINE",
"434 312 OFFCURVE",
"462 306 OFFCURVE",
"487 300 CURVE",
"487 55 LINE",
"468 49 OFFCURVE",
"438 47 OFFCURVE",
"421 47 CURVE SMOOTH",
"293 47 OFFCURVE",
"216 159 OFFCURVE",
"216 350 CURVE SMOOTH",
"216 539 OFFCURVE",
"310 653 OFFCURVE",
"445 653 CURVE SMOOTH",
"489 653 OFFCURVE",
"550 643 OFFCURVE",
"589 614 CURVE",
"593 565 OFFCURVE",
"603 515 OFFCURVE",
"615 474 CURVE",
"657 474 LINE",
"672 628 LINE",
"618 679 OFFCURVE",
"524 710 OFFCURVE",
"400 710 CURVE SMOOTH",
"168 710 OFFCURVE",
"34 572 OFFCURVE",
"34 350 CURVE SMOOTH",
"34 127 OFFCURVE",
"159 -10 OFFCURVE",
"398 -10 CURVE SMOOTH"
);
},
{
closed = 1;
nodes = (
"578 785 LINE",
"578 837 LINE",
"169 837 LINE",
"169 785 LINE"
);
}
);
width = 739;
}
);
leftKerningGroup = G;
note = Gmacron;
unicode = 1E20;
},
{
glyphname = H;
lastChange = "2015-10-27 15:19:11 +0000";
layers = (
{
layerId = "0FC58CF8-AD3A-4320-9E57-2D2B1849830B";
name = Bold;
paths = (
{
closed = 1;
nodes = (
"812 0 LINE",
"812 19 LINE",
"782 30 OFFCURVE",
"758 37 OFFCURVE",
"733 42 CURVE",
"733 655 LINE",
"748 657 OFFCURVE",
"781 668 OFFCURVE",
"812 678 CURVE",
"812 700 LINE",
"478 700 LINE",
"478 680 LINE",
"507 670 OFFCURVE",
"532 663 OFFCURVE",
"555 658 CURVE",
"555 43 LINE",
"545 41 OFFCURVE",
"505 29 OFFCURVE",
"478 17 CURVE",
"478 0 LINE"
);
},
{
closed = 1;
nodes = (
"360 0 LINE",
"360 19 LINE",
"332 28 OFFCURVE",
"305 36 OFFCURVE",
"283 41 CURVE",
"283 656 LINE",
"292 658 OFFCURVE",
"298 658 OFFCURVE",
"360 682 CURVE",
"360 700 LINE",
"27 700 LINE",
"27 680 LINE",
"57 669 OFFCURVE",
"81 662 OFFCURVE",
"105 657 CURVE",
"105 44 LINE",
"90 42 OFFCURVE",
"57 31 OFFCURVE",
"27 21 CURVE",
"27 0 LINE"
);
},
{
closed = 1;
nodes = (
"640 328 LINE",
"640 382 LINE",
"199 382 LINE",
"199 328 LINE"
);
}
);
width = 839;
}
);
note = H;
unicode = 0048;
},
{
glyphname = Hbar;
lastChange = "2015-10-27 15:19:12 +0000";
layers = (
{
layerId = "0FC58CF8-AD3A-4320-9E57-2D2B1849830B";
name = Bold;
paths = (
{
closed = 1;
nodes = (
"812 0 LINE",
"812 19 LINE",
"782 30 OFFCURVE",
"758 37 OFFCURVE",
"733 42 CURVE",
"733 655 LINE",
"748 657 OFFCURVE",
"781 668 OFFCURVE",
"812 678 CURVE",
"812 700 LINE",
"478 700 LINE",
"478 680 LINE",
"507 670 OFFCURVE",
"532 663 OFFCURVE",
"555 658 CURVE",
"555 43 LINE",
"545 41 OFFCURVE",
"505 29 OFFCURVE",
"478 17 CURVE",
"478 0 LINE"
);
},
{
closed = 1;
nodes = (
"360 0 LINE",
"360 19 LINE",
"332 28 OFFCURVE",
"305 36 OFFCURVE",
"283 41 CURVE",
"283 656 LINE",
"292 658 OFFCURVE",
"298 658 OFFCURVE",
"360 682 CURVE",
"360 700 LINE",
"27 700 LINE",
"27 680 LINE",
"57 669 OFFCURVE",
"81 662 OFFCURVE",
"105 657 CURVE",
"105 44 LINE",
"90 42 OFFCURVE",
"57 31 OFFCURVE",
"27 21 CURVE",
"27 0 LINE"
);
},
{
closed = 1;
nodes = (
"640 328 LINE",
"640 382 LINE",
"199 382 LINE",
"199 328 LINE"
);
},
{
closed = 1;
nodes = (
"792 490 LINE",
"792 544 LINE",
"45 544 LINE",
"45 490 LINE"
);
}
);
width = 839;
}
);
note = Hbar;
unicode = 0126;
},
{
glyphname = Hbrevebelow;
lastChange = "2015-10-27 15:19:11 +0000";
layers = (
{
layerId = "0FC58CF8-AD3A-4320-9E57-2D2B1849830B";
name = Bold;
paths = (
{
closed = 1;
nodes = (
"812 0 LINE",
"812 19 LINE",
"782 30 OFFCURVE",
"758 37 OFFCURVE",
"733 42 CURVE",
"733 655 LINE",
"748 657 OFFCURVE",
"781 668 OFFCURVE",
"812 678 CURVE",
"812 700 LINE",
"478 700 LINE",
"478 680 LINE",
"507 670 OFFCURVE",
"532 663 OFFCURVE",
"555 658 CURVE",
"555 43 LINE",
"545 41 OFFCURVE",
"505 29 OFFCURVE",
"478 17 CURVE",
"478 0 LINE"
);
},
{
closed = 1;
nodes = (
"521 -188 OFFCURVE",
"592 -144 OFFCURVE",
"608 -50 CURVE",
"512 -50 LINE",
"505 -122 OFFCURVE",
"460 -132 OFFCURVE",
"419 -132 CURVE SMOOTH",
"378 -132 OFFCURVE",
"332 -122 OFFCURVE",
"325 -50 CURVE",
"229 -50 LINE",
"246 -144 OFFCURVE",
"316 -188 OFFCURVE",
"419 -188 CURVE SMOOTH"
);
},
{
closed = 1;
nodes = (
"360 0 LINE",
"360 19 LINE",
"332 28 OFFCURVE",
"305 36 OFFCURVE",
"283 41 CURVE",
"283 656 LINE",
"292 658 OFFCURVE",
"298 658 OFFCURVE",
"360 682 CURVE",
"360 700 LINE",
"27 700 LINE",
"27 680 LINE",
"57 669 OFFCURVE",
"81 662 OFFCURVE",
"105 657 CURVE",
"105 44 LINE",
"90 42 OFFCURVE",
"57 31 OFFCURVE",
"27 21 CURVE",
"27 0 LINE"
);
},
{
closed = 1;
nodes = (
"640 328 LINE",
"640 382 LINE",
"199 382 LINE",
"199 328 LINE"
);
}
);
width = 839;
}
);
note = Hbrevebelow;
unicode = 1E2A;
},
{
glyphname = Hcircumflex;
lastChange = "2015-10-27 15:19:12 +0000";
layers = (
{
layerId = "0FC58CF8-AD3A-4320-9E57-2D2B1849830B";
name = Bold;
paths = (
{
closed = 1;
nodes = (
"812 0 LINE",
"812 19 LINE",
"782 30 OFFCURVE",
"758 37 OFFCURVE",
"733 42 CURVE",
"733 655 LINE",
"748 657 OFFCURVE",
"781 668 OFFCURVE",
"812 678 CURVE",
"812 700 LINE",
"478 700 LINE",
"478 680 LINE",
"507 670 OFFCURVE",
"532 663 OFFCURVE",
"555 658 CURVE",
"555 43 LINE",
"545 41 OFFCURVE",
"505 29 OFFCURVE",
"478 17 CURVE",
"478 0 LINE"
);
},
{
closed = 1;
nodes = (
"360 0 LINE",
"360 19 LINE",
"332 28 OFFCURVE",
"305 36 OFFCURVE",
"283 41 CURVE",
"283 656 LINE",
"292 658 OFFCURVE",
"298 658 OFFCURVE",
"360 682 CURVE",
"360 700 LINE",
"27 700 LINE",
"27 680 LINE",
"57 669 OFFCURVE",
"81 662 OFFCURVE",
"105 657 CURVE",
"105 44 LINE",
"90 42 OFFCURVE",
"57 31 OFFCURVE",
"27 21 CURVE",
"27 0 LINE"
);
},
{
closed = 1;
nodes = (
"640 328 LINE",
"640 382 LINE",
"199 382 LINE",
"199 328 LINE"
);
},
{
closed = 1;
nodes = (
"329 818 OFFCURVE",
"395 883 OFFCURVE",
"417 920 CURVE",
"421 920 LINE",
"444 883 OFFCURVE",
"509 818 OFFCURVE",
"552 784 CURVE",
"623 835 LINE",
"577 863 OFFCURVE",
"482 950 OFFCURVE",
"460 984 CURVE",
"378 984 LINE",
"356 950 OFFCURVE",
"261 863 OFFCURVE",
"215 835 CURVE",
"286 784 LINE"
);
}
);
width = 839;
}
);
note = Hcircumflex;
unicode = 0124;
},
{
glyphname = Hdotbelow;
lastChange = "2015-10-27 15:19:11 +0000";
layers = (
{
layerId = "0FC58CF8-AD3A-4320-9E57-2D2B1849830B";
name = Bold;
paths = (
{
closed = 1;
nodes = (
"812 0 LINE",
"812 19 LINE",
"782 30 OFFCURVE",
"758 37 OFFCURVE",
"733 42 CURVE",
"733 655 LINE",
"748 657 OFFCURVE",
"781 668 OFFCURVE",
"812 678 CURVE",
"812 700 LINE",
"478 700 LINE",
"478 680 LINE",
"507 670 OFFCURVE",
"532 663 OFFCURVE",
"555 658 CURVE",
"555 43 LINE",
"545 41 OFFCURVE",
"505 29 OFFCURVE",
"478 17 CURVE",
"478 0 LINE"
);
},
{
closed = 1;
nodes = (
"459 -187 OFFCURVE",
"485 -157 OFFCURVE",
"485 -120 CURVE SMOOTH",
"485 -82 OFFCURVE",
"459 -52 OFFCURVE",
"417 -52 CURVE SMOOTH",
"376 -52 OFFCURVE",
"351 -82 OFFCURVE",
"351 -120 CURVE SMOOTH",
"351 -157 OFFCURVE",
"376 -187 OFFCURVE",
"417 -187 CURVE SMOOTH"
);
},
{
closed = 1;
nodes = (
"360 0 LINE",
"360 19 LINE",
"332 28 OFFCURVE",
"305 36 OFFCURVE",
"283 41 CURVE",
"283 656 LINE",
"292 658 OFFCURVE",
"298 658 OFFCURVE",
"360 682 CURVE",
"360 700 LINE",
"27 700 LINE",
"27 680 LINE",
"57 669 OFFCURVE",
"81 662 OFFCURVE",
"105 657 CURVE",
"105 44 LINE",
"90 42 OFFCURVE",
"57 31 OFFCURVE",
"27 21 CURVE",
"27 0 LINE"
);
},
{
closed = 1;
nodes = (
"640 328 LINE",
"640 382 LINE",
"199 382 LINE",
"199 328 LINE"
);
}
);
width = 839;
}
);
note = Hdotbelow;
unicode = 1E24;
},
{
glyphname = I;
lastChange = "2015-10-27 15:19:11 +0000";
layers = (
{
layerId = "0FC58CF8-AD3A-4320-9E57-2D2B1849830B";
name = Bold;
paths = (
{
closed = 1;
nodes = (
"366 0 LINE",
"366 20 LINE",
"338 28 OFFCURVE",
"308 38 OFFCURVE",
"285 42 CURVE",
"285 656 LINE",
"313 663 OFFCURVE",
"342 670 OFFCURVE",
"366 677 CURVE",
"366 700 LINE",
"27 700 LINE",
"27 679 LINE",
"54 671 OFFCURVE",
"85 661 OFFCURVE",
"107 657 CURVE",
"107 43 LINE",
"80 37 OFFCURVE",
"51 29 OFFCURVE",
"27 22 CURVE",
"27 0 LINE"
);
}
);
width = 393;
}
);
note = I;
unicode = 0049;
},
{
glyphname = IJ;
lastChange = "2015-10-27 15:19:11 +0000";
layers = (
{
layerId = "0FC58CF8-AD3A-4320-9E57-2D2B1849830B";
name = Bold;
paths = (
{
closed = 1;
nodes = (
"707 -10 OFFCURVE",
"817 39 OFFCURVE",
"817 169 CURVE SMOOTH",
"817 655 LINE",
"831 657 OFFCURVE",
"864 668 OFFCURVE",
"894 678 CURVE",
"894 700 LINE",
"560 700 LINE",
"560 678 LINE",
"585 669 OFFCURVE",
"608 661 OFFCURVE",
"639 656 CURVE",
"639 160 LINE SMOOTH",
"639 83 OFFCURVE",
"592 56 OFFCURVE",
"541 56 CURVE SMOOTH",
"497 56 OFFCURVE",
"453 74 OFFCURVE",
"427 94 CURVE",
"401 51 LINE",
"447 11 OFFCURVE",
"522 -10 OFFCURVE",
"593 -10 CURVE SMOOTH"
);
},
{
closed = 1;
nodes = (
"366 0 LINE",
"366 20 LINE",
"338 28 OFFCURVE",
"308 38 OFFCURVE",
"285 42 CURVE",
"285 656 LINE",
"313 663 OFFCURVE",
"342 670 OFFCURVE",
"366 677 CURVE",
"366 700 LINE",
"27 700 LINE",
"27 679 LINE",
"54 671 OFFCURVE",
"85 661 OFFCURVE",
"107 657 CURVE",
"107 43 LINE",
"80 37 OFFCURVE",
"51 29 OFFCURVE",
"27 22 CURVE",
"27 0 LINE"
);
}
);
width = 922;
}
);
note = IJ;
rightKerningGroup = J;
unicode = 0132;
},
{
glyphname = Iacute;
lastChange = "2015-10-27 15:19:12 +0000";
layers = (
{
layerId = "0FC58CF8-AD3A-4320-9E57-2D2B1849830B";
name = Bold;
paths = (
{
closed = 1;
nodes = (
"366 0 LINE",
"366 20 LINE",
"338 28 OFFCURVE",
"308 38 OFFCURVE",
"285 42 CURVE",
"285 656 LINE",
"313 663 OFFCURVE",
"342 670 OFFCURVE",
"366 677 CURVE",
"366 700 LINE",
"27 700 LINE",
"27 679 LINE",
"54 671 OFFCURVE",
"85 661 OFFCURVE",
"107 657 CURVE",
"107 43 LINE",
"80 37 OFFCURVE",
"51 29 OFFCURVE",
"27 22 CURVE",
"27 0 LINE"
);
},
{
closed = 1;
nodes = (
"264 882 LINE SMOOTH",
"299 903 OFFCURVE",
"319 923 OFFCURVE",
"319 950 CURVE SMOOTH",
"319 970 OFFCURVE",
"304 996 OFFCURVE",
"265 996 CURVE SMOOTH",
"231 996 OFFCURVE",
"200 964 OFFCURVE",
"194 958 CURVE",
"70 825 LINE",
"98 786 LINE"
);
}
);
width = 393;
}
);
note = Iacute;
unicode = 00CD;
},
{
glyphname = Ibreve;
lastChange = "2015-10-27 15:19:12 +0000";
layers = (
{
layerId = "0FC58CF8-AD3A-4320-9E57-2D2B1849830B";
name = Bold;
paths = (
{
closed = 1;
nodes = (
"366 0 LINE",
"366 20 LINE",
"338 28 OFFCURVE",
"308 38 OFFCURVE",
"285 42 CURVE",
"285 656 LINE",
"313 663 OFFCURVE",
"342 670 OFFCURVE",
"366 677 CURVE",
"366 700 LINE",
"27 700 LINE",
"27 679 LINE",
"54 671 OFFCURVE",
"85 661 OFFCURVE",
"107 657 CURVE",
"107 43 LINE",
"80 37 OFFCURVE",
"51 29 OFFCURVE",
"27 22 CURVE",
"27 0 LINE"
);
},
{
closed = 1;
nodes = (
"298 784 OFFCURVE",
"369 828 OFFCURVE",
"385 921 CURVE",
"289 921 LINE",
"282 849 OFFCURVE",
"237 840 OFFCURVE",
"196 840 CURVE SMOOTH",
"155 840 OFFCURVE",
"109 849 OFFCURVE",
"102 921 CURVE",
"6 921 LINE",
"23 828 OFFCURVE",
"93 784 OFFCURVE",
"196 784 CURVE SMOOTH"
);
}
);
width = 393;
}
);
note = Ibreve;
unicode = 012C;
},
{
glyphname = Icaron;
lastChange = "2015-10-27 15:19:12 +0000";
layers = (
{
layerId = "0FC58CF8-AD3A-4320-9E57-2D2B1849830B";
name = Bold;
paths = (
{
closed = 1;
nodes = (
"366 0 LINE",
"366 20 LINE",
"338 28 OFFCURVE",
"308 38 OFFCURVE",
"285 42 CURVE",
"285 656 LINE",
"313 663 OFFCURVE",
"342 670 OFFCURVE",
"366 677 CURVE",
"366 700 LINE",
"27 700 LINE",
"27 679 LINE",
"54 671 OFFCURVE",
"85 661 OFFCURVE",
"107 657 CURVE",
"107 43 LINE",
"80 37 OFFCURVE",
"51 29 OFFCURVE",
"27 22 CURVE",
"27 0 LINE"
);
},
{
closed = 1;
nodes = (
"237 786 LINE",
"259 820 OFFCURVE",
"354 906 OFFCURVE",
"400 935 CURVE",
"329 985 LINE",
"286 952 OFFCURVE",
"221 887 OFFCURVE",
"198 850 CURVE",
"194 850 LINE",
"172 887 OFFCURVE",
"106 952 OFFCURVE",
"63 985 CURVE",
"-8 935 LINE",
"38 906 OFFCURVE",
"133 820 OFFCURVE",
"155 786 CURVE"
);
}
);
width = 393;
}
);
note = Icaron;
unicode = 01CF;
},
{
glyphname = Icircumflex;
lastChange = "2015-10-27 15:19:11 +0000";
layers = (
{
layerId = "0FC58CF8-AD3A-4320-9E57-2D2B1849830B";
name = Bold;
paths = (
{
closed = 1;
nodes = (
"366 0 LINE",
"366 20 LINE",
"338 28 OFFCURVE",
"308 38 OFFCURVE",
"285 42 CURVE",
"285 656 LINE",
"313 663 OFFCURVE",
"342 670 OFFCURVE",
"366 677 CURVE",
"366 700 LINE",
"27 700 LINE",
"27 679 LINE",
"54 671 OFFCURVE",
"85 661 OFFCURVE",
"107 657 CURVE",
"107 43 LINE",
"80 37 OFFCURVE",
"51 29 OFFCURVE",
"27 22 CURVE",
"27 0 LINE"
);
},
{
closed = 1;
nodes = (
"106 818 OFFCURVE",
"172 883 OFFCURVE",
"194 920 CURVE",
"198 920 LINE",
"221 883 OFFCURVE",
"286 818 OFFCURVE",
"329 784 CURVE",
"400 835 LINE",
"354 863 OFFCURVE",
"259 950 OFFCURVE",
"237 984 CURVE",
"155 984 LINE",
"133 950 OFFCURVE",
"38 863 OFFCURVE",
"-8 835 CURVE",
"63 784 LINE"
);
}
);
width = 393;
}
);
note = Icircumflex;
unicode = 00CE;
},
{
glyphname = Idieresis;
lastChange = "2015-10-27 15:19:12 +0000";
layers = (
{
layerId = "0FC58CF8-AD3A-4320-9E57-2D2B1849830B";
name = Bold;
paths = (
{
closed = 1;
nodes = (
"366 0 LINE",
"366 20 LINE",
"338 28 OFFCURVE",
"308 38 OFFCURVE",
"285 42 CURVE",
"285 656 LINE",
"313 663 OFFCURVE",
"342 670 OFFCURVE",
"366 677 CURVE",
"366 700 LINE",
"27 700 LINE",
"27 679 LINE",
"54 671 OFFCURVE",
"85 661 OFFCURVE",
"107 657 CURVE",
"107 43 LINE",
"80 37 OFFCURVE",
"51 29 OFFCURVE",
"27 22 CURVE",
"27 0 LINE"
);
},
{
closed = 1;
nodes = (
"113 785 OFFCURVE",
"139 815 OFFCURVE",
"139 852 CURVE SMOOTH",
"139 890 OFFCURVE",
"113 920 OFFCURVE",
"72 920 CURVE SMOOTH",
"31 920 OFFCURVE",
"5 890 OFFCURVE",
"5 852 CURVE SMOOTH",
"5 815 OFFCURVE",
"31 785 OFFCURVE",
"72 785 CURVE SMOOTH"
);
},
{
closed = 1;
nodes = (
"360 785 OFFCURVE",
"386 815 OFFCURVE",
"386 852 CURVE SMOOTH",
"386 890 OFFCURVE",
"360 920 OFFCURVE",
"318 920 CURVE SMOOTH",
"277 920 OFFCURVE",
"252 890 OFFCURVE",
"252 852 CURVE SMOOTH",
"252 815 OFFCURVE",
"277 785 OFFCURVE",
"318 785 CURVE SMOOTH"
);
}
);
width = 393;
}
);
note = Idieresis;
unicode = 00CF;
},
{
glyphname = Idotaccent;
lastChange = "2015-10-27 15:19:12 +0000";
layers = (
{
layerId = "0FC58CF8-AD3A-4320-9E57-2D2B1849830B";
name = Bold;
paths = (
{
closed = 1;
nodes = (
"366 0 LINE",
"366 20 LINE",
"338 28 OFFCURVE",
"308 38 OFFCURVE",
"285 42 CURVE",
"285 656 LINE",
"313 663 OFFCURVE",
"342 670 OFFCURVE",
"366 677 CURVE",
"366 700 LINE",
"27 700 LINE",
"27 679 LINE",
"54 671 OFFCURVE",
"85 661 OFFCURVE",
"107 657 CURVE",
"107 43 LINE",
"80 37 OFFCURVE",
"51 29 OFFCURVE",
"27 22 CURVE",
"27 0 LINE"
);
},
{
closed = 1;
nodes = (
"235 785 OFFCURVE",
"261 815 OFFCURVE",
"261 852 CURVE SMOOTH",
"261 890 OFFCURVE",
"235 920 OFFCURVE",
"194 920 CURVE SMOOTH",
"152 920 OFFCURVE",
"127 890 OFFCURVE",
"127 852 CURVE SMOOTH",
"127 815 OFFCURVE",
"152 785 OFFCURVE",
"194 785 CURVE SMOOTH"
);
}
);
width = 393;
}
);
note = Idotaccent;
unicode = 0130;
},
{
glyphname = Idotbelow;
lastChange = "2015-10-27 15:19:11 +0000";
layers = (
{
layerId = "0FC58CF8-AD3A-4320-9E57-2D2B1849830B";
name = Bold;
paths = (
{
closed = 1;
nodes = (
"366 0 LINE",
"366 20 LINE",
"338 28 OFFCURVE",
"308 38 OFFCURVE",
"285 42 CURVE",
"285 656 LINE",
"313 663 OFFCURVE",
"342 670 OFFCURVE",
"366 677 CURVE",
"366 700 LINE",
"27 700 LINE",
"27 679 LINE",
"54 671 OFFCURVE",
"85 661 OFFCURVE",
"107 657 CURVE",
"107 43 LINE",
"80 37 OFFCURVE",
"51 29 OFFCURVE",
"27 22 CURVE",
"27 0 LINE"
);
},
{
closed = 1;
nodes = (
"237 -187 OFFCURVE",
"263 -157 OFFCURVE",
"263 -120 CURVE SMOOTH",
"263 -82 OFFCURVE",
"237 -52 OFFCURVE",
"195 -52 CURVE SMOOTH",
"154 -52 OFFCURVE",
"129 -82 OFFCURVE",
"129 -120 CURVE SMOOTH",
"129 -157 OFFCURVE",
"154 -187 OFFCURVE",
"195 -187 CURVE SMOOTH"
);
}
);
width = 393;
}
);
note = Idotbelow;
unicode = 1ECA;
},
{
glyphname = Igrave;
lastChange = "2015-10-27 15:19:11 +0000";
layers = (
{
layerId = "0FC58CF8-AD3A-4320-9E57-2D2B1849830B";
name = Bold;
paths = (
{
closed = 1;
nodes = (
"366 0 LINE",
"366 20 LINE",
"338 28 OFFCURVE",
"308 38 OFFCURVE",
"285 42 CURVE",
"285 656 LINE",
"313 663 OFFCURVE",
"342 670 OFFCURVE",
"366 677 CURVE",
"366 700 LINE",
"27 700 LINE",
"27 679 LINE",
"54 671 OFFCURVE",
"85 661 OFFCURVE",
"107 657 CURVE",
"107 43 LINE",
"80 37 OFFCURVE",
"51 29 OFFCURVE",
"27 22 CURVE",
"27 0 LINE"
);
},
{
closed = 1;
nodes = (
"320 825 LINE",
"195 958 LINE",
"189 965 OFFCURVE",
"162 996 OFFCURVE",
"125 996 CURVE SMOOTH",
"86 996 OFFCURVE",
"70 970 OFFCURVE",
"70 950 CURVE SMOOTH",
"70 923 OFFCURVE",
"90 903 OFFCURVE",
"126 882 CURVE SMOOTH",
"292 786 LINE"
);
}
);
width = 393;
}
);
note = Igrave;
unicode = 00CC;
},
{
glyphname = Ihookabove;
lastChange = "2015-10-27 15:19:11 +0000";
layers = (
{
layerId = "0FC58CF8-AD3A-4320-9E57-2D2B1849830B";
name = Bold;
paths = (
{
closed = 1;
nodes = (
"366 0 LINE",
"366 20 LINE",
"338 28 OFFCURVE",
"308 38 OFFCURVE",
"285 42 CURVE",
"285 656 LINE",
"313 663 OFFCURVE",
"342 670 OFFCURVE",
"366 677 CURVE",
"366 700 LINE",
"27 700 LINE",
"27 679 LINE",
"54 671 OFFCURVE",
"85 661 OFFCURVE",
"107 657 CURVE",
"107 43 LINE",
"80 37 OFFCURVE",
"51 29 OFFCURVE",
"27 22 CURVE",
"27 0 LINE"
);
},
{
closed = 1;
nodes = (
"237 784 LINE",
"247 855 LINE",
"301 860 OFFCURVE",
"346 880 OFFCURVE",
"346 944 CURVE SMOOTH",
"346 1014 OFFCURVE",
"280 1040 OFFCURVE",
"217 1040 CURVE SMOOTH",
"183 1040 OFFCURVE",
"150 1032 OFFCURVE",
"128 1021 CURVE",
"135 979 LINE",
"156 991 OFFCURVE",
"180 995 OFFCURVE",
"198 995 CURVE SMOOTH",
"240 995 OFFCURVE",
"261 971 OFFCURVE",
"261 945 CURVE SMOOTH",
"261 905 OFFCURVE",
"229 893 OFFCURVE",
"204 893 CURVE SMOOTH",
"162 893 LINE",
"167 784 LINE"
);
}
);
width = 393;
}
);
note = Ihookabove;
unicode = 1EC8;
},
{
glyphname = Imacron;
lastChange = "2015-10-27 15:19:11 +0000";
layers = (
{
layerId = "0FC58CF8-AD3A-4320-9E57-2D2B1849830B";
name = Bold;
paths = (
{
closed = 1;
nodes = (
"366 0 LINE",
"366 20 LINE",
"338 28 OFFCURVE",
"308 38 OFFCURVE",
"285 42 CURVE",
"285 656 LINE",
"313 663 OFFCURVE",
"342 670 OFFCURVE",
"366 677 CURVE",
"366 700 LINE",
"27 700 LINE",
"27 679 LINE",
"54 671 OFFCURVE",
"85 661 OFFCURVE",
"107 657 CURVE",
"107 43 LINE",
"80 37 OFFCURVE",
"51 29 OFFCURVE",
"27 22 CURVE",
"27 0 LINE"
);
},
{
closed = 1;
nodes = (
"421 785 LINE",
"421 838 LINE",
"-28 838 LINE",
"-28 785 LINE"
);
}
);
width = 393;
}
);
note = Imacron;
unicode = 012A;
},
{
glyphname = Iogonek;
lastChange = "2015-10-27 15:19:12 +0000";
layers = (
{
layerId = "0FC58CF8-AD3A-4320-9E57-2D2B1849830B";
name = Bold;
paths = (
{
closed = 1;
nodes = (
"366 0 LINE",
"366 20 LINE",
"338 28 OFFCURVE",
"308 38 OFFCURVE",
"285 42 CURVE",
"285 656 LINE",
"313 663 OFFCURVE",
"342 670 OFFCURVE",
"366 677 CURVE",
"366 700 LINE",
"27 700 LINE",
"27 679 LINE",
"54 671 OFFCURVE",
"85 661 OFFCURVE",
"107 657 CURVE",
"107 43 LINE",
"80 37 OFFCURVE",
"51 29 OFFCURVE",
"27 22 CURVE",
"27 0 LINE"
);
},
{
closed = 1;
nodes = (
"363 -212 OFFCURVE",
"410 -201 OFFCURVE",
"437 -183 CURVE",
"437 -113 LINE",
"410 -130 OFFCURVE",
"385 -136 OFFCURVE",
"366 -136 CURVE SMOOTH",
"328 -136 OFFCURVE",
"304 -114 OFFCURVE",
"304 -84 CURVE SMOOTH",
"304 -53 OFFCURVE",
"330 -18 OFFCURVE",
"352 0 CURVE",
"271 0 LINE",
"208 -18 OFFCURVE",
"173 -74 OFFCURVE",
"173 -119 CURVE SMOOTH",
"173 -177 OFFCURVE",
"226 -212 OFFCURVE",
"315 -212 CURVE SMOOTH"
);
}
);
width = 393;
}
);
note = Iogonek;
unicode = 012E;
},
{
glyphname = Itilde;
lastChange = "2015-10-27 15:19:12 +0000";
layers = (
{
layerId = "0FC58CF8-AD3A-4320-9E57-2D2B1849830B";
name = Bold;
paths = (
{
closed = 1;
nodes = (
"366 0 LINE",
"366 20 LINE",
"338 28 OFFCURVE",
"308 38 OFFCURVE",
"285 42 CURVE",
"285 656 LINE",
"313 663 OFFCURVE",
"342 670 OFFCURVE",
"366 677 CURVE",
"366 700 LINE",
"27 700 LINE",
"27 679 LINE",
"54 671 OFFCURVE",
"85 661 OFFCURVE",
"107 657 CURVE",
"107 43 LINE",
"80 37 OFFCURVE",
"51 29 OFFCURVE",
"27 22 CURVE",
"27 0 LINE"
);
},
{
closed = 1;
nodes = (
"64 786 LINE",
"70 817 OFFCURVE",
"89 837 OFFCURVE",
"118 837 CURVE SMOOTH",
"153 837 OFFCURVE",
"218 786 OFFCURVE",
"279 786 CURVE SMOOTH",
"363 786 OFFCURVE",
"401 836 OFFCURVE",
"408 910 CURVE",
"329 910 LINE",
"318 863 OFFCURVE",
"295 857 OFFCURVE",
"271 857 CURVE SMOOTH",
"230 857 OFFCURVE",
"191 908 OFFCURVE",
"114 908 CURVE SMOOTH",
"41 908 OFFCURVE",
"-4 866 OFFCURVE",
"-16 786 CURVE"
);
}
);
width = 393;
}
);
note = Itilde;
unicode = 0128;
},
{
glyphname = J;
lastChange = "2015-10-27 15:19:11 +0000";
layers = (
{
layerId = "0FC58CF8-AD3A-4320-9E57-2D2B1849830B";
name = Bold;
paths = (
{
closed = 1;
nodes = (
"323 -10 OFFCURVE",
"433 39 OFFCURVE",
"433 169 CURVE SMOOTH",
"433 655 LINE",
"447 657 OFFCURVE",
"480 668 OFFCURVE",
"510 678 CURVE",
"510 700 LINE",
"176 700 LINE",
"176 678 LINE",
"201 669 OFFCURVE",
"224 661 OFFCURVE",
"255 656 CURVE",
"255 160 LINE SMOOTH",
"255 83 OFFCURVE",
"208 56 OFFCURVE",
"157 56 CURVE SMOOTH",
"113 56 OFFCURVE",
"69 74 OFFCURVE",
"43 94 CURVE",
"17 51 LINE",
"63 11 OFFCURVE",
"138 -10 OFFCURVE",
"209 -10 CURVE SMOOTH"
);
}
);
width = 537;
}
);
leftKerningGroup = J;
note = J;
rightKerningGroup = J;
unicode = 004A;
},
{
glyphname = Jcircumflex;
lastChange = "2015-10-27 15:19:12 +0000";
layers = (
{
layerId = "0FC58CF8-AD3A-4320-9E57-2D2B1849830B";
name = Bold;
paths = (
{
closed = 1;
nodes = (
"323 -10 OFFCURVE",
"433 39 OFFCURVE",
"433 169 CURVE SMOOTH",
"433 655 LINE",
"447 657 OFFCURVE",
"480 668 OFFCURVE",
"510 678 CURVE",
"510 700 LINE",
"176 700 LINE",
"176 678 LINE",
"201 669 OFFCURVE",
"224 661 OFFCURVE",
"255 656 CURVE",
"255 160 LINE SMOOTH",
"255 83 OFFCURVE",
"208 56 OFFCURVE",
"157 56 CURVE SMOOTH",
"113 56 OFFCURVE",
"69 74 OFFCURVE",
"43 94 CURVE",
"17 51 LINE",
"63 11 OFFCURVE",
"138 -10 OFFCURVE",
"209 -10 CURVE SMOOTH"
);
},
{
closed = 1;
nodes = (
"252 818 OFFCURVE",
"318 883 OFFCURVE",
"340 920 CURVE",
"344 920 LINE",
"367 883 OFFCURVE",
"432 818 OFFCURVE",
"475 784 CURVE",
"546 835 LINE",
"500 863 OFFCURVE",
"405 950 OFFCURVE",
"383 984 CURVE",
"301 984 LINE",
"279 950 OFFCURVE",
"184 863 OFFCURVE",
"138 835 CURVE",
"209 784 LINE"
);
}
);
width = 537;
}
);
leftKerningGroup = J;
note = Jcircumflex;
rightKerningGroup = J;
unicode = 0134;
},
{
glyphname = K;
lastChange = "2015-10-27 15:19:12 +0000";
layers = (
{
layerId = "0FC58CF8-AD3A-4320-9E57-2D2B1849830B";
name = Bold;
paths = (
{
closed = 1;
nodes = (
"671 646 LINE",
"691 664 OFFCURVE",
"725 664 OFFCURVE",
"750 672 CURVE",
"750 700 LINE",
"508 700 LINE",
"508 672 LINE",
"535 666 OFFCURVE",
"565 662 OFFCURVE",
"589 655 CURVE",
"224 278 LINE",
"224 184 LINE"
);
},
{
closed = 1;
nodes = (
"363 0 LINE",
"363 20 LINE",
"336 28 OFFCURVE",
"307 38 OFFCURVE",
"284 42 CURVE",
"284 656 LINE",
"310 662 OFFCURVE",
"337 670 OFFCURVE",
"363 677 CURVE",
"363 700 LINE",
"27 700 LINE",
"27 680 LINE",
"55 670 OFFCURVE",
"83 662 OFFCURVE",
"106 657 CURVE",
"106 43 LINE",
"103 43 OFFCURVE",
"55 30 OFFCURVE",
"27 22 CURVE",
"27 0 LINE"
);
},
{
closed = 1;
nodes = (
"823 0 LINE",
"823 20 LINE",
"788 31 OFFCURVE",
"758 38 OFFCURVE",
"735 42 CURVE",
"441 442 LINE",
"337 335 LINE",
"580 0 LINE"
);
}
);
width = 828;
}
);
note = K;
rightKerningGroup = K;
unicode = 004B;
},
{
glyphname = Kcommaaccent;
lastChange = "2015-10-27 15:19:12 +0000";
layers = (
{
layerId = "0FC58CF8-AD3A-4320-9E57-2D2B1849830B";
name = Bold;
paths = (
{
closed = 1;
nodes = (
"671 646 LINE",
"691 664 OFFCURVE",
"725 664 OFFCURVE",
"750 672 CURVE",
"750 700 LINE",
"508 700 LINE",
"508 672 LINE",
"535 666 OFFCURVE",
"565 662 OFFCURVE",
"589 655 CURVE",
"224 278 LINE",
"224 184 LINE"
);
},
{
closed = 1;
nodes = (
"462 -338 OFFCURVE",
"509 -250 OFFCURVE",
"509 -167 CURVE SMOOTH",
"509 -124 OFFCURVE",
"482 -85 OFFCURVE",
"424 -85 CURVE SMOOTH",
"382 -85 OFFCURVE",
"344 -113 OFFCURVE",
"344 -158 CURVE SMOOTH",
"344 -199 OFFCURVE",
"378 -231 OFFCURVE",
"420 -234 CURVE",
"412 -279 OFFCURVE",
"373 -325 OFFCURVE",
"348 -350 CURVE",
"401 -390 LINE"
);
},
{
closed = 1;
nodes = (
"363 0 LINE",
"363 20 LINE",
"336 28 OFFCURVE",
"307 38 OFFCURVE",
"284 42 CURVE",
"284 656 LINE",
"310 662 OFFCURVE",
"337 670 OFFCURVE",
"363 677 CURVE",
"363 700 LINE",
"27 700 LINE",
"27 680 LINE",
"55 670 OFFCURVE",
"83 662 OFFCURVE",
"106 657 CURVE",
"106 43 LINE",
"103 43 OFFCURVE",
"55 30 OFFCURVE",
"27 22 CURVE",
"27 0 LINE"
);
},
{
closed = 1;
nodes = (
"823 0 LINE",
"823 20 LINE",
"788 31 OFFCURVE",
"758 38 OFFCURVE",
"735 42 CURVE",
"441 442 LINE",
"337 335 LINE",
"580 0 LINE"
);
}
);
width = 828;
}
);
note = Kcommaaccent;
rightKerningGroup = K;
unicode = 0136;
},
{
glyphname = L;
lastChange = "2015-10-27 15:19:12 +0000";
layers = (
{
layerId = "0FC58CF8-AD3A-4320-9E57-2D2B1849830B";
name = Bold;
paths = (
{
closed = 1;
nodes = (
"618 0 LINE",
"637 185 LINE",
"600 185 LINE",
"581 164 OFFCURVE",
"548 92 OFFCURVE",
"545 54 CURVE",
"292 54 LINE",
"292 656 LINE",
"318 662 OFFCURVE",
"346 670 OFFCURVE",
"372 677 CURVE",
"372 700 LINE",
"35 700 LINE",
"35 680 LINE",
"63 670 OFFCURVE",
"90 662 OFFCURVE",
"114 657 CURVE",
"114 42 LINE",
"89 38 OFFCURVE",
"56 30 OFFCURVE",
"27 20 CURVE",
"27 0 LINE"
);
}
);
width = 673;
}
);
note = L;
rightKerningGroup = L;
unicode = 004C;
},
{
glyphname = Lacute;
lastChange = "2015-10-27 15:19:12 +0000";
layers = (
{
layerId = "0FC58CF8-AD3A-4320-9E57-2D2B1849830B";
name = Bold;
paths = (
{
closed = 1;
nodes = (
"618 0 LINE",
"637 185 LINE",
"600 185 LINE",
"581 164 OFFCURVE",
"548 92 OFFCURVE",
"545 54 CURVE",
"292 54 LINE",
"292 656 LINE",
"318 662 OFFCURVE",
"346 670 OFFCURVE",
"372 677 CURVE",
"372 700 LINE",
"35 700 LINE",
"35 680 LINE",
"63 670 OFFCURVE",
"90 662 OFFCURVE",
"114 657 CURVE",
"114 42 LINE",
"89 38 OFFCURVE",
"56 30 OFFCURVE",
"27 20 CURVE",
"27 0 LINE"
);
},
{
closed = 1;
nodes = (
"293 882 LINE SMOOTH",
"328 903 OFFCURVE",
"348 923 OFFCURVE",
"348 950 CURVE SMOOTH",
"348 970 OFFCURVE",
"333 996 OFFCURVE",
"294 996 CURVE SMOOTH",
"260 996 OFFCURVE",
"229 964 OFFCURVE",
"223 958 CURVE",
"99 825 LINE",
"127 786 LINE"
);
}
);
width = 673;
}
);
note = Lacute;
rightKerningGroup = L;
unicode = 0139;
},
{
glyphname = Lcaron;
lastChange = "2015-10-27 15:19:12 +0000";
layers = (
{
layerId = "0FC58CF8-AD3A-4320-9E57-2D2B1849830B";
name = Bold;
paths = (
{
closed = 1;
nodes = (
"618 0 LINE",
"637 185 LINE",
"600 185 LINE",
"581 164 OFFCURVE",
"548 92 OFFCURVE",
"545 54 CURVE",
"292 54 LINE",
"292 656 LINE",
"318 662 OFFCURVE",
"346 670 OFFCURVE",
"372 677 CURVE",
"372 700 LINE",
"35 700 LINE",
"35 680 LINE",
"63 670 OFFCURVE",
"90 662 OFFCURVE",
"114 657 CURVE",
"114 42 LINE",
"89 38 OFFCURVE",
"56 30 OFFCURVE",
"27 20 CURVE",
"27 0 LINE"
);
},
{
closed = 1;
nodes = (
"565 446 OFFCURVE",
"618 535 OFFCURVE",
"618 618 CURVE SMOOTH",
"618 660 OFFCURVE",
"595 710 OFFCURVE",
"527 710 CURVE SMOOTH",
"470 710 OFFCURVE",
"444 669 OFFCURVE",
"444 624 CURVE SMOOTH",
"444 581 OFFCURVE",
"477 549 OFFCURVE",
"524 549 CURVE",
"516 504 OFFCURVE",
"476 458 OFFCURVE",
"451 433 CURVE",
"505 393 LINE"
);
}
);
width = 673;
}
);
note = Lcaron;
rightKerningGroup = L;
unicode = 013D;
},
{
glyphname = Lcommaaccent;
lastChange = "2015-10-27 15:19:11 +0000";
layers = (
{
layerId = "0FC58CF8-AD3A-4320-9E57-2D2B1849830B";
name = Bold;
paths = (
{
closed = 1;
nodes = (
"618 0 LINE",
"637 185 LINE",
"600 185 LINE",
"581 164 OFFCURVE",
"548 92 OFFCURVE",
"545 54 CURVE",
"292 54 LINE",
"292 656 LINE",
"318 662 OFFCURVE",
"346 670 OFFCURVE",
"372 677 CURVE",
"372 700 LINE",
"35 700 LINE",
"35 680 LINE",
"63 670 OFFCURVE",
"90 662 OFFCURVE",
"114 657 CURVE",
"114 42 LINE",
"89 38 OFFCURVE",
"56 30 OFFCURVE",
"27 20 CURVE",
"27 0 LINE"
);
},
{
closed = 1;
nodes = (
"384 -338 OFFCURVE",
"431 -250 OFFCURVE",
"431 -167 CURVE SMOOTH",
"431 -124 OFFCURVE",
"404 -85 OFFCURVE",
"346 -85 CURVE SMOOTH",
"304 -85 OFFCURVE",
"266 -113 OFFCURVE",
"266 -158 CURVE SMOOTH",
"266 -199 OFFCURVE",
"300 -231 OFFCURVE",
"342 -234 CURVE",
"334 -279 OFFCURVE",
"295 -325 OFFCURVE",
"270 -350 CURVE",
"323 -390 LINE"
);
}
);
width = 673;
}
);
note = Lcommaaccent;
rightKerningGroup = L;
unicode = 013B;
},
{
glyphname = Ldot;
lastChange = "2015-10-27 15:19:11 +0000";
layers = (
{
layerId = "0FC58CF8-AD3A-4320-9E57-2D2B1849830B";
name = Bold;
paths = (
{
closed = 1;
nodes = (
"618 0 LINE",
"637 185 LINE",
"600 185 LINE",
"581 164 OFFCURVE",
"548 92 OFFCURVE",
"545 54 CURVE",
"292 54 LINE",
"292 656 LINE",
"318 662 OFFCURVE",
"346 670 OFFCURVE",
"372 677 CURVE",
"372 700 LINE",
"35 700 LINE",
"35 680 LINE",
"63 670 OFFCURVE",
"90 662 OFFCURVE",
"114 657 CURVE",
"114 42 LINE",
"89 38 OFFCURVE",
"56 30 OFFCURVE",
"27 20 CURVE",
"27 0 LINE"
);
},
{
closed = 1;
nodes = (
"526 326 OFFCURVE",
"552 355 OFFCURVE",
"552 393 CURVE SMOOTH",
"552 430 OFFCURVE",
"526 460 OFFCURVE",
"485 460 CURVE SMOOTH",
"443 460 OFFCURVE",
"418 430 OFFCURVE",
"418 393 CURVE SMOOTH",
"418 355 OFFCURVE",
"443 326 OFFCURVE",
"485 326 CURVE SMOOTH"
);
}
);
width = 673;
}
);
note = Ldot;
rightKerningGroup = L;
unicode = 013F;
},
{
glyphname = Ldotbelow;
lastChange = "2015-10-27 15:19:12 +0000";
layers = (
{
layerId = "0FC58CF8-AD3A-4320-9E57-2D2B1849830B";
name = Bold;
paths = (
{
closed = 1;
nodes = (
"618 0 LINE",
"637 185 LINE",
"600 185 LINE",
"581 164 OFFCURVE",
"548 92 OFFCURVE",
"545 54 CURVE",
"292 54 LINE",
"292 656 LINE",
"318 662 OFFCURVE",
"346 670 OFFCURVE",
"372 677 CURVE",
"372 700 LINE",
"35 700 LINE",
"35 680 LINE",
"63 670 OFFCURVE",
"90 662 OFFCURVE",
"114 657 CURVE",
"114 42 LINE",
"89 38 OFFCURVE",
"56 30 OFFCURVE",
"27 20 CURVE",
"27 0 LINE"
);
},
{
closed = 1;
nodes = (
"382 -185 OFFCURVE",
"408 -156 OFFCURVE",
"408 -118 CURVE SMOOTH",
"408 -81 OFFCURVE",
"382 -51 OFFCURVE",
"341 -51 CURVE SMOOTH",
"299 -51 OFFCURVE",
"274 -81 OFFCURVE",
"274 -118 CURVE SMOOTH",
"274 -156 OFFCURVE",
"299 -185 OFFCURVE",
"341 -185 CURVE SMOOTH"
);
}
);
width = 673;
}
);
note = Ldotbelow;
rightKerningGroup = L;
unicode = 1E36;
},
{
glyphname = Ldotbelowmacron;
lastChange = "2015-10-27 15:19:11 +0000";
layers = (
{
layerId = "0FC58CF8-AD3A-4320-9E57-2D2B1849830B";
name = Bold;
paths = (
{
closed = 1;
nodes = (
"618 0 LINE",
"637 185 LINE",
"600 185 LINE",
"581 164 OFFCURVE",
"548 92 OFFCURVE",
"545 54 CURVE",
"292 54 LINE",
"292 656 LINE",
"318 662 OFFCURVE",
"346 670 OFFCURVE",
"372 677 CURVE",
"372 700 LINE",
"35 700 LINE",
"35 680 LINE",
"63 670 OFFCURVE",
"90 662 OFFCURVE",
"114 657 CURVE",
"114 42 LINE",
"89 38 OFFCURVE",
"56 30 OFFCURVE",
"27 20 CURVE",
"27 0 LINE"
);
},
{
closed = 1;
nodes = (
"382 -185 OFFCURVE",
"408 -156 OFFCURVE",
"408 -118 CURVE SMOOTH",
"408 -81 OFFCURVE",
"382 -51 OFFCURVE",
"341 -51 CURVE SMOOTH",
"299 -51 OFFCURVE",
"274 -81 OFFCURVE",
"274 -118 CURVE SMOOTH",
"274 -156 OFFCURVE",
"299 -185 OFFCURVE",
"341 -185 CURVE SMOOTH"
);
},
{
closed = 1;
nodes = (
"405 785 LINE",
"405 837 LINE",
"-4 837 LINE",
"-4 785 LINE"
);
}
);
width = 673;
}
);
note = Ldotbelowmacron;
rightKerningGroup = L;
unicode = 1E38;
},
{
glyphname = Llinebelow;
lastChange = "2015-10-27 15:19:11 +0000";
layers = (
{
layerId = "0FC58CF8-AD3A-4320-9E57-2D2B1849830B";
name = Bold;
paths = (
{
closed = 1;
nodes = (
"618 0 LINE",
"637 185 LINE",
"600 185 LINE",
"581 164 OFFCURVE",
"548 92 OFFCURVE",
"545 54 CURVE",
"292 54 LINE",
"292 656 LINE",
"318 662 OFFCURVE",
"346 670 OFFCURVE",
"372 677 CURVE",
"372 700 LINE",
"35 700 LINE",
"35 680 LINE",
"63 670 OFFCURVE",
"90 662 OFFCURVE",
"114 657 CURVE",
"114 42 LINE",
"89 38 OFFCURVE",
"56 30 OFFCURVE",
"27 20 CURVE",
"27 0 LINE"
);
},
{
closed = 1;
nodes = (
"536 -111 LINE",
"536 -58 LINE",
"127 -58 LINE",
"127 -111 LINE"
);
}
);
width = 673;
}
);
note = Llinebelow;
rightKerningGroup = L;
unicode = 1E3A;
},
{
glyphname = Lslash;
lastChange = "2015-10-27 15:19:12 +0000";
layers = (
{
layerId = "0FC58CF8-AD3A-4320-9E57-2D2B1849830B";
name = Bold;
paths = (
{
closed = 1;
nodes = (
"618 0 LINE",
"637 185 LINE",
"600 185 LINE",
"581 164 OFFCURVE",
"548 92 OFFCURVE",
"545 54 CURVE",
"292 54 LINE",
"292 656 LINE",
"318 662 OFFCURVE",
"346 670 OFFCURVE",
"372 677 CURVE",
"372 700 LINE",
"35 700 LINE",
"35 680 LINE",
"63 670 OFFCURVE",
"90 662 OFFCURVE",
"114 657 CURVE",
"114 42 LINE",
"89 38 OFFCURVE",
"56 30 OFFCURVE",
"27 20 CURVE",
"27 0 LINE"
);
},
{
closed = 1;
nodes = (
"486 375 LINE",
"486 450 LINE",
"40 290 LINE",
"40 216 LINE"
);
}
);
width = 673;
}
);
note = Lslash;
rightKerningGroup = L;
unicode = 0141;
},
{
glyphname = M;
lastChange = "2015-10-27 15:19:12 +0000";
layers = (
{
layerId = "0FC58CF8-AD3A-4320-9E57-2D2B1849830B";
name = Bold;
paths = (
{
closed = 1;
nodes = (
"253 0 LINE",
"253 19 LINE",
"224 28 OFFCURVE",
"199 35 OFFCURVE",
"174 41 CURVE",
"174 579 LINE",
"382 75 LINE",
"486 75 LINE",
"698 565 LINE",
"698 41 LINE",
"673 35 OFFCURVE",
"649 28 OFFCURVE",
"620 19 CURVE",
"620 0 LINE",
"955 0 LINE",
"955 19 LINE",
"926 28 OFFCURVE",
"900 35 OFFCURVE",
"876 41 CURVE",
"876 655 LINE",
"903 663 OFFCURVE",
"931 672 OFFCURVE",
"955 680 CURVE",
"955 700 LINE",
"692 700 LINE",
"480 206 LINE",
"289 700 LINE",
"27 700 LINE",
"27 680 LINE",
"55 670 OFFCURVE",
"83 662 OFFCURVE",
"106 657 CURVE",
"106 41 LINE",
"82 35 OFFCURVE",
"57 28 OFFCURVE",
"28 19 CURVE",
"28 0 LINE"
);
}
);
width = 982;
}
);
note = M;
unicode = 004D;
},
{
glyphname = Mdotbelow;
lastChange = "2015-10-27 15:19:11 +0000";
layers = (
{
layerId = "0FC58CF8-AD3A-4320-9E57-2D2B1849830B";
name = Bold;
paths = (
{
closed = 1;
nodes = (
"253 0 LINE",
"253 19 LINE",
"224 28 OFFCURVE",
"199 35 OFFCURVE",
"174 41 CURVE",
"174 579 LINE",
"382 75 LINE",
"486 75 LINE",
"698 565 LINE",
"698 41 LINE",
"673 35 OFFCURVE",
"649 28 OFFCURVE",
"620 19 CURVE",
"620 0 LINE",
"955 0 LINE",
"955 19 LINE",
"926 28 OFFCURVE",
"900 35 OFFCURVE",
"876 41 CURVE",
"876 655 LINE",
"903 663 OFFCURVE",
"931 672 OFFCURVE",
"955 680 CURVE",
"955 700 LINE",
"692 700 LINE",
"480 206 LINE",
"289 700 LINE",
"27 700 LINE",
"27 680 LINE",
"55 670 OFFCURVE",
"83 662 OFFCURVE",
"106 657 CURVE",
"106 41 LINE",
"82 35 OFFCURVE",
"57 28 OFFCURVE",
"28 19 CURVE",
"28 0 LINE"
);
},
{
closed = 1;
nodes = (
"531 -187 OFFCURVE",
"557 -157 OFFCURVE",
"557 -120 CURVE SMOOTH",
"557 -82 OFFCURVE",
"531 -52 OFFCURVE",
"489 -52 CURVE SMOOTH",
"448 -52 OFFCURVE",
"423 -82 OFFCURVE",
"423 -120 CURVE SMOOTH",
"423 -157 OFFCURVE",
"448 -187 OFFCURVE",
"489 -187 CURVE SMOOTH"
);
}
);
width = 982;
}
);
note = Mdotbelow;
unicode = 1E42;
},
{
glyphname = N;
lastChange = "2015-10-27 15:19:11 +0000";
layers = (
{
layerId = "0FC58CF8-AD3A-4320-9E57-2D2B1849830B";
name = Bold;
paths = (
{
closed = 1;
nodes = (
"253 0 LINE",
"253 19 LINE",
"224 28 OFFCURVE",
"199 35 OFFCURVE",
"174 41 CURVE",
"174 611 LINE",
"595 0 LINE",
"683 0 LINE",
"683 658 LINE",
"708 664 OFFCURVE",
"732 671 OFFCURVE",
"762 680 CURVE",
"762 700 LINE",
"536 700 LINE",
"536 680 LINE",
"566 671 OFFCURVE",
"590 664 OFFCURVE",
"615 658 CURVE",
"615 213 LINE",
"282 700 LINE",
"27 700 LINE",
"27 680 LINE",
"55 670 OFFCURVE",
"82 662 OFFCURVE",
"106 657 CURVE",
"106 41 LINE",
"82 35 OFFCURVE",
"57 28 OFFCURVE",
"28 19 CURVE",
"28 0 LINE"
);
}
);
width = 789;
}
);
note = N;
unicode = 004E;
},
{
glyphname = Nacute;
lastChange = "2015-10-27 15:19:12 +0000";
layers = (
{
layerId = "0FC58CF8-AD3A-4320-9E57-2D2B1849830B";
name = Bold;
paths = (
{
closed = 1;
nodes = (
"253 0 LINE",
"253 19 LINE",
"224 28 OFFCURVE",
"199 35 OFFCURVE",
"174 41 CURVE",
"174 611 LINE",
"595 0 LINE",
"683 0 LINE",
"683 658 LINE",
"708 664 OFFCURVE",
"732 671 OFFCURVE",
"762 680 CURVE",
"762 700 LINE",
"536 700 LINE",
"536 680 LINE",
"566 671 OFFCURVE",
"590 664 OFFCURVE",
"615 658 CURVE",
"615 213 LINE",
"282 700 LINE",
"27 700 LINE",
"27 680 LINE",
"55 670 OFFCURVE",
"82 662 OFFCURVE",
"106 657 CURVE",
"106 41 LINE",
"82 35 OFFCURVE",
"57 28 OFFCURVE",
"28 19 CURVE",
"28 0 LINE"
);
},
{
closed = 1;
nodes = (
"507 882 LINE SMOOTH",
"542 903 OFFCURVE",
"562 923 OFFCURVE",
"562 950 CURVE SMOOTH",
"562 970 OFFCURVE",
"547 996 OFFCURVE",
"508 996 CURVE SMOOTH",
"474 996 OFFCURVE",
"443 964 OFFCURVE",
"437 958 CURVE",
"313 825 LINE",
"341 786 LINE"
);
}
);
width = 789;
}
);
note = Nacute;
unicode = 0143;
},
{
glyphname = Ncaron;
lastChange = "2015-10-27 15:19:11 +0000";
layers = (
{
layerId = "0FC58CF8-AD3A-4320-9E57-2D2B1849830B";
name = Bold;
paths = (
{
closed = 1;
nodes = (
"253 0 LINE",
"253 19 LINE",
"224 28 OFFCURVE",
"199 35 OFFCURVE",
"174 41 CURVE",
"174 611 LINE",
"595 0 LINE",
"683 0 LINE",
"683 658 LINE",
"708 664 OFFCURVE",
"732 671 OFFCURVE",
"762 680 CURVE",
"762 700 LINE",
"536 700 LINE",
"536 680 LINE",
"566 671 OFFCURVE",
"590 664 OFFCURVE",
"615 658 CURVE",
"615 213 LINE",
"282 700 LINE",
"27 700 LINE",
"27 680 LINE",
"55 670 OFFCURVE",
"82 662 OFFCURVE",
"106 657 CURVE",
"106 41 LINE",
"82 35 OFFCURVE",
"57 28 OFFCURVE",
"28 19 CURVE",
"28 0 LINE"
);
},
{
closed = 1;
nodes = (
"434 786 LINE",
"456 820 OFFCURVE",
"551 906 OFFCURVE",
"597 935 CURVE",
"526 985 LINE",
"483 952 OFFCURVE",
"418 887 OFFCURVE",
"395 850 CURVE",
"391 850 LINE",
"369 887 OFFCURVE",
"303 952 OFFCURVE",
"260 985 CURVE",
"189 935 LINE",
"235 906 OFFCURVE",
"330 820 OFFCURVE",
"352 786 CURVE"
);
}
);
width = 789;
}
);
note = Ncaron;
unicode = 0147;
},
{
glyphname = Ncommaaccent;
lastChange = "2015-10-27 15:19:11 +0000";
layers = (
{
layerId = "0FC58CF8-AD3A-4320-9E57-2D2B1849830B";
name = Bold;
paths = (
{
closed = 1;
nodes = (
"253 0 LINE",
"253 19 LINE",
"224 28 OFFCURVE",
"199 35 OFFCURVE",
"174 41 CURVE",
"174 611 LINE",
"595 0 LINE",
"683 0 LINE",
"683 658 LINE",
"708 664 OFFCURVE",
"732 671 OFFCURVE",
"762 680 CURVE",
"762 700 LINE",
"536 700 LINE",
"536 680 LINE",
"566 671 OFFCURVE",
"590 664 OFFCURVE",
"615 658 CURVE",
"615 213 LINE",
"282 700 LINE",
"27 700 LINE",
"27 680 LINE",
"55 670 OFFCURVE",
"82 662 OFFCURVE",
"106 657 CURVE",
"106 41 LINE",
"82 35 OFFCURVE",
"57 28 OFFCURVE",
"28 19 CURVE",
"28 0 LINE"
);
},
{
closed = 1;
nodes = (
"440 -338 OFFCURVE",
"487 -250 OFFCURVE",
"487 -167 CURVE SMOOTH",
"487 -124 OFFCURVE",
"460 -85 OFFCURVE",
"402 -85 CURVE SMOOTH",
"360 -85 OFFCURVE",
"322 -113 OFFCURVE",
"322 -158 CURVE SMOOTH",
"322 -199 OFFCURVE",
"356 -231 OFFCURVE",
"398 -234 CURVE",
"390 -279 OFFCURVE",
"351 -325 OFFCURVE",
"326 -350 CURVE",
"379 -390 LINE"
);
}
);
width = 789;
}
);
note = Ncommaaccent;
unicode = 0145;
},
{
glyphname = Ndotaccent;
lastChange = "2015-10-27 15:19:12 +0000";
layers = (
{
layerId = "0FC58CF8-AD3A-4320-9E57-2D2B1849830B";
name = Bold;
paths = (
{
closed = 1;
nodes = (
"253 0 LINE",
"253 19 LINE",
"224 28 OFFCURVE",
"199 35 OFFCURVE",
"174 41 CURVE",
"174 611 LINE",
"595 0 LINE",
"683 0 LINE",
"683 658 LINE",
"708 664 OFFCURVE",
"732 671 OFFCURVE",
"762 680 CURVE",
"762 700 LINE",
"536 700 LINE",
"536 680 LINE",
"566 671 OFFCURVE",
"590 664 OFFCURVE",
"615 658 CURVE",
"615 213 LINE",
"282 700 LINE",
"27 700 LINE",
"27 680 LINE",
"55 670 OFFCURVE",
"82 662 OFFCURVE",
"106 657 CURVE",
"106 41 LINE",
"82 35 OFFCURVE",
"57 28 OFFCURVE",
"28 19 CURVE",
"28 0 LINE"
);
},
{
closed = 1;
nodes = (
"435 785 OFFCURVE",
"461 815 OFFCURVE",
"461 852 CURVE SMOOTH",
"461 890 OFFCURVE",
"435 920 OFFCURVE",
"394 920 CURVE SMOOTH",
"352 920 OFFCURVE",
"327 890 OFFCURVE",
"327 852 CURVE SMOOTH",
"327 815 OFFCURVE",
"352 785 OFFCURVE",
"394 785 CURVE SMOOTH"
);
}
);
width = 789;
}
);
note = Ndotaccent;
unicode = 1E44;
},
{
glyphname = Ndotbelow;
lastChange = "2015-10-27 15:19:11 +0000";
layers = (
{
layerId = "0FC58CF8-AD3A-4320-9E57-2D2B1849830B";
name = Bold;
paths = (
{
closed = 1;
nodes = (
"253 0 LINE",
"253 19 LINE",
"224 28 OFFCURVE",
"199 35 OFFCURVE",
"174 41 CURVE",
"174 611 LINE",
"595 0 LINE",
"683 0 LINE",
"683 658 LINE",
"708 664 OFFCURVE",
"732 671 OFFCURVE",
"762 680 CURVE",
"762 700 LINE",
"536 700 LINE",
"536 680 LINE",
"566 671 OFFCURVE",
"590 664 OFFCURVE",
"615 658 CURVE",
"615 213 LINE",
"282 700 LINE",
"27 700 LINE",
"27 680 LINE",
"55 670 OFFCURVE",
"82 662 OFFCURVE",
"106 657 CURVE",
"106 41 LINE",
"82 35 OFFCURVE",
"57 28 OFFCURVE",
"28 19 CURVE",
"28 0 LINE"
);
},
{
closed = 1;
nodes = (
"433 -187 OFFCURVE",
"459 -157 OFFCURVE",
"459 -120 CURVE SMOOTH",
"459 -82 OFFCURVE",
"433 -52 OFFCURVE",
"391 -52 CURVE SMOOTH",
"350 -52 OFFCURVE",
"325 -82 OFFCURVE",
"325 -120 CURVE SMOOTH",
"325 -157 OFFCURVE",
"350 -187 OFFCURVE",
"391 -187 CURVE SMOOTH"
);
}
);
width = 789;
}
);
note = uni1E46;
unicode = 1E46;
},
{
glyphname = Eng;
lastChange = "2015-10-27 15:19:12 +0000";
layers = (
{
layerId = "0FC58CF8-AD3A-4320-9E57-2D2B1849830B";
name = Bold;
paths = (
{
closed = 1;
nodes = (
"614 -250 OFFCURVE",
"683 -209 OFFCURVE",
"683 -102 CURVE SMOOTH",
"683 658 LINE",
"708 664 OFFCURVE",
"732 671 OFFCURVE",
"762 680 CURVE",
"762 700 LINE",
"536 700 LINE",
"536 680 LINE",
"566 671 OFFCURVE",
"590 664 OFFCURVE",
"615 658 CURVE",
"615 213 LINE",
"282 700 LINE",
"27 700 LINE",
"27 680 LINE",
"55 670 OFFCURVE",
"82 662 OFFCURVE",
"106 657 CURVE",
"106 41 LINE",
"82 35 OFFCURVE",
"57 28 OFFCURVE",
"28 19 CURVE",
"28 0 LINE",
"253 0 LINE",
"253 19 LINE",
"224 28 OFFCURVE",
"199 35 OFFCURVE",
"174 41 CURVE",
"174 611 LINE",
"616 -2 LINE",
"616 -106 LINE SMOOTH",
"616 -170 OFFCURVE",
"558 -193 OFFCURVE",
"499 -193 CURVE SMOOTH",
"466 -193 OFFCURVE",
"435 -188 OFFCURVE",
"412 -180 CURVE",
"403 -225 LINE",
"442 -240 OFFCURVE",
"485 -250 OFFCURVE",
"527 -250 CURVE SMOOTH"
);
}
);
width = 789;
}
);
note = Eng;
unicode = 014A;
},
{
glyphname = Nlinebelow;
lastChange = "2015-10-27 15:19:12 +0000";
layers = (
{
layerId = "0FC58CF8-AD3A-4320-9E57-2D2B1849830B";
name = Bold;
paths = (
{
closed = 1;
nodes = (
"253 0 LINE",
"253 19 LINE",
"224 28 OFFCURVE",
"199 35 OFFCURVE",
"174 41 CURVE",
"174 611 LINE",
"595 0 LINE",
"683 0 LINE",
"683 658 LINE",
"708 664 OFFCURVE",
"732 671 OFFCURVE",
"762 680 CURVE",
"762 700 LINE",
"536 700 LINE",
"536 680 LINE",
"566 671 OFFCURVE",
"590 664 OFFCURVE",
"615 658 CURVE",
"615 213 LINE",
"282 700 LINE",
"27 700 LINE",
"27 680 LINE",
"55 670 OFFCURVE",
"82 662 OFFCURVE",
"106 657 CURVE",
"106 41 LINE",
"82 35 OFFCURVE",
"57 28 OFFCURVE",
"28 19 CURVE",
"28 0 LINE"
);
},
{
closed = 1;
nodes = (
"599 -111 LINE",
"599 -58 LINE",
"190 -58 LINE",
"190 -111 LINE"
);
}
);
width = 789;
}
);
note = Nlinebelow;
unicode = 1E48;
},
{
glyphname = Ntilde;
lastChange = "2015-10-27 15:19:12 +0000";
layers = (
{
layerId = "0FC58CF8-AD3A-4320-9E57-2D2B1849830B";
name = Bold;
paths = (
{
closed = 1;
nodes = (
"253 0 LINE",
"253 19 LINE",
"224 28 OFFCURVE",
"199 35 OFFCURVE",
"174 41 CURVE",
"174 611 LINE",
"595 0 LINE",
"683 0 LINE",
"683 658 LINE",
"708 664 OFFCURVE",
"732 671 OFFCURVE",
"762 680 CURVE",
"762 700 LINE",
"536 700 LINE",
"536 680 LINE",
"566 671 OFFCURVE",
"590 664 OFFCURVE",
"615 658 CURVE",
"615 213 LINE",
"282 700 LINE",
"27 700 LINE",
"27 680 LINE",
"55 670 OFFCURVE",
"82 662 OFFCURVE",
"106 657 CURVE",
"106 41 LINE",
"82 35 OFFCURVE",
"57 28 OFFCURVE",
"28 19 CURVE",
"28 0 LINE"
);
},
{
closed = 1;
nodes = (
"271 786 LINE",
"277 817 OFFCURVE",
"296 837 OFFCURVE",
"325 837 CURVE SMOOTH",
"360 837 OFFCURVE",
"425 786 OFFCURVE",
"486 786 CURVE SMOOTH",
"570 786 OFFCURVE",
"608 836 OFFCURVE",
"615 910 CURVE",
"536 910 LINE",
"525 863 OFFCURVE",
"502 857 OFFCURVE",
"478 857 CURVE SMOOTH",
"437 857 OFFCURVE",
"398 908 OFFCURVE",
"321 908 CURVE SMOOTH",
"248 908 OFFCURVE",
"203 866 OFFCURVE",
"191 786 CURVE"
);
}
);
width = 789;
}
);
note = Ntilde;
unicode = 00D1;
},
{
glyphname = O;
lastChange = "2015-10-27 15:19:12 +0000";
layers = (
{
layerId = "0FC58CF8-AD3A-4320-9E57-2D2B1849830B";
name = Bold;
paths = (
{
closed = 1;
nodes = (
"623 -10 OFFCURVE",
"750 127 OFFCURVE",
"750 350 CURVE SMOOTH",
"750 572 OFFCURVE",
"623 710 OFFCURVE",
"392 710 CURVE SMOOTH",
"158 710 OFFCURVE",
"33 572 OFFCURVE",
"33 350 CURVE SMOOTH",
"33 127 OFFCURVE",
"158 -10 OFFCURVE",
"392 -10 CURVE SMOOTH"
);
},
{
closed = 1;
nodes = (
"269 47 OFFCURVE",
"214 174 OFFCURVE",
"214 350 CURVE SMOOTH",
"214 525 OFFCURVE",
"269 653 OFFCURVE",
"392 653 CURVE SMOOTH",
"513 653 OFFCURVE",
"569 525 OFFCURVE",
"569 350 CURVE SMOOTH",
"569 174 OFFCURVE",
"513 47 OFFCURVE",
"392 47 CURVE SMOOTH"
);
}
);
width = 783;
}
);
leftKerningGroup = O;
note = O;
rightKerningGroup = O;
unicode = 004F;
},
{
glyphname = Oacute;
lastChange = "2015-10-27 15:19:12 +0000";
layers = (
{
layerId = "0FC58CF8-AD3A-4320-9E57-2D2B1849830B";
name = Bold;
paths = (
{
closed = 1;
nodes = (
"623 -10 OFFCURVE",
"750 127 OFFCURVE",
"750 350 CURVE SMOOTH",
"750 572 OFFCURVE",
"623 710 OFFCURVE",
"392 710 CURVE SMOOTH",
"158 710 OFFCURVE",
"33 572 OFFCURVE",
"33 350 CURVE SMOOTH",
"33 127 OFFCURVE",
"158 -10 OFFCURVE",
"392 -10 CURVE SMOOTH"
);
},
{
closed = 1;
nodes = (
"269 47 OFFCURVE",
"214 174 OFFCURVE",
"214 350 CURVE SMOOTH",
"214 525 OFFCURVE",
"269 653 OFFCURVE",
"392 653 CURVE SMOOTH",
"513 653 OFFCURVE",
"569 525 OFFCURVE",
"569 350 CURVE SMOOTH",
"569 174 OFFCURVE",
"513 47 OFFCURVE",
"392 47 CURVE SMOOTH"
);
},
{
closed = 1;
nodes = (
"469 882 LINE SMOOTH",
"504 903 OFFCURVE",
"524 923 OFFCURVE",
"524 950 CURVE SMOOTH",
"524 970 OFFCURVE",
"509 996 OFFCURVE",
"470 996 CURVE SMOOTH",
"436 996 OFFCURVE",
"405 964 OFFCURVE",
"399 958 CURVE",
"275 825 LINE",
"303 786 LINE"
);
}
);
width = 783;
}
);
leftKerningGroup = O;
note = Oacute;
rightKerningGroup = O;
unicode = 00D3;
},
{
glyphname = Obreve;
lastChange = "2015-10-27 15:19:12 +0000";
layers = (
{
layerId = "0FC58CF8-AD3A-4320-9E57-2D2B1849830B";
name = Bold;
paths = (
{
closed = 1;
nodes = (
"623 -10 OFFCURVE",
"750 127 OFFCURVE",
"750 350 CURVE SMOOTH",
"750 572 OFFCURVE",
"623 710 OFFCURVE",
"392 710 CURVE SMOOTH",
"158 710 OFFCURVE",
"33 572 OFFCURVE",
"33 350 CURVE SMOOTH",
"33 127 OFFCURVE",
"158 -10 OFFCURVE",
"392 -10 CURVE SMOOTH"
);
},
{
closed = 1;
nodes = (
"269 47 OFFCURVE",
"214 174 OFFCURVE",
"214 350 CURVE SMOOTH",
"214 525 OFFCURVE",
"269 653 OFFCURVE",
"392 653 CURVE SMOOTH",
"513 653 OFFCURVE",
"569 525 OFFCURVE",
"569 350 CURVE SMOOTH",
"569 174 OFFCURVE",
"513 47 OFFCURVE",
"392 47 CURVE SMOOTH"
);
},
{
closed = 1;
nodes = (
"493 783 OFFCURVE",
"564 827 OFFCURVE",
"580 920 CURVE",
"484 920 LINE",
"477 848 OFFCURVE",
"432 839 OFFCURVE",
"391 839 CURVE SMOOTH",
"350 839 OFFCURVE",
"304 848 OFFCURVE",
"297 920 CURVE",
"201 920 LINE",
"218 827 OFFCURVE",
"288 783 OFFCURVE",
"391 783 CURVE SMOOTH"
);
}
);
width = 783;
}
);
leftKerningGroup = O;
note = Obreve;
rightKerningGroup = O;
unicode = 014E;
},
{
glyphname = Ocaron;
lastChange = "2015-10-27 15:19:12 +0000";
layers = (
{
layerId = "0FC58CF8-AD3A-4320-9E57-2D2B1849830B";
name = Bold;
paths = (
{
closed = 1;
nodes = (
"623 -10 OFFCURVE",
"750 127 OFFCURVE",
"750 350 CURVE SMOOTH",
"750 572 OFFCURVE",
"623 710 OFFCURVE",
"392 710 CURVE SMOOTH",
"158 710 OFFCURVE",
"33 572 OFFCURVE",
"33 350 CURVE SMOOTH",
"33 127 OFFCURVE",
"158 -10 OFFCURVE",
"392 -10 CURVE SMOOTH"
);
},
{
closed = 1;
nodes = (
"269 47 OFFCURVE",
"214 174 OFFCURVE",
"214 350 CURVE SMOOTH",
"214 525 OFFCURVE",
"269 653 OFFCURVE",
"392 653 CURVE SMOOTH",
"513 653 OFFCURVE",
"569 525 OFFCURVE",
"569 350 CURVE SMOOTH",
"569 174 OFFCURVE",
"513 47 OFFCURVE",
"392 47 CURVE SMOOTH"
);
},
{
closed = 1;
nodes = (
"432 786 LINE",
"454 820 OFFCURVE",
"549 906 OFFCURVE",
"595 935 CURVE",
"524 985 LINE",
"481 952 OFFCURVE",
"416 887 OFFCURVE",
"393 850 CURVE",
"389 850 LINE",
"367 887 OFFCURVE",
"301 952 OFFCURVE",
"258 985 CURVE",
"187 935 LINE",
"233 906 OFFCURVE",
"328 820 OFFCURVE",
"350 786 CURVE"
);
}
);
width = 783;
}
);
leftKerningGroup = O;
note = Ocaron;
rightKerningGroup = O;
unicode = 01D1;
},
{
glyphname = Ocircumflex;
lastChange = "2015-10-27 15:19:12 +0000";
layers = (
{
layerId = "0FC58CF8-AD3A-4320-9E57-2D2B1849830B";
name = Bold;
paths = (
{
closed = 1;
nodes = (
"623 -10 OFFCURVE",
"750 127 OFFCURVE",
"750 350 CURVE SMOOTH",
"750 572 OFFCURVE",
"623 710 OFFCURVE",
"392 710 CURVE SMOOTH",
"158 710 OFFCURVE",
"33 572 OFFCURVE",
"33 350 CURVE SMOOTH",
"33 127 OFFCURVE",
"158 -10 OFFCURVE",
"392 -10 CURVE SMOOTH"
);
},
{
closed = 1;
nodes = (
"269 47 OFFCURVE",
"214 174 OFFCURVE",
"214 350 CURVE SMOOTH",
"214 525 OFFCURVE",
"269 653 OFFCURVE",
"392 653 CURVE SMOOTH",
"513 653 OFFCURVE",
"569 525 OFFCURVE",
"569 350 CURVE SMOOTH",
"569 174 OFFCURVE",
"513 47 OFFCURVE",
"392 47 CURVE SMOOTH"
);
},
{
closed = 1;
nodes = (
"301 818 OFFCURVE",
"367 883 OFFCURVE",
"389 920 CURVE",
"393 920 LINE",
"416 883 OFFCURVE",
"481 818 OFFCURVE",
"524 784 CURVE",
"595 835 LINE",
"549 863 OFFCURVE",
"454 950 OFFCURVE",
"432 984 CURVE",
"350 984 LINE",
"328 950 OFFCURVE",
"233 863 OFFCURVE",
"187 835 CURVE",
"258 784 LINE"
);
}
);
width = 783;
}
);
leftKerningGroup = O;
note = Ocircumflex;
rightKerningGroup = O;
unicode = 00D4;
},
{
glyphname = Ocircumflexacute;
lastChange = "2015-10-27 15:19:11 +0000";
layers = (
{
layerId = "0FC58CF8-AD3A-4320-9E57-2D2B1849830B";
name = Bold;
paths = (
{
closed = 1;
nodes = (
"623 -10 OFFCURVE",
"750 127 OFFCURVE",
"750 350 CURVE SMOOTH",
"750 572 OFFCURVE",
"623 710 OFFCURVE",
"392 710 CURVE SMOOTH",
"158 710 OFFCURVE",
"33 572 OFFCURVE",
"33 350 CURVE SMOOTH",
"33 127 OFFCURVE",
"158 -10 OFFCURVE",
"392 -10 CURVE SMOOTH"
);
},
{
closed = 1;
nodes = (
"269 47 OFFCURVE",
"214 174 OFFCURVE",
"214 350 CURVE SMOOTH",
"214 525 OFFCURVE",
"269 653 OFFCURVE",
"392 653 CURVE SMOOTH",
"513 653 OFFCURVE",
"569 525 OFFCURVE",
"569 350 CURVE SMOOTH",
"569 174 OFFCURVE",
"513 47 OFFCURVE",
"392 47 CURVE SMOOTH"
);
},
{
closed = 1;
nodes = (
"300 818 OFFCURVE",
"366 883 OFFCURVE",
"389 920 CURVE",
"389 920 OFFCURVE",
"392 920 OFFCURVE",
"392 920 CURVE",
"415 883 OFFCURVE",
"481 818 OFFCURVE",
"523 784 CURVE",
"594 835 LINE",
"549 863 OFFCURVE",
"454 950 OFFCURVE",
"431 984 CURVE",
"350 984 LINE",
"327 950 OFFCURVE",
"232 863 OFFCURVE",
"187 835 CURVE",
"258 784 LINE"
);
},
{
closed = 1;
nodes = (
"653 985 LINE SMOOTH",
"694 1005 OFFCURVE",
"718 1022 OFFCURVE",
"718 1048 CURVE SMOOTH",
"718 1078 OFFCURVE",
"693 1097 OFFCURVE",
"662 1097 CURVE SMOOTH",
"631 1097 OFFCURVE",
"608 1077 OFFCURVE",
"591 1057 CURVE SMOOTH",
"514 964 LINE",
"541 929 LINE"
);
}
);
width = 783;
}
);
leftKerningGroup = O;
note = Ocircumflexacute;
rightKerningGroup = O;
unicode = 1ED0;
},
{
glyphname = Ocircumflexdotbelow;
lastChange = "2015-10-27 15:19:11 +0000";
layers = (
{
layerId = "0FC58CF8-AD3A-4320-9E57-2D2B1849830B";
name = Bold;
paths = (
{
closed = 1;
nodes = (
"623 -10 OFFCURVE",
"750 127 OFFCURVE",
"750 350 CURVE SMOOTH",
"750 572 OFFCURVE",
"623 710 OFFCURVE",
"392 710 CURVE SMOOTH",
"158 710 OFFCURVE",
"33 572 OFFCURVE",
"33 350 CURVE SMOOTH",
"33 127 OFFCURVE",
"158 -10 OFFCURVE",
"392 -10 CURVE SMOOTH"
);
},
{
closed = 1;
nodes = (
"432 -187 OFFCURVE",
"458 -157 OFFCURVE",
"458 -120 CURVE SMOOTH",
"458 -82 OFFCURVE",
"432 -52 OFFCURVE",
"390 -52 CURVE SMOOTH",
"349 -52 OFFCURVE",
"324 -82 OFFCURVE",
"324 -120 CURVE SMOOTH",
"324 -157 OFFCURVE",
"349 -187 OFFCURVE",
"390 -187 CURVE SMOOTH"
);
},
{
closed = 1;
nodes = (
"269 47 OFFCURVE",
"214 174 OFFCURVE",
"214 350 CURVE SMOOTH",
"214 525 OFFCURVE",
"269 653 OFFCURVE",
"392 653 CURVE SMOOTH",
"513 653 OFFCURVE",
"569 525 OFFCURVE",
"569 350 CURVE SMOOTH",
"569 174 OFFCURVE",
"513 47 OFFCURVE",
"392 47 CURVE SMOOTH"
);
},
{
closed = 1;
nodes = (
"300 818 OFFCURVE",
"366 883 OFFCURVE",
"388 920 CURVE",
"392 920 LINE",
"415 883 OFFCURVE",
"480 818 OFFCURVE",
"523 784 CURVE",
"594 835 LINE",
"548 863 OFFCURVE",
"453 950 OFFCURVE",
"431 984 CURVE",
"349 984 LINE",
"327 950 OFFCURVE",
"232 863 OFFCURVE",
"186 835 CURVE",
"257 784 LINE"
);
}
);
width = 783;
}
);
leftKerningGroup = O;
note = Ocircumflexdotbelow;
rightKerningGroup = O;
unicode = 1ED8;
},
{
glyphname = Ocircumflexgrave;
lastChange = "2015-10-27 15:19:12 +0000";
layers = (
{
layerId = "0FC58CF8-AD3A-4320-9E57-2D2B1849830B";
name = Bold;
paths = (
{
closed = 1;
nodes = (
"623 -10 OFFCURVE",
"750 127 OFFCURVE",
"750 350 CURVE SMOOTH",
"750 572 OFFCURVE",
"623 710 OFFCURVE",
"392 710 CURVE SMOOTH",
"158 710 OFFCURVE",
"33 572 OFFCURVE",
"33 350 CURVE SMOOTH",
"33 127 OFFCURVE",
"158 -10 OFFCURVE",
"392 -10 CURVE SMOOTH"
);
},
{
closed = 1;
nodes = (
"269 47 OFFCURVE",
"214 174 OFFCURVE",
"214 350 CURVE SMOOTH",
"214 525 OFFCURVE",
"269 653 OFFCURVE",
"392 653 CURVE SMOOTH",
"513 653 OFFCURVE",
"569 525 OFFCURVE",
"569 350 CURVE SMOOTH",
"569 174 OFFCURVE",
"513 47 OFFCURVE",
"392 47 CURVE SMOOTH"
);
},
{
closed = 1;
nodes = (
"264 964 LINE",
"187 1057 LINE SMOOTH",
"170 1077 OFFCURVE",
"147 1097 OFFCURVE",
"116 1097 CURVE SMOOTH",
"85 1097 OFFCURVE",
"60 1078 OFFCURVE",
"60 1048 CURVE SMOOTH",
"60 1022 OFFCURVE",
"84 1005 OFFCURVE",
"125 985 CURVE SMOOTH",
"237 929 LINE"
);
},
{
closed = 1;
nodes = (
"300 818 OFFCURVE",
"366 883 OFFCURVE",
"389 920 CURVE",
"389 920 OFFCURVE",
"392 920 OFFCURVE",
"392 920 CURVE",
"415 883 OFFCURVE",
"481 818 OFFCURVE",
"523 784 CURVE",
"594 835 LINE",
"549 863 OFFCURVE",
"454 950 OFFCURVE",
"431 984 CURVE",
"350 984 LINE",
"327 950 OFFCURVE",
"232 863 OFFCURVE",
"187 835 CURVE",
"258 784 LINE"
);
}
);
width = 783;
}
);
leftKerningGroup = O;
note = Ocircumflexgrave;
rightKerningGroup = O;
unicode = 1ED2;
},
{
glyphname = Ocircumflexhookabove;
lastChange = "2015-10-27 15:19:12 +0000";
layers = (
{
layerId = "0FC58CF8-AD3A-4320-9E57-2D2B1849830B";
name = Bold;
paths = (
{
closed = 1;
nodes = (
"623 -10 OFFCURVE",
"750 127 OFFCURVE",
"750 350 CURVE SMOOTH",
"750 572 OFFCURVE",
"623 710 OFFCURVE",
"392 710 CURVE SMOOTH",
"158 710 OFFCURVE",
"33 572 OFFCURVE",
"33 350 CURVE SMOOTH",
"33 127 OFFCURVE",
"158 -10 OFFCURVE",
"392 -10 CURVE SMOOTH"
);
},
{
closed = 1;
nodes = (
"269 47 OFFCURVE",
"214 174 OFFCURVE",
"214 350 CURVE SMOOTH",
"214 525 OFFCURVE",
"269 653 OFFCURVE",
"392 653 CURVE SMOOTH",
"513 653 OFFCURVE",
"569 525 OFFCURVE",
"569 350 CURVE SMOOTH",
"569 174 OFFCURVE",
"513 47 OFFCURVE",
"392 47 CURVE SMOOTH"
);
},
{
closed = 1;
nodes = (
"300 819 OFFCURVE",
"366 884 OFFCURVE",
"389 921 CURVE",
"389 921 OFFCURVE",
"392 921 OFFCURVE",
"392 921 CURVE",
"415 884 OFFCURVE",
"481 819 OFFCURVE",
"523 785 CURVE",
"594 836 LINE",
"549 864 OFFCURVE",
"454 951 OFFCURVE",
"431 985 CURVE",
"350 985 LINE",
"327 951 OFFCURVE",
"232 864 OFFCURVE",
"187 836 CURVE",
"258 785 LINE"
);
},
{
closed = 1;
nodes = (
"579 949 LINE",
"588 993 LINE",
"635 998 OFFCURVE",
"674 1015 OFFCURVE",
"674 1073 CURVE SMOOTH",
"674 1136 OFFCURVE",
"617 1159 OFFCURVE",
"561 1159 CURVE SMOOTH",
"532 1159 OFFCURVE",
"503 1152 OFFCURVE",
"484 1143 CURVE",
"490 1104 LINE",
"507 1113 OFFCURVE",
"529 1117 OFFCURVE",
"545 1117 CURVE SMOOTH",
"582 1117 OFFCURVE",
"600 1097 OFFCURVE",
"600 1074 CURVE SMOOTH",
"600 1038 OFFCURVE",
"572 1028 OFFCURVE",
"550 1028 CURVE SMOOTH",
"513 1028 LINE",
"517 949 LINE"
);
}
);
width = 783;
}
);
leftKerningGroup = O;
note = Ocircumflexhookabove;
rightKerningGroup = O;
unicode = 1ED4;
},
{
glyphname = Ocircumflextilde;
lastChange = "2015-10-27 15:19:12 +0000";
layers = (
{
layerId = "0FC58CF8-AD3A-4320-9E57-2D2B1849830B";
name = Bold;
paths = (
{
closed = 1;
nodes = (
"623 -10 OFFCURVE",
"750 127 OFFCURVE",
"750 350 CURVE SMOOTH",
"750 572 OFFCURVE",
"623 710 OFFCURVE",
"392 710 CURVE SMOOTH",
"158 710 OFFCURVE",
"33 572 OFFCURVE",
"33 350 CURVE SMOOTH",
"33 127 OFFCURVE",
"158 -10 OFFCURVE",
"392 -10 CURVE SMOOTH"
);
},
{
closed = 1;
nodes = (
"269 47 OFFCURVE",
"214 174 OFFCURVE",
"214 350 CURVE SMOOTH",
"214 525 OFFCURVE",
"269 653 OFFCURVE",
"392 653 CURVE SMOOTH",
"513 653 OFFCURVE",
"569 525 OFFCURVE",
"569 350 CURVE SMOOTH",
"569 174 OFFCURVE",
"513 47 OFFCURVE",
"392 47 CURVE SMOOTH"
);
},
{
closed = 1;
nodes = (
"300 818 OFFCURVE",
"366 883 OFFCURVE",
"389 920 CURVE",
"389 920 OFFCURVE",
"392 920 OFFCURVE",
"392 920 CURVE",
"415 883 OFFCURVE",
"481 818 OFFCURVE",
"523 784 CURVE",
"594 835 LINE",
"549 863 OFFCURVE",
"454 950 OFFCURVE",
"431 984 CURVE",
"350 984 LINE",
"327 950 OFFCURVE",
"232 863 OFFCURVE",
"187 835 CURVE",
"258 784 LINE"
);
},
{
closed = 1;
nodes = (
"263 1022 LINE",
"269 1052 OFFCURVE",
"293 1072 OFFCURVE",
"326 1072 CURVE SMOOTH",
"374 1072 OFFCURVE",
"412 1022 OFFCURVE",
"472 1022 CURVE SMOOTH",
"552 1022 OFFCURVE",
"590 1070 OFFCURVE",
"597 1142 CURVE",
"540 1142 LINE",
"529 1096 OFFCURVE",
"492 1090 OFFCURVE",
"470 1090 CURVE SMOOTH",
"430 1090 OFFCURVE",
"405 1140 OFFCURVE",
"331 1140 CURVE SMOOTH",
"260 1140 OFFCURVE",
"216 1099 OFFCURVE",
"205 1022 CURVE"
);
}
);
width = 783;
}
);
leftKerningGroup = O;
note = Ocircumflextilde;
rightKerningGroup = O;
unicode = 1ED6;
},
{
glyphname = Odieresis;
lastChange = "2015-10-27 15:19:12 +0000";
layers = (
{
layerId = "0FC58CF8-AD3A-4320-9E57-2D2B1849830B";
name = Bold;
paths = (
{
closed = 1;
nodes = (
"623 -10 OFFCURVE",
"750 127 OFFCURVE",
"750 350 CURVE SMOOTH",
"750 572 OFFCURVE",
"623 710 OFFCURVE",
"392 710 CURVE SMOOTH",
"158 710 OFFCURVE",
"33 572 OFFCURVE",
"33 350 CURVE SMOOTH",
"33 127 OFFCURVE",
"158 -10 OFFCURVE",
"392 -10 CURVE SMOOTH"
);
},
{
closed = 1;
nodes = (
"269 47 OFFCURVE",
"214 174 OFFCURVE",
"214 350 CURVE SMOOTH",
"214 525 OFFCURVE",
"269 653 OFFCURVE",
"392 653 CURVE SMOOTH",
"513 653 OFFCURVE",
"569 525 OFFCURVE",
"569 350 CURVE SMOOTH",
"569 174 OFFCURVE",
"513 47 OFFCURVE",
"392 47 CURVE SMOOTH"
);
},
{
closed = 1;
nodes = (
"308 785 OFFCURVE",
"334 815 OFFCURVE",
"334 852 CURVE SMOOTH",
"334 890 OFFCURVE",
"308 920 OFFCURVE",
"267 920 CURVE SMOOTH",
"226 920 OFFCURVE",
"200 890 OFFCURVE",
"200 852 CURVE SMOOTH",
"200 815 OFFCURVE",
"226 785 OFFCURVE",
"267 785 CURVE SMOOTH"
);
},
{
closed = 1;
nodes = (
"555 785 OFFCURVE",
"581 815 OFFCURVE",
"581 852 CURVE SMOOTH",
"581 890 OFFCURVE",
"555 920 OFFCURVE",
"513 920 CURVE SMOOTH",
"472 920 OFFCURVE",
"447 890 OFFCURVE",
"447 852 CURVE SMOOTH",
"447 815 OFFCURVE",
"472 785 OFFCURVE",
"513 785 CURVE SMOOTH"
);
}
);
width = 783;
}
);
leftKerningGroup = O;
note = Odieresis;
rightKerningGroup = O;
unicode = 00D6;
},
{
glyphname = Odotbelow;
lastChange = "2015-10-27 15:19:12 +0000";
layers = (
{
layerId = "0FC58CF8-AD3A-4320-9E57-2D2B1849830B";
name = Bold;
paths = (
{
closed = 1;
nodes = (
"623 -10 OFFCURVE",
"750 127 OFFCURVE",
"750 350 CURVE SMOOTH",
"750 572 OFFCURVE",
"623 710 OFFCURVE",
"392 710 CURVE SMOOTH",
"158 710 OFFCURVE",
"33 572 OFFCURVE",
"33 350 CURVE SMOOTH",
"33 127 OFFCURVE",
"158 -10 OFFCURVE",
"392 -10 CURVE SMOOTH"
);
},
{
closed = 1;
nodes = (
"432 -187 OFFCURVE",
"458 -157 OFFCURVE",
"458 -120 CURVE SMOOTH",
"458 -82 OFFCURVE",
"432 -52 OFFCURVE",
"390 -52 CURVE SMOOTH",
"349 -52 OFFCURVE",
"324 -82 OFFCURVE",
"324 -120 CURVE SMOOTH",
"324 -157 OFFCURVE",
"349 -187 OFFCURVE",
"390 -187 CURVE SMOOTH"
);
},
{
closed = 1;
nodes = (
"269 47 OFFCURVE",
"214 174 OFFCURVE",
"214 350 CURVE SMOOTH",
"214 525 OFFCURVE",
"269 653 OFFCURVE",
"392 653 CURVE SMOOTH",
"513 653 OFFCURVE",
"569 525 OFFCURVE",
"569 350 CURVE SMOOTH",
"569 174 OFFCURVE",
"513 47 OFFCURVE",
"392 47 CURVE SMOOTH"
);
}
);
width = 783;
}
);
leftKerningGroup = O;
note = Odotbelow;
rightKerningGroup = O;
unicode = 1ECC;
},
{
glyphname = Ograve;
lastChange = "2015-10-27 15:19:12 +0000";
layers = (
{
layerId = "0FC58CF8-AD3A-4320-9E57-2D2B1849830B";
name = Bold;
paths = (
{
closed = 1;
nodes = (
"623 -10 OFFCURVE",
"750 127 OFFCURVE",
"750 350 CURVE SMOOTH",
"750 572 OFFCURVE",
"623 710 OFFCURVE",
"392 710 CURVE SMOOTH",
"158 710 OFFCURVE",
"33 572 OFFCURVE",
"33 350 CURVE SMOOTH",
"33 127 OFFCURVE",
"158 -10 OFFCURVE",
"392 -10 CURVE SMOOTH"
);
},
{
closed = 1;
nodes = (
"269 47 OFFCURVE",
"214 174 OFFCURVE",
"214 350 CURVE SMOOTH",
"214 525 OFFCURVE",
"269 653 OFFCURVE",
"392 653 CURVE SMOOTH",
"513 653 OFFCURVE",
"569 525 OFFCURVE",
"569 350 CURVE SMOOTH",
"569 174 OFFCURVE",
"513 47 OFFCURVE",
"392 47 CURVE SMOOTH"
);
},
{
closed = 1;
nodes = (
"507 825 LINE",
"382 958 LINE",
"376 965 OFFCURVE",
"349 996 OFFCURVE",
"312 996 CURVE SMOOTH",
"273 996 OFFCURVE",
"257 970 OFFCURVE",
"257 950 CURVE SMOOTH",
"257 923 OFFCURVE",
"277 903 OFFCURVE",
"313 882 CURVE SMOOTH",
"479 786 LINE"
);
}
);
width = 783;
}
);
leftKerningGroup = O;
note = Ograve;
rightKerningGroup = O;
unicode = 00D2;
},
{
glyphname = Ohookabove;
lastChange = "2015-10-27 15:19:11 +0000";
layers = (
{
layerId = "0FC58CF8-AD3A-4320-9E57-2D2B1849830B";
name = Bold;
paths = (
{
closed = 1;
nodes = (
"623 -10 OFFCURVE",
"750 127 OFFCURVE",
"750 350 CURVE SMOOTH",
"750 572 OFFCURVE",
"623 710 OFFCURVE",
"392 710 CURVE SMOOTH",
"158 710 OFFCURVE",
"33 572 OFFCURVE",
"33 350 CURVE SMOOTH",
"33 127 OFFCURVE",
"158 -10 OFFCURVE",
"392 -10 CURVE SMOOTH"
);
},
{
closed = 1;
nodes = (
"269 47 OFFCURVE",
"214 174 OFFCURVE",
"214 350 CURVE SMOOTH",
"214 525 OFFCURVE",
"269 653 OFFCURVE",
"392 653 CURVE SMOOTH",
"513 653 OFFCURVE",
"569 525 OFFCURVE",
"569 350 CURVE SMOOTH",
"569 174 OFFCURVE",
"513 47 OFFCURVE",
"392 47 CURVE SMOOTH"
);
},
{
closed = 1;
nodes = (
"431 784 LINE",
"441 855 LINE",
"495 860 OFFCURVE",
"540 880 OFFCURVE",
"540 944 CURVE SMOOTH",
"540 1014 OFFCURVE",
"474 1040 OFFCURVE",
"411 1040 CURVE SMOOTH",
"377 1040 OFFCURVE",
"344 1032 OFFCURVE",
"322 1021 CURVE",
"329 979 LINE",
"350 991 OFFCURVE",
"374 995 OFFCURVE",
"392 995 CURVE SMOOTH",
"434 995 OFFCURVE",
"455 971 OFFCURVE",
"455 945 CURVE SMOOTH",
"455 905 OFFCURVE",
"423 893 OFFCURVE",
"398 893 CURVE SMOOTH",
"356 893 LINE",
"361 784 LINE"
);
}
);
width = 783;
}
);
leftKerningGroup = O;
note = Ohookabove;
rightKerningGroup = O;
unicode = 1ECE;
},
{
glyphname = Ohorn;
lastChange = "2015-10-27 15:19:12 +0000";
layers = (
{
layerId = "0FC58CF8-AD3A-4320-9E57-2D2B1849830B";
name = Bold;
paths = (
{
closed = 1;
nodes = (
"623 -10 OFFCURVE",
"750 127 OFFCURVE",
"750 350 CURVE SMOOTH",
"750 572 OFFCURVE",
"623 710 OFFCURVE",
"392 710 CURVE SMOOTH",
"158 710 OFFCURVE",
"33 572 OFFCURVE",
"33 350 CURVE SMOOTH",
"33 127 OFFCURVE",
"158 -10 OFFCURVE",
"392 -10 CURVE SMOOTH"
);
},
{
closed = 1;
nodes = (
"269 47 OFFCURVE",
"214 174 OFFCURVE",
"214 350 CURVE SMOOTH",
"214 525 OFFCURVE",
"269 653 OFFCURVE",
"392 653 CURVE SMOOTH",
"513 653 OFFCURVE",
"569 525 OFFCURVE",
"569 350 CURVE SMOOTH",
"569 174 OFFCURVE",
"513 47 OFFCURVE",
"392 47 CURVE SMOOTH"
);
},
{
closed = 1;
nodes = (
"825 531 OFFCURVE",
"868 600 OFFCURVE",
"868 655 CURVE SMOOTH",
"868 685 OFFCURVE",
"863 743 OFFCURVE",
"783 743 CURVE SMOOTH",
"717 743 OFFCURVE",
"703 701 OFFCURVE",
"703 672 CURVE SMOOTH",
"703 630 OFFCURVE",
"729 604 OFFCURVE",
"769 604 CURVE SMOOTH",
"774 604 OFFCURVE",
"779 604 OFFCURVE",
"784 606 CURVE",
"771 556 OFFCURVE",
"701 507 OFFCURVE",
"679 493 CURVE",
"711 454 LINE"
);
}
);
width = 837;
}
);
leftKerningGroup = O;
note = Ohorn;
rightKerningGroup = O;
unicode = 01A0;
},
{
glyphname = Ohornacute;
lastChange = "2015-10-27 15:19:11 +0000";
layers = (
{
layerId = "0FC58CF8-AD3A-4320-9E57-2D2B1849830B";
name = Bold;
paths = (
{
closed = 1;
nodes = (
"623 -10 OFFCURVE",
"750 127 OFFCURVE",
"750 350 CURVE SMOOTH",
"750 572 OFFCURVE",
"623 710 OFFCURVE",
"392 710 CURVE SMOOTH",
"158 710 OFFCURVE",
"33 572 OFFCURVE",
"33 350 CURVE SMOOTH",
"33 127 OFFCURVE",
"158 -10 OFFCURVE",
"392 -10 CURVE SMOOTH"
);
},
{
closed = 1;
nodes = (
"269 47 OFFCURVE",
"214 174 OFFCURVE",
"214 350 CURVE SMOOTH",
"214 525 OFFCURVE",
"269 653 OFFCURVE",
"392 653 CURVE SMOOTH",
"513 653 OFFCURVE",
"569 525 OFFCURVE",
"569 350 CURVE SMOOTH",
"569 174 OFFCURVE",
"513 47 OFFCURVE",
"392 47 CURVE SMOOTH"
);
},
{
closed = 1;
nodes = (
"470 881 LINE SMOOTH",
"505 902 OFFCURVE",
"525 922 OFFCURVE",
"525 949 CURVE SMOOTH",
"525 969 OFFCURVE",
"510 995 OFFCURVE",
"471 995 CURVE SMOOTH",
"437 995 OFFCURVE",
"406 963 OFFCURVE",
"400 957 CURVE",
"276 824 LINE",
"304 785 LINE"
);
},
{
closed = 1;
nodes = (
"825 531 OFFCURVE",
"868 600 OFFCURVE",
"868 655 CURVE SMOOTH",
"868 685 OFFCURVE",
"863 743 OFFCURVE",
"783 743 CURVE SMOOTH",
"717 743 OFFCURVE",
"703 701 OFFCURVE",
"703 672 CURVE SMOOTH",
"703 630 OFFCURVE",
"729 604 OFFCURVE",
"769 604 CURVE SMOOTH",
"774 604 OFFCURVE",
"779 604 OFFCURVE",
"784 606 CURVE",
"771 556 OFFCURVE",
"701 507 OFFCURVE",
"679 493 CURVE",
"711 454 LINE"
);
}
);
width = 837;
}
);
leftKerningGroup = O;
note = Ohornacute;
rightKerningGroup = O;
unicode = 1EDA;
},
{
glyphname = Ohorndotbelow;
lastChange = "2015-10-27 15:19:12 +0000";
layers = (
{
layerId = "0FC58CF8-AD3A-4320-9E57-2D2B1849830B";
name = Bold;
paths = (
{
closed = 1;
nodes = (
"623 -10 OFFCURVE",
"750 127 OFFCURVE",
"750 350 CURVE SMOOTH",
"750 572 OFFCURVE",
"623 710 OFFCURVE",
"392 710 CURVE SMOOTH",
"158 710 OFFCURVE",
"33 572 OFFCURVE",
"33 350 CURVE SMOOTH",
"33 127 OFFCURVE",
"158 -10 OFFCURVE",
"392 -10 CURVE SMOOTH"
);
},
{
closed = 1;
nodes = (
"432 -187 OFFCURVE",
"458 -157 OFFCURVE",
"458 -120 CURVE SMOOTH",
"458 -82 OFFCURVE",
"432 -52 OFFCURVE",
"390 -52 CURVE SMOOTH",
"349 -52 OFFCURVE",
"324 -82 OFFCURVE",
"324 -120 CURVE SMOOTH",
"324 -157 OFFCURVE",
"349 -187 OFFCURVE",
"390 -187 CURVE SMOOTH"
);
},
{
closed = 1;
nodes = (
"269 47 OFFCURVE",
"214 174 OFFCURVE",
"214 350 CURVE SMOOTH",
"214 525 OFFCURVE",
"269 653 OFFCURVE",
"392 653 CURVE SMOOTH",
"513 653 OFFCURVE",
"569 525 OFFCURVE",
"569 350 CURVE SMOOTH",
"569 174 OFFCURVE",
"513 47 OFFCURVE",
"392 47 CURVE SMOOTH"
);
},
{
closed = 1;
nodes = (
"825 531 OFFCURVE",
"868 600 OFFCURVE",
"868 655 CURVE SMOOTH",
"868 685 OFFCURVE",
"863 743 OFFCURVE",
"783 743 CURVE SMOOTH",
"717 743 OFFCURVE",
"703 701 OFFCURVE",
"703 672 CURVE SMOOTH",
"703 630 OFFCURVE",
"729 604 OFFCURVE",
"769 604 CURVE SMOOTH",
"774 604 OFFCURVE",
"779 604 OFFCURVE",
"784 606 CURVE",
"771 556 OFFCURVE",
"701 507 OFFCURVE",
"679 493 CURVE",
"711 454 LINE"
);
}
);
width = 837;
}
);
leftKerningGroup = O;
note = Ohorndotbelow;
rightKerningGroup = O;
unicode = 1EE2;
},
{
glyphname = Ohorngrave;
lastChange = "2015-10-27 15:19:12 +0000";
layers = (
{
layerId = "0FC58CF8-AD3A-4320-9E57-2D2B1849830B";
name = Bold;
paths = (
{
closed = 1;
nodes = (
"623 -10 OFFCURVE",
"750 127 OFFCURVE",
"750 350 CURVE SMOOTH",
"750 572 OFFCURVE",
"623 710 OFFCURVE",
"392 710 CURVE SMOOTH",
"158 710 OFFCURVE",
"33 572 OFFCURVE",
"33 350 CURVE SMOOTH",
"33 127 OFFCURVE",
"158 -10 OFFCURVE",
"392 -10 CURVE SMOOTH"
);
},
{
closed = 1;
nodes = (
"269 47 OFFCURVE",
"214 174 OFFCURVE",
"214 350 CURVE SMOOTH",
"214 525 OFFCURVE",
"269 653 OFFCURVE",
"392 653 CURVE SMOOTH",
"513 653 OFFCURVE",
"569 525 OFFCURVE",
"569 350 CURVE SMOOTH",
"569 174 OFFCURVE",
"513 47 OFFCURVE",
"392 47 CURVE SMOOTH"
);
},
{
closed = 1;
nodes = (
"507 824 LINE",
"382 957 LINE",
"376 964 OFFCURVE",
"349 995 OFFCURVE",
"312 995 CURVE SMOOTH",
"273 995 OFFCURVE",
"257 969 OFFCURVE",
"257 949 CURVE SMOOTH",
"257 922 OFFCURVE",
"277 902 OFFCURVE",
"313 881 CURVE SMOOTH",
"479 785 LINE"
);
},
{
closed = 1;
nodes = (
"825 531 OFFCURVE",
"868 600 OFFCURVE",
"868 655 CURVE SMOOTH",
"868 685 OFFCURVE",
"863 743 OFFCURVE",
"783 743 CURVE SMOOTH",
"717 743 OFFCURVE",
"703 701 OFFCURVE",
"703 672 CURVE SMOOTH",
"703 630 OFFCURVE",
"729 604 OFFCURVE",
"769 604 CURVE SMOOTH",
"774 604 OFFCURVE",
"779 604 OFFCURVE",
"784 606 CURVE",
"771 556 OFFCURVE",
"701 507 OFFCURVE",
"679 493 CURVE",
"711 454 LINE"
);
}
);
width = 837;
}
);
leftKerningGroup = O;
note = Ohorngrave;
rightKerningGroup = O;
unicode = 1EDC;
},
{
glyphname = Ohornhookabove;
lastChange = "2015-10-27 15:19:11 +0000";
layers = (
{
layerId = "0FC58CF8-AD3A-4320-9E57-2D2B1849830B";
name = Bold;
paths = (
{
closed = 1;
nodes = (
"623 -10 OFFCURVE",
"750 127 OFFCURVE",
"750 350 CURVE SMOOTH",
"750 572 OFFCURVE",
"623 710 OFFCURVE",
"392 710 CURVE SMOOTH",
"158 710 OFFCURVE",
"33 572 OFFCURVE",
"33 350 CURVE SMOOTH",
"33 127 OFFCURVE",
"158 -10 OFFCURVE",
"392 -10 CURVE SMOOTH"
);
},
{
closed = 1;
nodes = (
"269 47 OFFCURVE",
"214 174 OFFCURVE",
"214 350 CURVE SMOOTH",
"214 525 OFFCURVE",
"269 653 OFFCURVE",
"392 653 CURVE SMOOTH",
"513 653 OFFCURVE",
"569 525 OFFCURVE",
"569 350 CURVE SMOOTH",
"569 174 OFFCURVE",
"513 47 OFFCURVE",
"392 47 CURVE SMOOTH"
);
},
{
closed = 1;
nodes = (
"423 780 LINE",
"433 851 LINE",
"487 856 OFFCURVE",
"532 876 OFFCURVE",
"532 940 CURVE SMOOTH",
"532 1010 OFFCURVE",
"466 1036 OFFCURVE",
"403 1036 CURVE SMOOTH",
"369 1036 OFFCURVE",
"336 1028 OFFCURVE",
"314 1017 CURVE",
"321 975 LINE",
"342 987 OFFCURVE",
"366 991 OFFCURVE",
"384 991 CURVE SMOOTH",
"426 991 OFFCURVE",
"447 967 OFFCURVE",
"447 941 CURVE SMOOTH",
"447 901 OFFCURVE",
"415 889 OFFCURVE",
"390 889 CURVE SMOOTH",
"348 889 LINE",
"353 780 LINE"
);
},
{
closed = 1;
nodes = (
"825 531 OFFCURVE",
"868 600 OFFCURVE",
"868 655 CURVE SMOOTH",
"868 685 OFFCURVE",
"863 743 OFFCURVE",
"783 743 CURVE SMOOTH",
"717 743 OFFCURVE",
"703 701 OFFCURVE",
"703 672 CURVE SMOOTH",
"703 630 OFFCURVE",
"729 604 OFFCURVE",
"769 604 CURVE SMOOTH",
"774 604 OFFCURVE",
"779 604 OFFCURVE",
"784 606 CURVE",
"771 556 OFFCURVE",
"701 507 OFFCURVE",
"679 493 CURVE",
"711 454 LINE"
);
}
);
width = 837;
}
);
leftKerningGroup = O;
note = Ohornhookabove;
rightKerningGroup = O;
unicode = 1EDE;
},
{
glyphname = Ohorntilde;
lastChange = "2015-10-27 15:19:12 +0000";
layers = (
{
layerId = "0FC58CF8-AD3A-4320-9E57-2D2B1849830B";
name = Bold;
paths = (
{
closed = 1;
nodes = (
"623 -10 OFFCURVE",
"750 127 OFFCURVE",
"750 350 CURVE SMOOTH",
"750 572 OFFCURVE",
"623 710 OFFCURVE",
"392 710 CURVE SMOOTH",
"158 710 OFFCURVE",
"33 572 OFFCURVE",
"33 350 CURVE SMOOTH",
"33 127 OFFCURVE",
"158 -10 OFFCURVE",
"392 -10 CURVE SMOOTH"
);
},
{
closed = 1;
nodes = (
"269 47 OFFCURVE",
"214 174 OFFCURVE",
"214 350 CURVE SMOOTH",
"214 525 OFFCURVE",
"269 653 OFFCURVE",
"392 653 CURVE SMOOTH",
"513 653 OFFCURVE",
"569 525 OFFCURVE",
"569 350 CURVE SMOOTH",
"569 174 OFFCURVE",
"513 47 OFFCURVE",
"392 47 CURVE SMOOTH"
);
},
{
closed = 1;
nodes = (
"260 786 LINE",
"266 817 OFFCURVE",
"285 837 OFFCURVE",
"314 837 CURVE SMOOTH",
"349 837 OFFCURVE",
"414 786 OFFCURVE",
"475 786 CURVE SMOOTH",
"559 786 OFFCURVE",
"597 836 OFFCURVE",
"604 910 CURVE",
"525 910 LINE",
"514 863 OFFCURVE",
"491 857 OFFCURVE",
"467 857 CURVE SMOOTH",
"426 857 OFFCURVE",
"387 908 OFFCURVE",
"310 908 CURVE SMOOTH",
"237 908 OFFCURVE",
"192 866 OFFCURVE",
"180 786 CURVE"
);
},
{
closed = 1;
nodes = (
"825 531 OFFCURVE",
"868 600 OFFCURVE",
"868 655 CURVE SMOOTH",
"868 685 OFFCURVE",
"863 743 OFFCURVE",
"783 743 CURVE SMOOTH",
"717 743 OFFCURVE",
"703 701 OFFCURVE",
"703 672 CURVE SMOOTH",
"703 630 OFFCURVE",
"729 604 OFFCURVE",
"769 604 CURVE SMOOTH",
"774 604 OFFCURVE",
"779 604 OFFCURVE",
"784 606 CURVE",
"771 556 OFFCURVE",
"701 507 OFFCURVE",
"679 493 CURVE",
"711 454 LINE"
);
}
);
width = 837;
}
);
leftKerningGroup = O;
note = Ohorntilde;
rightKerningGroup = O;
unicode = 1EE0;
},
{
glyphname = Ohungarumlaut;
lastChange = "2015-10-27 15:19:12 +0000";
layers = (
{
layerId = "0FC58CF8-AD3A-4320-9E57-2D2B1849830B";
name = Bold;
paths = (
{
closed = 1;
nodes = (
"623 -10 OFFCURVE",
"750 127 OFFCURVE",
"750 350 CURVE SMOOTH",
"750 572 OFFCURVE",
"623 710 OFFCURVE",
"392 710 CURVE SMOOTH",
"158 710 OFFCURVE",
"33 572 OFFCURVE",
"33 350 CURVE SMOOTH",
"33 127 OFFCURVE",
"158 -10 OFFCURVE",
"392 -10 CURVE SMOOTH"
);
},
{
closed = 1;
nodes = (
"269 47 OFFCURVE",
"214 174 OFFCURVE",
"214 350 CURVE SMOOTH",
"214 525 OFFCURVE",
"269 653 OFFCURVE",
"392 653 CURVE SMOOTH",
"513 653 OFFCURVE",
"569 525 OFFCURVE",
"569 350 CURVE SMOOTH",
"569 174 OFFCURVE",
"513 47 OFFCURVE",
"392 47 CURVE SMOOTH"
);
},
{
closed = 1;
nodes = (
"394 880 LINE SMOOTH",
"429 901 OFFCURVE",
"449 922 OFFCURVE",
"449 948 CURVE SMOOTH",
"449 968 OFFCURVE",
"433 994 OFFCURVE",
"394 994 CURVE SMOOTH",
"357 994 OFFCURVE",
"329 962 OFFCURVE",
"324 956 CURVE",
"200 824 LINE",
"228 784 LINE"
);
},
{
closed = 1;
nodes = (
"620 880 LINE SMOOTH",
"656 901 OFFCURVE",
"676 922 OFFCURVE",
"676 948 CURVE SMOOTH",
"676 968 OFFCURVE",
"660 994 OFFCURVE",
"621 994 CURVE SMOOTH",
"584 994 OFFCURVE",
"556 962 OFFCURVE",
"551 956 CURVE",
"426 824 LINE",
"454 784 LINE"
);
}
);
width = 783;
}
);
leftKerningGroup = O;
note = Ohungarumlaut;
rightKerningGroup = O;
unicode = 0150;
},
{
glyphname = Omacron;
lastChange = "2015-10-27 15:19:12 +0000";
layers = (
{
layerId = "0FC58CF8-AD3A-4320-9E57-2D2B1849830B";
name = Bold;
paths = (
{
closed = 1;
nodes = (
"623 -10 OFFCURVE",
"750 127 OFFCURVE",
"750 350 CURVE SMOOTH",
"750 572 OFFCURVE",
"623 710 OFFCURVE",
"392 710 CURVE SMOOTH",
"158 710 OFFCURVE",
"33 572 OFFCURVE",
"33 350 CURVE SMOOTH",
"33 127 OFFCURVE",
"158 -10 OFFCURVE",
"392 -10 CURVE SMOOTH"
);
},
{
closed = 1;
nodes = (
"269 47 OFFCURVE",
"214 174 OFFCURVE",
"214 350 CURVE SMOOTH",
"214 525 OFFCURVE",
"269 653 OFFCURVE",
"392 653 CURVE SMOOTH",
"513 653 OFFCURVE",
"569 525 OFFCURVE",
"569 350 CURVE SMOOTH",
"569 174 OFFCURVE",
"513 47 OFFCURVE",
"392 47 CURVE SMOOTH"
);
},
{
closed = 1;
nodes = (
"595 788 LINE",
"595 840 LINE",
"186 840 LINE",
"186 788 LINE"
);
}
);
width = 783;
}
);
leftKerningGroup = O;
note = Omacron;
rightKerningGroup = O;
unicode = 014C;
},
{
glyphname = Oslash;
lastChange = "2015-10-27 15:19:12 +0000";
layers = (
{
layerId = "0FC58CF8-AD3A-4320-9E57-2D2B1849830B";
name = Bold;
paths = (
{
closed = 1;
nodes = (
"623 -10 OFFCURVE",
"750 127 OFFCURVE",
"750 350 CURVE SMOOTH",
"750 572 OFFCURVE",
"623 710 OFFCURVE",
"392 710 CURVE SMOOTH",
"158 710 OFFCURVE",
"33 572 OFFCURVE",
"33 350 CURVE SMOOTH",
"33 127 OFFCURVE",
"158 -10 OFFCURVE",
"392 -10 CURVE SMOOTH"
);
},
{
closed = 1;
nodes = (
"712 690 LINE",
"665 726 LINE",
"51 -2 LINE",
"94 -38 LINE"
);
},
{
closed = 1;
nodes = (
"269 47 OFFCURVE",
"214 174 OFFCURVE",
"214 350 CURVE SMOOTH",
"214 525 OFFCURVE",
"269 653 OFFCURVE",
"392 653 CURVE SMOOTH",
"513 653 OFFCURVE",
"569 525 OFFCURVE",
"569 350 CURVE SMOOTH",
"569 174 OFFCURVE",
"513 47 OFFCURVE",
"392 47 CURVE SMOOTH"
);
}
);
width = 783;
}
);
leftKerningGroup = O;
note = Oslash;
rightKerningGroup = O;
unicode = 00D8;
},
{
glyphname = Oslashacute;
lastChange = "2015-10-27 15:19:12 +0000";
layers = (
{
layerId = "0FC58CF8-AD3A-4320-9E57-2D2B1849830B";
name = Bold;
paths = (
{
closed = 1;
nodes = (
"623 -10 OFFCURVE",
"750 127 OFFCURVE",
"750 350 CURVE SMOOTH",
"750 572 OFFCURVE",
"623 710 OFFCURVE",
"392 710 CURVE SMOOTH",
"158 710 OFFCURVE",
"33 572 OFFCURVE",
"33 350 CURVE SMOOTH",
"33 127 OFFCURVE",
"158 -10 OFFCURVE",
"392 -10 CURVE SMOOTH"
);
},
{
closed = 1;
nodes = (
"712 690 LINE",
"665 726 LINE",
"51 -2 LINE",
"94 -38 LINE"
);
},
{
closed = 1;
nodes = (
"269 47 OFFCURVE",
"214 174 OFFCURVE",
"214 350 CURVE SMOOTH",
"214 525 OFFCURVE",
"269 653 OFFCURVE",
"392 653 CURVE SMOOTH",
"513 653 OFFCURVE",
"569 525 OFFCURVE",
"569 350 CURVE SMOOTH",
"569 174 OFFCURVE",
"513 47 OFFCURVE",
"392 47 CURVE SMOOTH"
);
},
{
closed = 1;
nodes = (
"471 882 LINE SMOOTH",
"506 903 OFFCURVE",
"526 923 OFFCURVE",
"526 950 CURVE SMOOTH",
"526 970 OFFCURVE",
"511 996 OFFCURVE",
"472 996 CURVE SMOOTH",
"438 996 OFFCURVE",
"407 964 OFFCURVE",
"401 958 CURVE",
"277 825 LINE",
"305 786 LINE"
);
}
);
width = 783;
}
);
leftKerningGroup = O;
note = Oslashacute;
rightKerningGroup = O;
unicode = 01FE;
},
{
glyphname = Otilde;
lastChange = "2015-10-27 15:19:12 +0000";
layers = (
{
layerId = "0FC58CF8-AD3A-4320-9E57-2D2B1849830B";
name = Bold;
paths = (
{
closed = 1;
nodes = (
"623 -10 OFFCURVE",
"750 127 OFFCURVE",
"750 350 CURVE SMOOTH",
"750 572 OFFCURVE",
"623 710 OFFCURVE",
"392 710 CURVE SMOOTH",
"158 710 OFFCURVE",
"33 572 OFFCURVE",
"33 350 CURVE SMOOTH",
"33 127 OFFCURVE",
"158 -10 OFFCURVE",
"392 -10 CURVE SMOOTH"
);
},
{
closed = 1;
nodes = (
"269 47 OFFCURVE",
"214 174 OFFCURVE",
"214 350 CURVE SMOOTH",
"214 525 OFFCURVE",
"269 653 OFFCURVE",
"392 653 CURVE SMOOTH",
"513 653 OFFCURVE",
"569 525 OFFCURVE",
"569 350 CURVE SMOOTH",
"569 174 OFFCURVE",
"513 47 OFFCURVE",
"392 47 CURVE SMOOTH"
);
},
{
closed = 1;
nodes = (
"259 786 LINE",
"265 817 OFFCURVE",
"284 837 OFFCURVE",
"313 837 CURVE SMOOTH",
"348 837 OFFCURVE",
"413 786 OFFCURVE",
"474 786 CURVE SMOOTH",
"558 786 OFFCURVE",
"596 836 OFFCURVE",
"603 910 CURVE",
"524 910 LINE",
"513 863 OFFCURVE",
"490 857 OFFCURVE",
"466 857 CURVE SMOOTH",
"425 857 OFFCURVE",
"386 908 OFFCURVE",
"309 908 CURVE SMOOTH",
"236 908 OFFCURVE",
"191 866 OFFCURVE",
"179 786 CURVE"
);
}
);
width = 783;
}
);
leftKerningGroup = O;
note = Otilde;
rightKerningGroup = O;
unicode = 00D5;
},
{
glyphname = OE;
lastChange = "2015-10-27 15:19:12 +0000";
layers = (
{
layerId = "0FC58CF8-AD3A-4320-9E57-2D2B1849830B";
name = Bold;
paths = (
{
closed = 1;
nodes = (
"438 -10 OFFCURVE",
"488 7 OFFCURVE",
"534 56 CURVE",
"534 0 LINE",
"1040 0 LINE",
"1059 185 LINE",
"1021 185 LINE",
"1003 164 OFFCURVE",
"970 92 OFFCURVE",
"967 54 CURVE",
"712 54 LINE",
"712 332 LINE",
"874 332 LINE",
"876 315 OFFCURVE",
"884 276 OFFCURVE",
"895 244 CURVE",
"923 244 LINE",
"923 473 LINE",
"895 473 LINE",
"883 444 OFFCURVE",
"876 404 OFFCURVE",
"874 386 CURVE",
"712 386 LINE",
"712 645 LINE",
"960 645 LINE",
"962 613 OFFCURVE",
"988 536 OFFCURVE",
"1003 513 CURVE",
"1041 513 LINE",
"1041 700 LINE",
"534 700 LINE",
"534 640 LINE",
"497 683 OFFCURVE",
"438 710 OFFCURVE",
"360 710 CURVE SMOOTH",
"126 710 OFFCURVE",
"33 526 OFFCURVE",
"33 350 CURVE SMOOTH",
"33 173 OFFCURVE",
"126 -10 OFFCURVE",
"360 -10 CURVE SMOOTH"
);
},
{
closed = 1;
nodes = (
"269 47 OFFCURVE",
"213 174 OFFCURVE",
"213 350 CURVE SMOOTH",
"213 525 OFFCURVE",
"269 653 OFFCURVE",
"392 653 CURVE SMOOTH",
"457 653 OFFCURVE",
"511 608 OFFCURVE",
"534 557 CURVE",
"534 141 LINE",
"505 85 OFFCURVE",
"457 47 OFFCURVE",
"392 47 CURVE SMOOTH"
);
}
);
width = 1096;
}
);
note = OE;
unicode = 0152;
},
{
glyphname = P;
lastChange = "2015-10-27 15:19:12 +0000";
layers = (
{
layerId = "0FC58CF8-AD3A-4320-9E57-2D2B1849830B";
name = Bold;
paths = (
{
closed = 1;
nodes = (
"366 0 LINE",
"366 20 LINE",
"339 28 OFFCURVE",
"308 38 OFFCURVE",
"285 42 CURVE",
"285 269 LINE",
"413 269 LINE SMOOTH",
"572 269 OFFCURVE",
"648 375 OFFCURVE",
"648 495 CURVE SMOOTH",
"648 609 OFFCURVE",
"591 700 OFFCURVE",
"402 700 CURVE SMOOTH",
"29 700 LINE",
"29 679 LINE",
"58 669 OFFCURVE",
"84 662 OFFCURVE",
"107 657 CURVE",
"107 43 LINE",
"104 43 OFFCURVE",
"55 30 OFFCURVE",
"27 22 CURVE",
"27 0 LINE"
);
},
{
closed = 1;
nodes = (
"285 645 LINE",
"364 645 LINE SMOOTH",
"439 645 OFFCURVE",
"472 590 OFFCURVE",
"472 497 CURVE SMOOTH",
"472 405 OFFCURVE",
"443 323 OFFCURVE",
"364 323 CURVE SMOOTH",
"285 323 LINE"
);
}
);
width = 666;
}
);
note = P;
unicode = 0050;
},
{
glyphname = Thorn;
lastChange = "2015-10-27 15:19:12 +0000";
layers = (
{
layerId = "0FC58CF8-AD3A-4320-9E57-2D2B1849830B";
name = Bold;
paths = (
{
closed = 1;
nodes = (
"357 0 LINE",
"357 20 LINE",
"330 28 OFFCURVE",
"300 38 OFFCURVE",
"277 42 CURVE",
"277 151 LINE",
"404 151 LINE SMOOTH",
"563 151 OFFCURVE",
"639 256 OFFCURVE",
"639 376 CURVE SMOOTH",
"639 487 OFFCURVE",
"584 581 OFFCURVE",
"401 581 CURVE SMOOTH",
"277 581 LINE",
"277 700 LINE",
"20 700 LINE",
"20 679 LINE",
"49 669 OFFCURVE",
"75 662 OFFCURVE",
"98 657 CURVE",
"98 43 LINE",
"95 43 OFFCURVE",
"47 30 OFFCURVE",
"18 22 CURVE",
"18 0 LINE"
);
},
{
closed = 1;
nodes = (
"277 527 LINE",
"355 527 LINE SMOOTH",
"430 527 OFFCURVE",
"463 471 OFFCURVE",
"463 378 CURVE SMOOTH",
"463 287 OFFCURVE",
"434 204 OFFCURVE",
"355 204 CURVE SMOOTH",
"277 204 LINE"
);
}
);
width = 656;
}
);
note = Thorn;
unicode = 00DE;
},
{
glyphname = Q;
lastChange = "2015-10-27 15:19:11 +0000";
layers = (
{
layerId = "0FC58CF8-AD3A-4320-9E57-2D2B1849830B";
name = Bold;
paths = (
{
closed = 1;
nodes = (
"623 -10 OFFCURVE",
"750 127 OFFCURVE",
"750 350 CURVE SMOOTH",
"750 572 OFFCURVE",
"623 710 OFFCURVE",
"392 710 CURVE SMOOTH",
"158 710 OFFCURVE",
"33 572 OFFCURVE",
"33 350 CURVE SMOOTH",
"33 127 OFFCURVE",
"158 -10 OFFCURVE",
"392 -10 CURVE SMOOTH"
);
},
{
closed = 1;
nodes = (
"655 -107 LINE",
"554 -99 OFFCURVE",
"492 -47 OFFCURVE",
"483 29 CURVE",
"309 29 LINE",
"323 -71 OFFCURVE",
"436 -141 OFFCURVE",
"655 -159 CURVE"
);
},
{
closed = 1;
nodes = (
"269 47 OFFCURVE",
"214 174 OFFCURVE",
"214 350 CURVE SMOOTH",
"214 525 OFFCURVE",
"269 653 OFFCURVE",
"392 653 CURVE SMOOTH",
"513 653 OFFCURVE",
"569 525 OFFCURVE",
"569 350 CURVE SMOOTH",
"569 174 OFFCURVE",
"513 47 OFFCURVE",
"392 47 CURVE SMOOTH"
);
}
);
width = 783;
}
);
leftKerningGroup = O;
note = Q;
rightKerningGroup = O;
unicode = 0051;
},
{
glyphname = R;
lastChange = "2015-10-27 15:19:12 +0000";
layers = (
{
layerId = "0FC58CF8-AD3A-4320-9E57-2D2B1849830B";
name = Bold;
paths = (
{
closed = 1;
nodes = (
"366 0 LINE",
"366 20 LINE",
"338 28 OFFCURVE",
"308 38 OFFCURVE",
"286 42 CURVE",
"286 298 LINE",
"427 298 LINE SMOOTH",
"565 298 OFFCURVE",
"657 378 OFFCURVE",
"657 505 CURVE SMOOTH",
"657 616 OFFCURVE",
"608 700 OFFCURVE",
"426 700 CURVE SMOOTH",
"29 700 LINE",
"29 679 LINE",
"58 669 OFFCURVE",
"83 662 OFFCURVE",
"107 657 CURVE",
"107 43 LINE",
"103 43 OFFCURVE",
"55 30 OFFCURVE",
"27 22 CURVE",
"27 0 LINE"
);
},
{
closed = 1;
nodes = (
"723 0 LINE",
"723 20 LINE",
"695 30 OFFCURVE",
"668 37 OFFCURVE",
"645 42 CURVE",
"497 316 LINE",
"344 316 LINE",
"501 0 LINE"
);
},
{
closed = 1;
nodes = (
"286 645 LINE",
"364 645 LINE SMOOTH",
"445 645 OFFCURVE",
"480 600 OFFCURVE",
"480 507 CURVE SMOOTH",
"480 415 OFFCURVE",
"449 352 OFFCURVE",
"364 352 CURVE SMOOTH",
"286 352 LINE"
);
}
);
width = 739;
}
);
note = R;
rightKerningGroup = R;
unicode = 0052;
},
{
glyphname = Racute;
lastChange = "2015-10-27 15:19:11 +0000";
layers = (
{
layerId = "0FC58CF8-AD3A-4320-9E57-2D2B1849830B";
name = Bold;
paths = (
{
closed = 1;
nodes = (
"366 0 LINE",
"366 20 LINE",
"338 28 OFFCURVE",
"308 38 OFFCURVE",
"286 42 CURVE",
"286 298 LINE",
"427 298 LINE SMOOTH",
"565 298 OFFCURVE",
"657 378 OFFCURVE",
"657 505 CURVE SMOOTH",
"657 616 OFFCURVE",
"608 700 OFFCURVE",
"426 700 CURVE SMOOTH",
"29 700 LINE",
"29 679 LINE",
"58 669 OFFCURVE",
"83 662 OFFCURVE",
"107 657 CURVE",
"107 43 LINE",
"103 43 OFFCURVE",
"55 30 OFFCURVE",
"27 22 CURVE",
"27 0 LINE"
);
},
{
closed = 1;
nodes = (
"723 0 LINE",
"723 20 LINE",
"695 30 OFFCURVE",
"668 37 OFFCURVE",
"645 42 CURVE",
"497 316 LINE",
"344 316 LINE",
"501 0 LINE"
);
},
{
closed = 1;
nodes = (
"286 645 LINE",
"364 645 LINE SMOOTH",
"445 645 OFFCURVE",
"480 600 OFFCURVE",
"480 507 CURVE SMOOTH",
"480 415 OFFCURVE",
"449 352 OFFCURVE",
"364 352 CURVE SMOOTH",
"286 352 LINE"
);
},
{
closed = 1;
nodes = (
"433 882 LINE SMOOTH",
"468 903 OFFCURVE",
"488 923 OFFCURVE",
"488 950 CURVE SMOOTH",
"488 970 OFFCURVE",
"473 996 OFFCURVE",
"434 996 CURVE SMOOTH",
"400 996 OFFCURVE",
"369 964 OFFCURVE",
"363 958 CURVE",
"239 825 LINE",
"267 786 LINE"
);
}
);
width = 730;
}
);
note = Racute;
rightKerningGroup = R;
unicode = 0154;
},
{
glyphname = Rcaron;
lastChange = "2015-10-27 15:19:11 +0000";
layers = (
{
layerId = "0FC58CF8-AD3A-4320-9E57-2D2B1849830B";
name = Bold;
paths = (
{
closed = 1;
nodes = (
"366 0 LINE",
"366 20 LINE",
"338 28 OFFCURVE",
"308 38 OFFCURVE",
"286 42 CURVE",
"286 298 LINE",
"427 298 LINE SMOOTH",
"565 298 OFFCURVE",
"657 378 OFFCURVE",
"657 505 CURVE SMOOTH",
"657 616 OFFCURVE",
"608 700 OFFCURVE",
"426 700 CURVE SMOOTH",
"29 700 LINE",
"29 679 LINE",
"58 669 OFFCURVE",
"83 662 OFFCURVE",
"107 657 CURVE",
"107 43 LINE",
"103 43 OFFCURVE",
"55 30 OFFCURVE",
"27 22 CURVE",
"27 0 LINE"
);
},
{
closed = 1;
nodes = (
"723 0 LINE",
"723 20 LINE",
"695 30 OFFCURVE",
"668 37 OFFCURVE",
"645 42 CURVE",
"497 316 LINE",
"344 316 LINE",
"501 0 LINE"
);
},
{
closed = 1;
nodes = (
"286 645 LINE",
"364 645 LINE SMOOTH",
"445 645 OFFCURVE",
"480 600 OFFCURVE",
"480 507 CURVE SMOOTH",
"480 415 OFFCURVE",
"449 352 OFFCURVE",
"364 352 CURVE SMOOTH",
"286 352 LINE"
);
},
{
closed = 1;
nodes = (
"403 786 LINE",
"425 820 OFFCURVE",
"520 906 OFFCURVE",
"566 935 CURVE",
"495 985 LINE",
"452 952 OFFCURVE",
"387 887 OFFCURVE",
"364 850 CURVE",
"360 850 LINE",
"338 887 OFFCURVE",
"272 952 OFFCURVE",
"229 985 CURVE",
"158 935 LINE",
"204 906 OFFCURVE",
"299 820 OFFCURVE",
"321 786 CURVE"
);
}
);
width = 730;
}
);
note = Rcaron;
rightKerningGroup = R;
unicode = 0158;
},
{
glyphname = Rcommaaccent;
lastChange = "2015-10-27 15:19:11 +0000";
layers = (
{
layerId = "0FC58CF8-AD3A-4320-9E57-2D2B1849830B";
name = Bold;
paths = (
{
closed = 1;
nodes = (
"366 0 LINE",
"366 20 LINE",
"338 28 OFFCURVE",
"308 38 OFFCURVE",
"286 42 CURVE",
"286 298 LINE",
"427 298 LINE SMOOTH",
"565 298 OFFCURVE",
"657 378 OFFCURVE",
"657 505 CURVE SMOOTH",
"657 616 OFFCURVE",
"608 700 OFFCURVE",
"426 700 CURVE SMOOTH",
"29 700 LINE",
"29 679 LINE",
"58 669 OFFCURVE",
"83 662 OFFCURVE",
"107 657 CURVE",
"107 43 LINE",
"103 43 OFFCURVE",
"55 30 OFFCURVE",
"27 22 CURVE",
"27 0 LINE"
);
},
{
closed = 1;
nodes = (
"416 -338 OFFCURVE",
"463 -250 OFFCURVE",
"463 -167 CURVE SMOOTH",
"463 -124 OFFCURVE",
"436 -85 OFFCURVE",
"378 -85 CURVE SMOOTH",
"336 -85 OFFCURVE",
"298 -113 OFFCURVE",
"298 -158 CURVE SMOOTH",
"298 -199 OFFCURVE",
"332 -231 OFFCURVE",
"374 -234 CURVE",
"366 -279 OFFCURVE",
"327 -325 OFFCURVE",
"302 -350 CURVE",
"355 -390 LINE"
);
},
{
closed = 1;
nodes = (
"723 0 LINE",
"723 20 LINE",
"695 30 OFFCURVE",
"668 37 OFFCURVE",
"645 42 CURVE",
"497 316 LINE",
"344 316 LINE",
"501 0 LINE"
);
},
{
closed = 1;
nodes = (
"286 645 LINE",
"364 645 LINE SMOOTH",
"445 645 OFFCURVE",
"480 600 OFFCURVE",
"480 507 CURVE SMOOTH",
"480 415 OFFCURVE",
"449 352 OFFCURVE",
"364 352 CURVE SMOOTH",
"286 352 LINE"
);
}
);
width = 730;
}
);
note = Rcommaaccent;
rightKerningGroup = R;
unicode = 0156;
},
{
glyphname = Rdotbelow;
lastChange = "2015-10-27 15:19:11 +0000";
layers = (
{
layerId = "0FC58CF8-AD3A-4320-9E57-2D2B1849830B";
name = Bold;
paths = (
{
closed = 1;
nodes = (
"366 0 LINE",
"366 20 LINE",
"338 28 OFFCURVE",
"308 38 OFFCURVE",
"286 42 CURVE",
"286 298 LINE",
"427 298 LINE SMOOTH",
"565 298 OFFCURVE",
"657 378 OFFCURVE",
"657 505 CURVE SMOOTH",
"657 616 OFFCURVE",
"608 700 OFFCURVE",
"426 700 CURVE SMOOTH",
"29 700 LINE",
"29 679 LINE",
"58 669 OFFCURVE",
"83 662 OFFCURVE",
"107 657 CURVE",
"107 43 LINE",
"103 43 OFFCURVE",
"55 30 OFFCURVE",
"27 22 CURVE",
"27 0 LINE"
);
},
{
closed = 1;
nodes = (
"403 -187 OFFCURVE",
"429 -157 OFFCURVE",
"429 -120 CURVE SMOOTH",
"429 -82 OFFCURVE",
"403 -52 OFFCURVE",
"361 -52 CURVE SMOOTH",
"320 -52 OFFCURVE",
"295 -82 OFFCURVE",
"295 -120 CURVE SMOOTH",
"295 -157 OFFCURVE",
"320 -187 OFFCURVE",
"361 -187 CURVE SMOOTH"
);
},
{
closed = 1;
nodes = (
"723 0 LINE",
"723 20 LINE",
"695 30 OFFCURVE",
"668 37 OFFCURVE",
"645 42 CURVE",
"497 316 LINE",
"344 316 LINE",
"501 0 LINE"
);
},
{
closed = 1;
nodes = (
"286 645 LINE",
"364 645 LINE SMOOTH",
"445 645 OFFCURVE",
"480 600 OFFCURVE",
"480 507 CURVE SMOOTH",
"480 415 OFFCURVE",
"449 352 OFFCURVE",
"364 352 CURVE SMOOTH",
"286 352 LINE"
);
}
);
width = 730;
}
);
note = Rdotbelow;
rightKerningGroup = R;
unicode = 1E5A;
},
{
glyphname = Rdotbelowmacron;
lastChange = "2015-10-27 15:19:12 +0000";
layers = (
{
layerId = "0FC58CF8-AD3A-4320-9E57-2D2B1849830B";
name = Bold;
paths = (
{
closed = 1;
nodes = (
"366 0 LINE",
"366 20 LINE",
"338 28 OFFCURVE",
"308 38 OFFCURVE",
"286 42 CURVE",
"286 298 LINE",
"427 298 LINE SMOOTH",
"565 298 OFFCURVE",
"657 378 OFFCURVE",
"657 505 CURVE SMOOTH",
"657 616 OFFCURVE",
"608 700 OFFCURVE",
"426 700 CURVE SMOOTH",
"29 700 LINE",
"29 679 LINE",
"58 669 OFFCURVE",
"83 662 OFFCURVE",
"107 657 CURVE",
"107 43 LINE",
"103 43 OFFCURVE",
"55 30 OFFCURVE",
"27 22 CURVE",
"27 0 LINE"
);
},
{
closed = 1;
nodes = (
"413 -187 OFFCURVE",
"439 -157 OFFCURVE",
"439 -120 CURVE SMOOTH",
"439 -82 OFFCURVE",
"413 -52 OFFCURVE",
"371 -52 CURVE SMOOTH",
"330 -52 OFFCURVE",
"305 -82 OFFCURVE",
"305 -120 CURVE SMOOTH",
"305 -157 OFFCURVE",
"330 -187 OFFCURVE",
"371 -187 CURVE SMOOTH"
);
},
{
closed = 1;
nodes = (
"723 0 LINE",
"723 20 LINE",
"695 30 OFFCURVE",
"668 37 OFFCURVE",
"645 42 CURVE",
"497 316 LINE",
"344 316 LINE",
"501 0 LINE"
);
},
{
closed = 1;
nodes = (
"286 645 LINE",
"364 645 LINE SMOOTH",
"445 645 OFFCURVE",
"480 600 OFFCURVE",
"480 507 CURVE SMOOTH",
"480 415 OFFCURVE",
"449 352 OFFCURVE",
"364 352 CURVE SMOOTH",
"286 352 LINE"
);
},
{
closed = 1;
nodes = (
"556 785 LINE",
"556 838 LINE",
"105 838 LINE",
"105 785 LINE"
);
}
);
width = 739;
}
);
note = Rdotbelowmacron;
rightKerningGroup = R;
unicode = 1E5C;
},
{
glyphname = Rlinebelow;
lastChange = "2015-10-27 15:19:12 +0000";
layers = (
{
layerId = "0FC58CF8-AD3A-4320-9E57-2D2B1849830B";
name = Bold;
paths = (
{
closed = 1;
nodes = (
"366 0 LINE",
"366 20 LINE",
"338 28 OFFCURVE",
"308 38 OFFCURVE",
"286 42 CURVE",
"286 298 LINE",
"427 298 LINE SMOOTH",
"565 298 OFFCURVE",
"657 378 OFFCURVE",
"657 505 CURVE SMOOTH",
"657 616 OFFCURVE",
"608 700 OFFCURVE",
"426 700 CURVE SMOOTH",
"29 700 LINE",
"29 679 LINE",
"58 669 OFFCURVE",
"83 662 OFFCURVE",
"107 657 CURVE",
"107 43 LINE",
"103 43 OFFCURVE",
"55 30 OFFCURVE",
"27 22 CURVE",
"27 0 LINE"
);
},
{
closed = 1;
nodes = (
"538 -111 LINE",
"538 -58 LINE",
"129 -58 LINE",
"129 -111 LINE"
);
},
{
closed = 1;
nodes = (
"723 0 LINE",
"723 20 LINE",
"695 30 OFFCURVE",
"668 37 OFFCURVE",
"645 42 CURVE",
"497 316 LINE",
"344 316 LINE",
"501 0 LINE"
);
},
{
closed = 1;
nodes = (
"286 645 LINE",
"364 645 LINE SMOOTH",
"445 645 OFFCURVE",
"480 600 OFFCURVE",
"480 507 CURVE SMOOTH",
"480 415 OFFCURVE",
"449 352 OFFCURVE",
"364 352 CURVE SMOOTH",
"286 352 LINE"
);
}
);
width = 730;
}
);
note = Rlinebelow;
rightKerningGroup = R;
unicode = 1E5E;
},
{
glyphname = S;
lastChange = "2015-10-27 15:19:11 +0000";
layers = (
{
layerId = "0FC58CF8-AD3A-4320-9E57-2D2B1849830B";
name = Bold;
paths = (
{
closed = 1;
nodes = (
"458 -10 OFFCURVE",
"585 63 OFFCURVE",
"585 199 CURVE SMOOTH",
"585 472 OFFCURVE",
"224 416 OFFCURVE",
"224 554 CURVE SMOOTH",
"224 627 OFFCURVE",
"283 653 OFFCURVE",
"354 653 CURVE SMOOTH",
"402 653 OFFCURVE",
"450 641 OFFCURVE",
"478 618 CURVE",
"483 569 OFFCURVE",
"491 531 OFFCURVE",
"503 493 CURVE",
"544 493 LINE",
"560 636 LINE",
"503 688 OFFCURVE",
"429 710 OFFCURVE",
"317 710 CURVE SMOOTH",
"154 710 OFFCURVE",
"42 649 OFFCURVE",
"42 525 CURVE SMOOTH",
"42 268 OFFCURVE",
"403 351 OFFCURVE",
"403 175 CURVE SMOOTH",
"403 86 OFFCURVE",
"329 47 OFFCURVE",
"250 47 CURVE SMOOTH",
"197 47 OFFCURVE",
"145 68 OFFCURVE",
"113 99 CURVE",
"109 148 OFFCURVE",
"104 197 OFFCURVE",
"91 235 CURVE",
"50 235 LINE",
"34 86 LINE",
"80 28 OFFCURVE",
"183 -10 OFFCURVE",
"297 -10 CURVE SMOOTH"
);
}
);
width = 619;
}
);
leftKerningGroup = S;
note = S;
rightKerningGroup = S;
unicode = 0053;
},
{
glyphname = Sacute;
lastChange = "2015-10-27 15:19:12 +0000";
layers = (
{
layerId = "0FC58CF8-AD3A-4320-9E57-2D2B1849830B";
name = Bold;
paths = (
{
closed = 1;
nodes = (
"458 -10 OFFCURVE",
"585 63 OFFCURVE",
"585 199 CURVE SMOOTH",
"585 472 OFFCURVE",
"224 416 OFFCURVE",
"224 554 CURVE SMOOTH",
"224 627 OFFCURVE",
"283 653 OFFCURVE",
"354 653 CURVE SMOOTH",
"402 653 OFFCURVE",
"450 641 OFFCURVE",
"478 618 CURVE",
"483 569 OFFCURVE",
"491 531 OFFCURVE",
"503 493 CURVE",
"544 493 LINE",
"560 636 LINE",
"503 688 OFFCURVE",
"429 710 OFFCURVE",
"317 710 CURVE SMOOTH",
"154 710 OFFCURVE",
"42 649 OFFCURVE",
"42 525 CURVE SMOOTH",
"42 268 OFFCURVE",
"403 351 OFFCURVE",
"403 175 CURVE SMOOTH",
"403 86 OFFCURVE",
"329 47 OFFCURVE",
"250 47 CURVE SMOOTH",
"197 47 OFFCURVE",
"145 68 OFFCURVE",
"113 99 CURVE",
"109 148 OFFCURVE",
"104 197 OFFCURVE",
"91 235 CURVE",
"50 235 LINE",
"34 86 LINE",
"80 28 OFFCURVE",
"183 -10 OFFCURVE",
"297 -10 CURVE SMOOTH"
);
},
{
closed = 1;
nodes = (
"383 882 LINE SMOOTH",
"418 903 OFFCURVE",
"438 923 OFFCURVE",
"438 950 CURVE SMOOTH",
"438 970 OFFCURVE",
"423 996 OFFCURVE",
"384 996 CURVE SMOOTH",
"350 996 OFFCURVE",
"319 964 OFFCURVE",
"313 958 CURVE",
"189 825 LINE",
"217 786 LINE"
);
}
);
width = 619;
}
);
leftKerningGroup = S;
note = Sacute;
rightKerningGroup = S;
unicode = 015A;
},
{
glyphname = Scaron;
lastChange = "2015-10-27 15:19:12 +0000";
layers = (
{
layerId = "0FC58CF8-AD3A-4320-9E57-2D2B1849830B";
name = Bold;
paths = (
{
closed = 1;
nodes = (
"458 -10 OFFCURVE",
"585 63 OFFCURVE",
"585 199 CURVE SMOOTH",
"585 472 OFFCURVE",
"224 416 OFFCURVE",
"224 554 CURVE SMOOTH",
"224 627 OFFCURVE",
"283 653 OFFCURVE",
"354 653 CURVE SMOOTH",
"402 653 OFFCURVE",
"450 641 OFFCURVE",
"478 618 CURVE",
"483 569 OFFCURVE",
"491 531 OFFCURVE",
"503 493 CURVE",
"544 493 LINE",
"560 636 LINE",
"503 688 OFFCURVE",
"429 710 OFFCURVE",
"317 710 CURVE SMOOTH",
"154 710 OFFCURVE",
"42 649 OFFCURVE",
"42 525 CURVE SMOOTH",
"42 268 OFFCURVE",
"403 351 OFFCURVE",
"403 175 CURVE SMOOTH",
"403 86 OFFCURVE",
"329 47 OFFCURVE",
"250 47 CURVE SMOOTH",
"197 47 OFFCURVE",
"145 68 OFFCURVE",
"113 99 CURVE",
"109 148 OFFCURVE",
"104 197 OFFCURVE",
"91 235 CURVE",
"50 235 LINE",
"34 86 LINE",
"80 28 OFFCURVE",
"183 -10 OFFCURVE",
"297 -10 CURVE SMOOTH"
);
},
{
closed = 1;
nodes = (
"349 786 LINE",
"371 820 OFFCURVE",
"466 906 OFFCURVE",
"512 935 CURVE",
"441 985 LINE",
"398 952 OFFCURVE",
"333 887 OFFCURVE",
"310 850 CURVE",
"306 850 LINE",
"284 887 OFFCURVE",
"218 952 OFFCURVE",
"175 985 CURVE",
"104 935 LINE",
"150 906 OFFCURVE",
"245 820 OFFCURVE",
"267 786 CURVE"
);
}
);
width = 619;
}
);
leftKerningGroup = S;
note = Scaron;
rightKerningGroup = S;
unicode = 0160;
},
{
glyphname = Scedilla;
lastChange = "2015-10-27 15:19:12 +0000";
layers = (
{
layerId = "0FC58CF8-AD3A-4320-9E57-2D2B1849830B";
name = Bold;
paths = (
{
closed = 1;
nodes = (
"458 -10 OFFCURVE",
"585 63 OFFCURVE",
"585 199 CURVE SMOOTH",
"585 472 OFFCURVE",
"224 416 OFFCURVE",
"224 554 CURVE SMOOTH",
"224 627 OFFCURVE",
"283 653 OFFCURVE",
"354 653 CURVE SMOOTH",
"402 653 OFFCURVE",
"450 641 OFFCURVE",
"478 618 CURVE",
"483 569 OFFCURVE",
"491 531 OFFCURVE",
"503 493 CURVE",
"544 493 LINE",
"560 636 LINE",
"503 688 OFFCURVE",
"429 710 OFFCURVE",
"317 710 CURVE SMOOTH",
"154 710 OFFCURVE",
"42 649 OFFCURVE",
"42 525 CURVE SMOOTH",
"42 268 OFFCURVE",
"403 351 OFFCURVE",
"403 175 CURVE SMOOTH",
"403 86 OFFCURVE",
"329 47 OFFCURVE",
"250 47 CURVE SMOOTH",
"197 47 OFFCURVE",
"145 68 OFFCURVE",
"113 99 CURVE",
"109 148 OFFCURVE",
"104 197 OFFCURVE",
"91 235 CURVE",
"50 235 LINE",
"34 86 LINE",
"80 28 OFFCURVE",
"183 -10 OFFCURVE",
"297 -10 CURVE SMOOTH"
);
},
{
closed = 1;
nodes = (
"378 -263 OFFCURVE",
"448 -225 OFFCURVE",
"448 -150 CURVE SMOOTH",
"448 -107 OFFCURVE",
"414 -59 OFFCURVE",
"324 -59 CURVE",
"367 28 LINE",
"294 28 LINE",
"243 -71 LINE",
"270 -106 LINE",
"277 -105 OFFCURVE",
"285 -105 OFFCURVE",
"293 -105 CURVE SMOOTH",
"325 -105 OFFCURVE",
"364 -114 OFFCURVE",
"364 -150 CURVE SMOOTH",
"364 -193 OFFCURVE",
"324 -206 OFFCURVE",
"280 -206 CURVE SMOOTH",
"249 -206 OFFCURVE",
"217 -198 OFFCURVE",
"196 -185 CURVE",
"170 -228 LINE",
"202 -250 OFFCURVE",
"253 -263 OFFCURVE",
"294 -263 CURVE SMOOTH"
);
}
);
width = 619;
}
);
leftKerningGroup = S;
note = Scedilla;
rightKerningGroup = S;
unicode = 015E;
},
{
glyphname = Scircumflex;
lastChange = "2015-10-27 15:19:11 +0000";
layers = (
{
layerId = "0FC58CF8-AD3A-4320-9E57-2D2B1849830B";
name = Bold;
paths = (
{
closed = 1;
nodes = (
"458 -10 OFFCURVE",
"585 63 OFFCURVE",
"585 199 CURVE SMOOTH",
"585 472 OFFCURVE",
"224 416 OFFCURVE",
"224 554 CURVE SMOOTH",
"224 627 OFFCURVE",
"283 653 OFFCURVE",
"354 653 CURVE SMOOTH",
"402 653 OFFCURVE",
"450 641 OFFCURVE",
"478 618 CURVE",
"483 569 OFFCURVE",
"491 531 OFFCURVE",
"503 493 CURVE",
"544 493 LINE",
"560 636 LINE",
"503 688 OFFCURVE",
"429 710 OFFCURVE",
"317 710 CURVE SMOOTH",
"154 710 OFFCURVE",
"42 649 OFFCURVE",
"42 525 CURVE SMOOTH",
"42 268 OFFCURVE",
"403 351 OFFCURVE",
"403 175 CURVE SMOOTH",
"403 86 OFFCURVE",
"329 47 OFFCURVE",
"250 47 CURVE SMOOTH",
"197 47 OFFCURVE",
"145 68 OFFCURVE",
"113 99 CURVE",
"109 148 OFFCURVE",
"104 197 OFFCURVE",
"91 235 CURVE",
"50 235 LINE",
"34 86 LINE",
"80 28 OFFCURVE",
"183 -10 OFFCURVE",
"297 -10 CURVE SMOOTH"
);
},
{
closed = 1;
nodes = (
"218 818 OFFCURVE",
"284 883 OFFCURVE",
"306 920 CURVE",
"310 920 LINE",
"333 883 OFFCURVE",
"398 818 OFFCURVE",
"441 784 CURVE",
"512 835 LINE",
"466 863 OFFCURVE",
"371 950 OFFCURVE",
"349 984 CURVE",
"267 984 LINE",
"245 950 OFFCURVE",
"150 863 OFFCURVE",
"104 835 CURVE",
"175 784 LINE"
);
}
);
width = 619;
}
);
leftKerningGroup = S;
note = Scircumflex;
rightKerningGroup = S;
unicode = 015C;
},
{
glyphname = Scommaaccent;
lastChange = "2015-10-27 15:19:12 +0000";
layers = (
{
layerId = "0FC58CF8-AD3A-4320-9E57-2D2B1849830B";
name = Bold;
paths = (
{
closed = 1;
nodes = (
"458 -10 OFFCURVE",
"585 63 OFFCURVE",
"585 199 CURVE SMOOTH",
"585 472 OFFCURVE",
"224 416 OFFCURVE",
"224 554 CURVE SMOOTH",
"224 627 OFFCURVE",
"283 653 OFFCURVE",
"354 653 CURVE SMOOTH",
"402 653 OFFCURVE",
"450 641 OFFCURVE",
"478 618 CURVE",
"483 569 OFFCURVE",
"491 531 OFFCURVE",
"503 493 CURVE",
"544 493 LINE",
"560 636 LINE",
"503 688 OFFCURVE",
"429 710 OFFCURVE",
"317 710 CURVE SMOOTH",
"154 710 OFFCURVE",
"42 649 OFFCURVE",
"42 525 CURVE SMOOTH",
"42 268 OFFCURVE",
"403 351 OFFCURVE",
"403 175 CURVE SMOOTH",
"403 86 OFFCURVE",
"329 47 OFFCURVE",
"250 47 CURVE SMOOTH",
"197 47 OFFCURVE",
"145 68 OFFCURVE",
"113 99 CURVE",
"109 148 OFFCURVE",
"104 197 OFFCURVE",
"91 235 CURVE",
"50 235 LINE",
"34 86 LINE",
"80 28 OFFCURVE",
"183 -10 OFFCURVE",
"297 -10 CURVE SMOOTH"
);
},
{
closed = 1;
nodes = (
"348 -309 OFFCURVE",
"397 -216 OFFCURVE",
"397 -133 CURVE SMOOTH",
"397 -90 OFFCURVE",
"369 -51 OFFCURVE",
"311 -51 CURVE SMOOTH",
"268 -51 OFFCURVE",
"231 -79 OFFCURVE",
"231 -125 CURVE SMOOTH",
"231 -165 OFFCURVE",
"268 -199 OFFCURVE",
"307 -201 CURVE",
"299 -246 OFFCURVE",
"259 -297 OFFCURVE",
"234 -322 CURVE",
"288 -362 LINE"
);
}
);
width = 619;
}
);
leftKerningGroup = S;
note = Scommaaccent;
rightKerningGroup = S;
unicode = 0218;
},
{
glyphname = Sdotaccent;
lastChange = "2015-10-27 15:19:12 +0000";
layers = (
{
layerId = "0FC58CF8-AD3A-4320-9E57-2D2B1849830B";
name = Bold;
paths = (
{
closed = 1;
nodes = (
"458 -10 OFFCURVE",
"585 63 OFFCURVE",
"585 199 CURVE SMOOTH",
"585 472 OFFCURVE",
"224 416 OFFCURVE",
"224 554 CURVE SMOOTH",
"224 627 OFFCURVE",
"283 653 OFFCURVE",
"354 653 CURVE SMOOTH",
"402 653 OFFCURVE",
"450 641 OFFCURVE",
"478 618 CURVE",
"483 569 OFFCURVE",
"491 531 OFFCURVE",
"503 493 CURVE",
"544 493 LINE",
"560 636 LINE",
"503 688 OFFCURVE",
"429 710 OFFCURVE",
"317 710 CURVE SMOOTH",
"154 710 OFFCURVE",
"42 649 OFFCURVE",
"42 525 CURVE SMOOTH",
"42 268 OFFCURVE",
"403 351 OFFCURVE",
"403 175 CURVE SMOOTH",
"403 86 OFFCURVE",
"329 47 OFFCURVE",
"250 47 CURVE SMOOTH",
"197 47 OFFCURVE",
"145 68 OFFCURVE",
"113 99 CURVE",
"109 148 OFFCURVE",
"104 197 OFFCURVE",
"91 235 CURVE",
"50 235 LINE",
"34 86 LINE",
"80 28 OFFCURVE",
"183 -10 OFFCURVE",
"297 -10 CURVE SMOOTH"
);
},
{
closed = 1;
nodes = (
"368 785 OFFCURVE",
"394 815 OFFCURVE",
"394 852 CURVE SMOOTH",
"394 890 OFFCURVE",
"368 920 OFFCURVE",
"327 920 CURVE SMOOTH",
"285 920 OFFCURVE",
"260 890 OFFCURVE",
"260 852 CURVE SMOOTH",
"260 815 OFFCURVE",
"285 785 OFFCURVE",
"327 785 CURVE SMOOTH"
);
}
);
width = 619;
}
);
leftKerningGroup = S;
note = Sdotaccent;
rightKerningGroup = S;
unicode = 1E60;
},
{
glyphname = Sdotbelow;
lastChange = "2015-10-27 15:19:12 +0000";
layers = (
{
layerId = "0FC58CF8-AD3A-4320-9E57-2D2B1849830B";
name = Bold;
paths = (
{
closed = 1;
nodes = (
"458 -10 OFFCURVE",
"585 63 OFFCURVE",
"585 199 CURVE SMOOTH",
"585 472 OFFCURVE",
"224 416 OFFCURVE",
"224 554 CURVE SMOOTH",
"224 627 OFFCURVE",
"283 653 OFFCURVE",
"354 653 CURVE SMOOTH",
"402 653 OFFCURVE",
"450 641 OFFCURVE",
"478 618 CURVE",
"483 569 OFFCURVE",
"491 531 OFFCURVE",
"503 493 CURVE",
"544 493 LINE",
"560 636 LINE",
"503 688 OFFCURVE",
"429 710 OFFCURVE",
"317 710 CURVE SMOOTH",
"154 710 OFFCURVE",
"42 649 OFFCURVE",
"42 525 CURVE SMOOTH",
"42 268 OFFCURVE",
"403 351 OFFCURVE",
"403 175 CURVE SMOOTH",
"403 86 OFFCURVE",
"329 47 OFFCURVE",
"250 47 CURVE SMOOTH",
"197 47 OFFCURVE",
"145 68 OFFCURVE",
"113 99 CURVE",
"109 148 OFFCURVE",
"104 197 OFFCURVE",
"91 235 CURVE",
"50 235 LINE",
"34 86 LINE",
"80 28 OFFCURVE",
"183 -10 OFFCURVE",
"297 -10 CURVE SMOOTH"
);
},
{
closed = 1;
nodes = (
"360 -187 OFFCURVE",
"386 -157 OFFCURVE",
"386 -120 CURVE SMOOTH",
"386 -82 OFFCURVE",
"360 -52 OFFCURVE",
"318 -52 CURVE SMOOTH",
"277 -52 OFFCURVE",
"252 -82 OFFCURVE",
"252 -120 CURVE SMOOTH",
"252 -157 OFFCURVE",
"277 -187 OFFCURVE",
"318 -187 CURVE SMOOTH"
);
}
);
width = 619;
}
);
leftKerningGroup = S;
note = Sdotbelow;
rightKerningGroup = S;
unicode = 1E62;
},
{
glyphname = Germandbls;
lastChange = "2015-10-27 15:19:11 +0000";
layers = (
{
layerId = "0FC58CF8-AD3A-4320-9E57-2D2B1849830B";
name = Bold;
paths = (
{
closed = 1;
nodes = (
"672 -10 OFFCURVE",
"759 90 OFFCURVE",
"759 207 CURVE SMOOTH",
"759 309 OFFCURVE",
"672 382 OFFCURVE",
"529 402 CURVE",
"675 552 LINE",
"651 627 OFFCURVE",
"554 710 OFFCURVE",
"393 710 CURVE SMOOTH",
"189 710 OFFCURVE",
"98 628 OFFCURVE",
"98 488 CURVE SMOOTH",
"98 43 LINE",
"70 37 OFFCURVE",
"44 29 OFFCURVE",
"17 22 CURVE",
"17 0 LINE",
"298 0 LINE",
"298 43 LINE",
"292 45 OFFCURVE",
"277 49 OFFCURVE",
"273 50 CURVE",
"273 534 LINE SMOOTH",
"273 612 OFFCURVE",
"315 653 OFFCURVE",
"386 653 CURVE SMOOTH",
"461 653 OFFCURVE",
"503 609 OFFCURVE",
"519 558 CURVE",
"349 380 LINE",
"349 353 LINE",
"451 353 LINE SMOOTH",
"538 353 OFFCURVE",
"583 293 OFFCURVE",
"583 207 CURVE SMOOTH",
"583 110 OFFCURVE",
"540 44 OFFCURVE",
"464 44 CURVE SMOOTH",
"430 44 OFFCURVE",
"395 49 OFFCURVE",
"360 58 CURVE",
"360 2 LINE",
"392 -6 OFFCURVE",
"428 -10 OFFCURVE",
"468 -10 CURVE SMOOTH"
);
}
);
width = 789;
}
);
note = uni1E9E;
unicode = 1E9E;
},
{
glyphname = Schwa;
lastChange = "2015-10-27 15:19:12 +0000";
layers = (
{
layerId = "0FC58CF8-AD3A-4320-9E57-2D2B1849830B";
name = Bold;
paths = (
{
closed = 1;
nodes = (
"596 -10 OFFCURVE",
"744 111 OFFCURVE",
"744 344 CURVE SMOOTH",
"744 559 OFFCURVE",
"599 710 OFFCURVE",
"343 710 CURVE SMOOTH",
"183 710 OFFCURVE",
"95 659 OFFCURVE",
"48 627 CURVE",
"71 572 LINE",
"169 636 OFFCURVE",
"242 652 OFFCURVE",
"328 652 CURVE SMOOTH",
"489 652 OFFCURVE",
"572 488 OFFCURVE",
"572 327 CURVE SMOOTH",
"572 181 OFFCURVE",
"505 43 OFFCURVE",
"361 43 CURVE SMOOTH",
"252 43 OFFCURVE",
"204 175 OFFCURVE",
"204 292 CURVE",
"583 292 LINE",
"583 348 LINE",
"31 348 LINE",
"31 312 LINE SMOOTH",
"31 138 OFFCURVE",
"131 -10 OFFCURVE",
"366 -10 CURVE SMOOTH"
);
}
);
width = 775;
}
);
note = uni018F;
unicode = 018F;
},
{
glyphname = T;
lastChange = "2015-10-27 15:19:11 +0000";
layers = (
{
layerId = "0FC58CF8-AD3A-4320-9E57-2D2B1849830B";
name = Bold;
paths = (
{
closed = 1;
nodes = (
"523 0 LINE",
"523 20 LINE",
"496 28 OFFCURVE",
"457 38 OFFCURVE",
"434 42 CURVE",
"434 645 LINE",
"582 645 LINE",
"584 613 OFFCURVE",
"610 510 OFFCURVE",
"625 487 CURVE",
"663 487 LINE",
"663 700 LINE",
"27 700 LINE",
"27 487 LINE",
"65 487 LINE",
"80 510 OFFCURVE",
"106 613 OFFCURVE",
"108 645 CURVE",
"256 645 LINE",
"256 43 LINE",
"225 36 OFFCURVE",
"194 29 OFFCURVE",
"168 22 CURVE",
"168 0 LINE"
);
}
);
width = 691;
}
);
leftKerningGroup = T;
note = T;
rightKerningGroup = T;
unicode = 0054;
},
{
glyphname = Tbar;
lastChange = "2015-10-27 15:19:11 +0000";
layers = (
{
layerId = "0FC58CF8-AD3A-4320-9E57-2D2B1849830B";
name = Bold;
paths = (
{
closed = 1;
nodes = (
"523 0 LINE",
"523 20 LINE",
"496 28 OFFCURVE",
"457 38 OFFCURVE",
"434 42 CURVE",
"434 645 LINE",
"582 645 LINE",
"584 613 OFFCURVE",
"610 510 OFFCURVE",
"625 487 CURVE",
"663 487 LINE",
"663 700 LINE",
"27 700 LINE",
"27 487 LINE",
"65 487 LINE",
"80 510 OFFCURVE",
"106 613 OFFCURVE",
"108 645 CURVE",
"256 645 LINE",
"256 43 LINE",
"225 36 OFFCURVE",
"194 29 OFFCURVE",
"168 22 CURVE",
"168 0 LINE"
);
},
{
closed = 1;
nodes = (
"581 288 LINE",
"581 341 LINE",
"122 341 LINE",
"122 288 LINE"
);
}
);
width = 691;
}
);
leftKerningGroup = T;
note = Tbar;
rightKerningGroup = T;
unicode = 0166;
},
{
glyphname = Tcaron;
lastChange = "2015-10-27 15:19:11 +0000";
layers = (
{
layerId = "0FC58CF8-AD3A-4320-9E57-2D2B1849830B";
name = Bold;
paths = (
{
closed = 1;
nodes = (
"523 0 LINE",
"523 20 LINE",
"496 28 OFFCURVE",
"457 38 OFFCURVE",
"434 42 CURVE",
"434 645 LINE",
"582 645 LINE",
"584 613 OFFCURVE",
"610 510 OFFCURVE",
"625 487 CURVE",
"663 487 LINE",
"663 700 LINE",
"27 700 LINE",
"27 487 LINE",
"65 487 LINE",
"80 510 OFFCURVE",
"106 613 OFFCURVE",
"108 645 CURVE",
"256 645 LINE",
"256 43 LINE",
"225 36 OFFCURVE",
"194 29 OFFCURVE",
"168 22 CURVE",
"168 0 LINE"
);
},
{
closed = 1;
nodes = (
"384 786 LINE",
"406 820 OFFCURVE",
"501 906 OFFCURVE",
"547 935 CURVE",
"476 985 LINE",
"433 952 OFFCURVE",
"368 887 OFFCURVE",
"345 850 CURVE",
"341 850 LINE",
"319 887 OFFCURVE",
"253 952 OFFCURVE",
"210 985 CURVE",
"139 935 LINE",
"185 906 OFFCURVE",
"280 820 OFFCURVE",
"302 786 CURVE"
);
}
);
width = 691;
}
);
leftKerningGroup = T;
note = Tcaron;
rightKerningGroup = T;
unicode = 0164;
},
{
glyphname = Tcedilla;
lastChange = "2015-10-27 15:19:12 +0000";
layers = (
{
layerId = "0FC58CF8-AD3A-4320-9E57-2D2B1849830B";
name = Bold;
paths = (
{
closed = 1;
nodes = (
"523 0 LINE",
"523 20 LINE",
"496 28 OFFCURVE",
"457 38 OFFCURVE",
"434 42 CURVE",
"434 645 LINE",
"582 645 LINE",
"584 613 OFFCURVE",
"610 510 OFFCURVE",
"625 487 CURVE",
"663 487 LINE",
"663 700 LINE",
"27 700 LINE",
"27 487 LINE",
"65 487 LINE",
"80 510 OFFCURVE",
"106 613 OFFCURVE",
"108 645 CURVE",
"256 645 LINE",
"256 43 LINE",
"225 36 OFFCURVE",
"194 29 OFFCURVE",
"168 22 CURVE",
"168 0 LINE"
);
},
{
closed = 1;
nodes = (
"393 -263 OFFCURVE",
"463 -225 OFFCURVE",
"463 -150 CURVE SMOOTH",
"463 -109 OFFCURVE",
"434 -66 OFFCURVE",
"356 -60 CURVE",
"352 -60 OFFCURVE",
"343 -59 OFFCURVE",
"339 -59 CURVE",
"382 28 LINE",
"309 28 LINE",
"258 -71 LINE",
"285 -106 LINE",
"292 -105 OFFCURVE",
"300 -105 OFFCURVE",
"308 -105 CURVE SMOOTH",
"340 -105 OFFCURVE",
"379 -114 OFFCURVE",
"379 -150 CURVE SMOOTH",
"379 -193 OFFCURVE",
"339 -206 OFFCURVE",
"295 -206 CURVE SMOOTH",
"264 -206 OFFCURVE",
"232 -198 OFFCURVE",
"211 -185 CURVE",
"185 -228 LINE",
"218 -250 OFFCURVE",
"268 -263 OFFCURVE",
"310 -263 CURVE SMOOTH"
);
}
);
width = 691;
}
);
leftKerningGroup = T;
note = Tcedilla;
rightKerningGroup = T;
unicode = 0162;
},
{
glyphname = Tcommaaccent;
lastChange = "2015-10-27 15:19:12 +0000";
layers = (
{
layerId = "0FC58CF8-AD3A-4320-9E57-2D2B1849830B";
name = Bold;
paths = (
{
closed = 1;
nodes = (
"523 0 LINE",
"523 20 LINE",
"496 28 OFFCURVE",
"457 38 OFFCURVE",
"434 42 CURVE",
"434 645 LINE",
"582 645 LINE",
"584 613 OFFCURVE",
"610 510 OFFCURVE",
"625 487 CURVE",
"663 487 LINE",
"663 700 LINE",
"27 700 LINE",
"27 487 LINE",
"65 487 LINE",
"80 510 OFFCURVE",
"106 613 OFFCURVE",
"108 645 CURVE",
"256 645 LINE",
"256 43 LINE",
"225 36 OFFCURVE",
"194 29 OFFCURVE",
"168 22 CURVE",
"168 0 LINE"
);
},
{
closed = 1;
nodes = (
"381 -338 OFFCURVE",
"428 -250 OFFCURVE",
"428 -167 CURVE SMOOTH",
"428 -124 OFFCURVE",
"401 -85 OFFCURVE",
"343 -85 CURVE SMOOTH",
"301 -85 OFFCURVE",
"263 -113 OFFCURVE",
"263 -158 CURVE SMOOTH",
"263 -199 OFFCURVE",
"297 -231 OFFCURVE",
"339 -234 CURVE",
"331 -279 OFFCURVE",
"292 -325 OFFCURVE",
"267 -350 CURVE",
"320 -390 LINE"
);
}
);
width = 691;
}
);
leftKerningGroup = T;
note = Tcommaaccent;
rightKerningGroup = T;
unicode = 021A;
},
{
glyphname = Tdotbelow;
lastChange = "2015-10-27 15:19:12 +0000";
layers = (
{
layerId = "0FC58CF8-AD3A-4320-9E57-2D2B1849830B";
name = Bold;
paths = (
{
closed = 1;
nodes = (
"523 0 LINE",
"523 20 LINE",
"496 28 OFFCURVE",
"457 38 OFFCURVE",
"434 42 CURVE",
"434 645 LINE",
"582 645 LINE",
"584 613 OFFCURVE",
"610 510 OFFCURVE",
"625 487 CURVE",
"663 487 LINE",
"663 700 LINE",
"27 700 LINE",
"27 487 LINE",
"65 487 LINE",
"80 510 OFFCURVE",
"106 613 OFFCURVE",
"108 645 CURVE",
"256 645 LINE",
"256 43 LINE",
"225 36 OFFCURVE",
"194 29 OFFCURVE",
"168 22 CURVE",
"168 0 LINE"
);
},
{
closed = 1;
nodes = (
"385 -187 OFFCURVE",
"411 -157 OFFCURVE",
"411 -120 CURVE SMOOTH",
"411 -82 OFFCURVE",
"385 -52 OFFCURVE",
"343 -52 CURVE SMOOTH",
"302 -52 OFFCURVE",
"277 -82 OFFCURVE",
"277 -120 CURVE SMOOTH",
"277 -157 OFFCURVE",
"302 -187 OFFCURVE",
"343 -187 CURVE SMOOTH"
);
}
);
width = 691;
}
);
leftKerningGroup = T;
note = Tdotbelow;
rightKerningGroup = T;
unicode = 1E6C;
},
{
glyphname = Tlinebelow;
lastChange = "2015-10-27 15:19:12 +0000";
layers = (
{
layerId = "0FC58CF8-AD3A-4320-9E57-2D2B1849830B";
name = Bold;
paths = (
{
closed = 1;
nodes = (
"523 0 LINE",
"523 20 LINE",
"496 28 OFFCURVE",
"457 38 OFFCURVE",
"434 42 CURVE",
"434 645 LINE",
"582 645 LINE",
"584 613 OFFCURVE",
"610 510 OFFCURVE",
"625 487 CURVE",
"663 487 LINE",
"663 700 LINE",
"27 700 LINE",
"27 487 LINE",
"65 487 LINE",
"80 510 OFFCURVE",
"106 613 OFFCURVE",
"108 645 CURVE",
"256 645 LINE",
"256 43 LINE",
"225 36 OFFCURVE",
"194 29 OFFCURVE",
"168 22 CURVE",
"168 0 LINE"
);
},
{
closed = 1;
nodes = (
"549 -111 LINE",
"549 -58 LINE",
"140 -58 LINE",
"140 -111 LINE"
);
}
);
width = 691;
}
);
leftKerningGroup = T;
note = Tlinebelow;
rightKerningGroup = T;
unicode = 1E6E;
},
{
glyphname = U;
lastChange = "2015-10-27 15:19:11 +0000";
layers = (
{
layerId = "0FC58CF8-AD3A-4320-9E57-2D2B1849830B";
name = Bold;
paths = (
{
closed = 1;
nodes = (
"611 -10 OFFCURVE",
"710 72 OFFCURVE",
"710 222 CURVE SMOOTH",
"710 656 LINE",
"720 658 OFFCURVE",
"751 666 OFFCURVE",
"790 680 CURVE",
"790 700 LINE",
"561 700 LINE",
"561 680 LINE",
"591 670 OFFCURVE",
"616 663 OFFCURVE",
"642 658 CURVE",
"642 207 LINE SMOOTH",
"642 87 OFFCURVE",
"551 47 OFFCURVE",
"459 47 CURVE SMOOTH",
"368 47 OFFCURVE",
"280 83 OFFCURVE",
"280 207 CURVE SMOOTH",
"280 656 LINE",
"308 663 OFFCURVE",
"336 670 OFFCURVE",
"360 677 CURVE",
"360 700 LINE",
"22 700 LINE",
"22 680 LINE",
"51 670 OFFCURVE",
"78 662 OFFCURVE",
"102 657 CURVE",
"102 222 LINE SMOOTH",
"102 62 OFFCURVE",
"215 -10 OFFCURVE",
"415 -10 CURVE SMOOTH"
);
}
);
width = 812;
}
);
leftKerningGroup = U;
note = U;
rightKerningGroup = U;
unicode = 0055;
},
{
glyphname = Uacute;
lastChange = "2015-10-27 15:19:11 +0000";
layers = (
{
layerId = "0FC58CF8-AD3A-4320-9E57-2D2B1849830B";
name = Bold;
paths = (
{
closed = 1;
nodes = (
"611 -10 OFFCURVE",
"710 72 OFFCURVE",
"710 222 CURVE SMOOTH",
"710 656 LINE",
"720 658 OFFCURVE",
"751 666 OFFCURVE",
"790 680 CURVE",
"790 700 LINE",
"561 700 LINE",
"561 680 LINE",
"591 670 OFFCURVE",
"616 663 OFFCURVE",
"642 658 CURVE",
"642 207 LINE SMOOTH",
"642 87 OFFCURVE",
"551 47 OFFCURVE",
"459 47 CURVE SMOOTH",
"368 47 OFFCURVE",
"280 83 OFFCURVE",
"280 207 CURVE SMOOTH",
"280 656 LINE",
"308 663 OFFCURVE",
"336 670 OFFCURVE",
"360 677 CURVE",
"360 700 LINE",
"22 700 LINE",
"22 680 LINE",
"51 670 OFFCURVE",
"78 662 OFFCURVE",
"102 657 CURVE",
"102 222 LINE SMOOTH",
"102 62 OFFCURVE",
"215 -10 OFFCURVE",
"415 -10 CURVE SMOOTH"
);
},
{
closed = 1;
nodes = (
"530 882 LINE SMOOTH",
"565 903 OFFCURVE",
"585 923 OFFCURVE",
"585 950 CURVE SMOOTH",
"585 970 OFFCURVE",
"570 996 OFFCURVE",
"531 996 CURVE SMOOTH",
"497 996 OFFCURVE",
"466 964 OFFCURVE",
"460 958 CURVE",
"336 825 LINE",
"364 786 LINE"
);
}
);
width = 812;
}
);
leftKerningGroup = U;
note = Uacute;
rightKerningGroup = U;
unicode = 00DA;
},
{
glyphname = Ubreve;
lastChange = "2015-10-27 15:19:12 +0000";
layers = (
{
layerId = "0FC58CF8-AD3A-4320-9E57-2D2B1849830B";
name = Bold;
paths = (
{
closed = 1;
nodes = (
"611 -10 OFFCURVE",
"710 72 OFFCURVE",
"710 222 CURVE SMOOTH",
"710 656 LINE",
"720 658 OFFCURVE",
"751 666 OFFCURVE",
"790 680 CURVE",
"790 700 LINE",
"561 700 LINE",
"561 680 LINE",
"591 670 OFFCURVE",
"616 663 OFFCURVE",
"642 658 CURVE",
"642 207 LINE SMOOTH",
"642 87 OFFCURVE",
"551 47 OFFCURVE",
"459 47 CURVE SMOOTH",
"368 47 OFFCURVE",
"280 83 OFFCURVE",
"280 207 CURVE SMOOTH",
"280 656 LINE",
"308 663 OFFCURVE",
"336 670 OFFCURVE",
"360 677 CURVE",
"360 700 LINE",
"22 700 LINE",
"22 680 LINE",
"51 670 OFFCURVE",
"78 662 OFFCURVE",
"102 657 CURVE",
"102 222 LINE SMOOTH",
"102 62 OFFCURVE",
"215 -10 OFFCURVE",
"415 -10 CURVE SMOOTH"
);
},
{
closed = 1;
nodes = (
"520 783 OFFCURVE",
"591 827 OFFCURVE",
"607 920 CURVE",
"511 920 LINE",
"504 848 OFFCURVE",
"459 839 OFFCURVE",
"418 839 CURVE SMOOTH",
"377 839 OFFCURVE",
"331 848 OFFCURVE",
"324 920 CURVE",
"228 920 LINE",
"245 827 OFFCURVE",
"315 783 OFFCURVE",
"418 783 CURVE SMOOTH"
);
}
);
width = 812;
}
);
leftKerningGroup = U;
note = Ubreve;
rightKerningGroup = U;
unicode = 016C;
},
{
glyphname = Ucaron;
lastChange = "2015-10-27 15:19:12 +0000";
layers = (
{
layerId = "0FC58CF8-AD3A-4320-9E57-2D2B1849830B";
name = Bold;
paths = (
{
closed = 1;
nodes = (
"611 -10 OFFCURVE",
"710 72 OFFCURVE",
"710 222 CURVE SMOOTH",
"710 656 LINE",
"720 658 OFFCURVE",
"751 666 OFFCURVE",
"790 680 CURVE",
"790 700 LINE",
"561 700 LINE",
"561 680 LINE",
"591 670 OFFCURVE",
"616 663 OFFCURVE",
"642 658 CURVE",
"642 207 LINE SMOOTH",
"642 87 OFFCURVE",
"551 47 OFFCURVE",
"459 47 CURVE SMOOTH",
"368 47 OFFCURVE",
"280 83 OFFCURVE",
"280 207 CURVE SMOOTH",
"280 656 LINE",
"308 663 OFFCURVE",
"336 670 OFFCURVE",
"360 677 CURVE",
"360 700 LINE",
"22 700 LINE",
"22 680 LINE",
"51 670 OFFCURVE",
"78 662 OFFCURVE",
"102 657 CURVE",
"102 222 LINE SMOOTH",
"102 62 OFFCURVE",
"215 -10 OFFCURVE",
"415 -10 CURVE SMOOTH"
);
},
{
closed = 1;
nodes = (
"469 786 LINE",
"491 820 OFFCURVE",
"586 906 OFFCURVE",
"632 935 CURVE",
"561 985 LINE",
"518 952 OFFCURVE",
"453 887 OFFCURVE",
"430 850 CURVE",
"426 850 LINE",
"404 887 OFFCURVE",
"338 952 OFFCURVE",
"295 985 CURVE",
"224 935 LINE",
"270 906 OFFCURVE",
"365 820 OFFCURVE",
"387 786 CURVE"
);
}
);
width = 812;
}
);
leftKerningGroup = U;
note = Ucaron;
rightKerningGroup = U;
unicode = 01D3;
},
{
glyphname = Ucircumflex;
lastChange = "2015-10-27 15:19:12 +0000";
layers = (
{
layerId = "0FC58CF8-AD3A-4320-9E57-2D2B1849830B";
name = Bold;
paths = (
{
closed = 1;
nodes = (
"611 -10 OFFCURVE",
"710 72 OFFCURVE",
"710 222 CURVE SMOOTH",
"710 656 LINE",
"720 658 OFFCURVE",
"751 666 OFFCURVE",
"790 680 CURVE",
"790 700 LINE",
"561 700 LINE",
"561 680 LINE",
"591 670 OFFCURVE",
"616 663 OFFCURVE",
"642 658 CURVE",
"642 207 LINE SMOOTH",
"642 87 OFFCURVE",
"551 47 OFFCURVE",
"459 47 CURVE SMOOTH",
"368 47 OFFCURVE",
"280 83 OFFCURVE",
"280 207 CURVE SMOOTH",
"280 656 LINE",
"308 663 OFFCURVE",
"336 670 OFFCURVE",
"360 677 CURVE",
"360 700 LINE",
"22 700 LINE",
"22 680 LINE",
"51 670 OFFCURVE",
"78 662 OFFCURVE",
"102 657 CURVE",
"102 222 LINE SMOOTH",
"102 62 OFFCURVE",
"215 -10 OFFCURVE",
"415 -10 CURVE SMOOTH"
);
},
{
closed = 1;
nodes = (
"317 818 OFFCURVE",
"383 883 OFFCURVE",
"405 920 CURVE",
"409 920 LINE",
"432 883 OFFCURVE",
"497 818 OFFCURVE",
"540 784 CURVE",
"611 835 LINE",
"565 863 OFFCURVE",
"470 950 OFFCURVE",
"448 984 CURVE",
"366 984 LINE",
"344 950 OFFCURVE",
"249 863 OFFCURVE",
"203 835 CURVE",
"274 784 LINE"
);
}
);
width = 812;
}
);
leftKerningGroup = U;
note = Ucircumflex;
rightKerningGroup = U;
unicode = 00DB;
},
{
glyphname = Udieresis;
lastChange = "2015-10-27 15:19:12 +0000";
layers = (
{
layerId = "0FC58CF8-AD3A-4320-9E57-2D2B1849830B";
name = Bold;
paths = (
{
closed = 1;
nodes = (
"611 -10 OFFCURVE",
"710 72 OFFCURVE",
"710 222 CURVE SMOOTH",
"710 656 LINE",
"720 658 OFFCURVE",
"751 666 OFFCURVE",
"790 680 CURVE",
"790 700 LINE",
"561 700 LINE",
"561 680 LINE",
"591 670 OFFCURVE",
"616 663 OFFCURVE",
"642 658 CURVE",
"642 207 LINE SMOOTH",
"642 87 OFFCURVE",
"551 47 OFFCURVE",
"459 47 CURVE SMOOTH",
"368 47 OFFCURVE",
"280 83 OFFCURVE",
"280 207 CURVE SMOOTH",
"280 656 LINE",
"308 663 OFFCURVE",
"336 670 OFFCURVE",
"360 677 CURVE",
"360 700 LINE",
"22 700 LINE",
"22 680 LINE",
"51 670 OFFCURVE",
"78 662 OFFCURVE",
"102 657 CURVE",
"102 222 LINE SMOOTH",
"102 62 OFFCURVE",
"215 -10 OFFCURVE",
"415 -10 CURVE SMOOTH"
);
},
{
closed = 1;
nodes = (
"350 785 OFFCURVE",
"376 815 OFFCURVE",
"376 852 CURVE SMOOTH",
"376 890 OFFCURVE",
"350 920 OFFCURVE",
"309 920 CURVE SMOOTH",
"268 920 OFFCURVE",
"242 890 OFFCURVE",
"242 852 CURVE SMOOTH",
"242 815 OFFCURVE",
"268 785 OFFCURVE",
"309 785 CURVE SMOOTH"
);
},
{
closed = 1;
nodes = (
"597 785 OFFCURVE",
"623 815 OFFCURVE",
"623 852 CURVE SMOOTH",
"623 890 OFFCURVE",
"597 920 OFFCURVE",
"555 920 CURVE SMOOTH",
"514 920 OFFCURVE",
"489 890 OFFCURVE",
"489 852 CURVE SMOOTH",
"489 815 OFFCURVE",
"514 785 OFFCURVE",
"555 785 CURVE SMOOTH"
);
}
);
width = 812;
}
);
leftKerningGroup = U;
note = Udieresis;
rightKerningGroup = U;
unicode = 00DC;
},
{
glyphname = Udieresisacute;
lastChange = "2015-10-27 15:19:12 +0000";
layers = (
{
layerId = "0FC58CF8-AD3A-4320-9E57-2D2B1849830B";
name = Bold;
paths = (
{
closed = 1;
nodes = (
"611 -10 OFFCURVE",
"710 72 OFFCURVE",
"710 222 CURVE SMOOTH",
"710 656 LINE",
"720 658 OFFCURVE",
"751 666 OFFCURVE",
"790 680 CURVE",
"790 700 LINE",
"561 700 LINE",
"561 680 LINE",
"591 670 OFFCURVE",
"616 663 OFFCURVE",
"642 658 CURVE",
"642 207 LINE SMOOTH",
"642 87 OFFCURVE",
"551 47 OFFCURVE",
"459 47 CURVE SMOOTH",
"368 47 OFFCURVE",
"280 83 OFFCURVE",
"280 207 CURVE SMOOTH",
"280 656 LINE",
"308 663 OFFCURVE",
"336 670 OFFCURVE",
"360 677 CURVE",
"360 700 LINE",
"22 700 LINE",
"22 680 LINE",
"51 670 OFFCURVE",
"78 662 OFFCURVE",
"102 657 CURVE",
"102 222 LINE SMOOTH",
"102 62 OFFCURVE",
"215 -10 OFFCURVE",
"415 -10 CURVE SMOOTH"
);
},
{
closed = 1;
nodes = (
"352 785 OFFCURVE",
"378 815 OFFCURVE",
"378 852 CURVE SMOOTH",
"378 889 OFFCURVE",
"352 920 OFFCURVE",
"310 920 CURVE SMOOTH",
"269 920 OFFCURVE",
"244 889 OFFCURVE",
"244 852 CURVE SMOOTH",
"244 815 OFFCURVE",
"269 785 OFFCURVE",
"310 785 CURVE SMOOTH"
);
},
{
closed = 1;
nodes = (
"598 785 OFFCURVE",
"624 815 OFFCURVE",
"624 852 CURVE SMOOTH",
"624 889 OFFCURVE",
"598 920 OFFCURVE",
"557 920 CURVE SMOOTH",
"515 920 OFFCURVE",
"490 889 OFFCURVE",
"490 852 CURVE SMOOTH",
"490 815 OFFCURVE",
"515 785 OFFCURVE",
"557 785 CURVE SMOOTH"
);
},
{
closed = 1;
nodes = (
"516 1066 LINE SMOOTH",
"552 1087 OFFCURVE",
"571 1107 OFFCURVE",
"571 1133 CURVE SMOOTH",
"571 1154 OFFCURVE",
"555 1180 OFFCURVE",
"516 1180 CURVE SMOOTH",
"479 1180 OFFCURVE",
"452 1148 OFFCURVE",
"447 1142 CURVE",
"326 1012 LINE",
"354 973 LINE"
);
}
);
width = 812;
}
);
leftKerningGroup = U;
note = Udieresisacute;
rightKerningGroup = U;
unicode = 01D7;
},
{
glyphname = Udieresiscaron;
lastChange = "2015-10-27 15:19:11 +0000";
layers = (
{
layerId = "0FC58CF8-AD3A-4320-9E57-2D2B1849830B";
name = Bold;
paths = (
{
closed = 1;
nodes = (
"611 -10 OFFCURVE",
"710 72 OFFCURVE",
"710 222 CURVE SMOOTH",
"710 656 LINE",
"720 658 OFFCURVE",
"751 666 OFFCURVE",
"790 680 CURVE",
"790 700 LINE",
"561 700 LINE",
"561 680 LINE",
"591 670 OFFCURVE",
"616 663 OFFCURVE",
"642 658 CURVE",
"642 207 LINE SMOOTH",
"642 87 OFFCURVE",
"551 47 OFFCURVE",
"459 47 CURVE SMOOTH",
"368 47 OFFCURVE",
"280 83 OFFCURVE",
"280 207 CURVE SMOOTH",
"280 656 LINE",
"308 663 OFFCURVE",
"336 670 OFFCURVE",
"360 677 CURVE",
"360 700 LINE",
"22 700 LINE",
"22 680 LINE",
"51 670 OFFCURVE",
"78 662 OFFCURVE",
"102 657 CURVE",
"102 222 LINE SMOOTH",
"102 62 OFFCURVE",
"215 -10 OFFCURVE",
"415 -10 CURVE SMOOTH"
);
},
{
closed = 1;
nodes = (
"351 852 OFFCURVE",
"377 881 OFFCURVE",
"377 918 CURVE SMOOTH",
"377 956 OFFCURVE",
"351 986 OFFCURVE",
"310 986 CURVE SMOOTH",
"268 986 OFFCURVE",
"243 956 OFFCURVE",
"243 918 CURVE SMOOTH",
"243 881 OFFCURVE",
"268 852 OFFCURVE",
"310 852 CURVE SMOOTH"
);
},
{
closed = 1;
nodes = (
"598 852 OFFCURVE",
"624 881 OFFCURVE",
"624 918 CURVE SMOOTH",
"624 956 OFFCURVE",
"598 986 OFFCURVE",
"556 986 CURVE SMOOTH",
"515 986 OFFCURVE",
"490 956 OFFCURVE",
"490 918 CURVE SMOOTH",
"490 881 OFFCURVE",
"515 852 OFFCURVE",
"556 852 CURVE SMOOTH"
);
},
{
closed = 1;
nodes = (
"474 1015 LINE",
"496 1049 OFFCURVE",
"583 1125 OFFCURVE",
"629 1154 CURVE",
"560 1206 LINE",
"517 1173 OFFCURVE",
"458 1116 OFFCURVE",
"435 1079 CURVE",
"431 1079 LINE",
"408 1116 OFFCURVE",
"349 1173 OFFCURVE",
"306 1206 CURVE",
"237 1154 LINE",
"283 1125 OFFCURVE",
"370 1049 OFFCURVE",
"392 1015 CURVE"
);
}
);
width = 812;
}
);
leftKerningGroup = U;
note = Udieresiscaron;
rightKerningGroup = U;
unicode = 01D9;
},
{
glyphname = Udieresisgrave;
lastChange = "2015-10-27 15:19:12 +0000";
layers = (
{
layerId = "0FC58CF8-AD3A-4320-9E57-2D2B1849830B";
name = Bold;
paths = (
{
closed = 1;
nodes = (
"611 -10 OFFCURVE",
"710 72 OFFCURVE",
"710 222 CURVE SMOOTH",
"710 656 LINE",
"720 658 OFFCURVE",
"751 666 OFFCURVE",
"790 680 CURVE",
"790 700 LINE",
"561 700 LINE",
"561 680 LINE",
"591 670 OFFCURVE",
"616 663 OFFCURVE",
"642 658 CURVE",
"642 207 LINE SMOOTH",
"642 87 OFFCURVE",
"551 47 OFFCURVE",
"459 47 CURVE SMOOTH",
"368 47 OFFCURVE",
"280 83 OFFCURVE",
"280 207 CURVE SMOOTH",
"280 656 LINE",
"308 663 OFFCURVE",
"336 670 OFFCURVE",
"360 677 CURVE",
"360 700 LINE",
"22 700 LINE",
"22 680 LINE",
"51 670 OFFCURVE",
"78 662 OFFCURVE",
"102 657 CURVE",
"102 222 LINE SMOOTH",
"102 62 OFFCURVE",
"215 -10 OFFCURVE",
"415 -10 CURVE SMOOTH"
);
},
{
closed = 1;
nodes = (
"351 785 OFFCURVE",
"377 814 OFFCURVE",
"377 851 CURVE SMOOTH",
"377 889 OFFCURVE",
"351 919 OFFCURVE",
"310 919 CURVE SMOOTH",
"268 919 OFFCURVE",
"243 889 OFFCURVE",
"243 851 CURVE SMOOTH",
"243 814 OFFCURVE",
"268 785 OFFCURVE",
"310 785 CURVE SMOOTH"
);
},
{
closed = 1;
nodes = (
"471 980 LINE",
"374 1089 LINE SMOOTH",
"369 1095 OFFCURVE",
"341 1127 OFFCURVE",
"304 1127 CURVE SMOOTH",
"265 1127 OFFCURVE",
"252 1102 OFFCURVE",
"252 1081 CURVE SMOOTH",
"252 1055 OFFCURVE",
"271 1036 OFFCURVE",
"307 1016 CURVE SMOOTH",
"443 943 LINE"
);
},
{
closed = 1;
nodes = (
"598 785 OFFCURVE",
"624 814 OFFCURVE",
"624 851 CURVE SMOOTH",
"624 889 OFFCURVE",
"598 919 OFFCURVE",
"556 919 CURVE SMOOTH",
"515 919 OFFCURVE",
"490 889 OFFCURVE",
"490 851 CURVE SMOOTH",
"490 814 OFFCURVE",
"515 785 OFFCURVE",
"556 785 CURVE SMOOTH"
);
}
);
width = 812;
}
);
leftKerningGroup = U;
note = Udieresisgrave;
rightKerningGroup = U;
unicode = 01DB;
},
